<svg width="438" height="438" viewBox="0 0 438 438" fill="none" xmlns="http://www.w3.org/2000/svg">
<path d="M438 334.981H0V335.2H438V334.981Z" fill="#EBEBEB"/>
<path d="M207.624 295.913H38.4694C35.7127 295.913 33.4692 293.67 33.4692 290.913V53.1384C33.4692 50.3816 35.7127 48.1382 38.4694 48.1382H207.624C210.38 48.1382 212.623 50.3816 212.623 53.1384V290.913C212.623 293.67 210.38 295.913 207.624 295.913ZM38.4694 48.3581C35.8327 48.3581 33.6882 50.5025 33.6882 53.1393V290.914C33.6882 293.55 35.8327 295.695 38.4694 295.695H207.624C210.26 295.695 212.404 293.55 212.404 290.914V53.1384C212.404 50.5025 210.26 48.3572 207.624 48.3572L38.4694 48.3581Z" fill="#EBEBEB"/>
<path d="M397.099 295.913H227.946C225.189 295.913 222.946 293.67 222.946 290.913V53.1384C222.946 50.3816 225.19 48.1382 227.946 48.1382H397.099C399.857 48.1382 402.1 50.3816 402.1 53.1384V290.913C402.101 293.67 399.857 295.913 397.099 295.913ZM227.946 48.3581C225.31 48.3581 223.165 50.5025 223.165 53.1393V290.914C223.165 293.55 225.31 295.695 227.946 295.695H397.099C399.736 295.695 401.881 293.55 401.881 290.914V53.1384C401.881 50.5025 399.736 48.3572 397.099 48.3572L227.946 48.3581Z" fill="#EBEBEB"/>
<path d="M394.114 343.324H366.46V343.543H394.114V343.324Z" fill="#EBEBEB"/>
<path d="M293.753 340.946H264.487V341.165H293.753V340.946Z" fill="#EBEBEB"/>
<path d="M402.1 351.458H347.409V351.677H402.1V351.458Z" fill="#EBEBEB"/>
<path d="M62.804 349.987H45.9541V350.206H62.804V349.987Z" fill="#EBEBEB"/>
<path d="M97.1388 349.987H70.603V350.206H97.1388V349.987Z" fill="#EBEBEB"/>
<path d="M213.861 346.288H166.07V346.507H213.861V346.288Z" fill="#EBEBEB"/>
<path d="M238.504 103.482L188.584 153.403V319.664H363.775V103.482H238.504Z" fill="white"/>
<path d="M363.776 320.136H188.585C188.324 320.136 188.113 319.925 188.113 319.664V153.402C188.113 153.277 188.163 153.158 188.251 153.068L238.171 103.149C238.26 103.06 238.379 103.011 238.504 103.011H363.776C364.036 103.011 364.247 103.222 364.247 103.483V319.664C364.247 319.925 364.035 320.136 363.776 320.136ZM189.055 319.193H363.304V103.954H238.699L189.055 153.598V319.193Z" fill="#E0E0E0"/>
<path d="M188.584 153.403L240.961 160.159L238.504 103.482L188.584 153.403Z" fill="#E6E6E6"/>
<path d="M188.584 153.403H238.504V103.482L188.584 153.403Z" fill="white"/>
<path d="M238.504 153.873H188.584C188.393 153.873 188.222 153.758 188.149 153.582C188.076 153.406 188.117 153.203 188.251 153.068L238.17 103.148C238.305 103.014 238.509 102.972 238.685 103.047C238.861 103.119 238.975 103.291 238.975 103.482V153.402C238.975 153.662 238.763 153.873 238.504 153.873ZM189.721 152.931H238.032V104.62L189.721 152.931Z" fill="#E0E0E0"/>
<path d="M286.316 225.298L316.113 195.501C318.9 192.713 318.9 188.152 316.113 185.364C313.325 182.577 308.765 182.577 305.977 185.364L276.18 215.162L246.383 185.364C243.596 182.577 239.034 182.577 236.248 185.364C233.46 188.152 233.46 192.713 236.248 195.501L266.045 225.298L236.248 255.095C233.46 257.882 233.46 262.443 236.248 265.23C239.035 268.018 243.596 268.018 246.383 265.23L276.18 235.433L305.977 265.23C308.765 268.018 313.325 268.018 316.113 265.23C318.9 262.443 318.9 257.882 316.113 255.095L286.316 225.298Z" fill="#F0F0F0"/>
<path d="M195.374 200.636C191.876 204.134 186.204 204.134 182.707 200.636L153.962 171.892L166.629 159.225L195.374 187.969C198.871 191.467 198.871 197.138 195.374 200.636Z" fill="#F0F0F0"/>
<path d="M167.801 169.551L164.289 173.063C161.761 175.591 157.662 175.591 155.134 173.063L153.962 171.892L166.629 159.225L167.801 160.396C170.328 162.924 170.328 167.023 167.801 169.551Z" fill="#E0E0E0"/>
<path d="M74.2018 79.4648C49.8963 103.77 49.8963 143.168 74.2018 167.473C98.5029 191.774 137.905 191.778 162.21 167.473C186.511 143.172 186.511 103.766 162.21 79.4648C137.905 55.1593 98.5029 55.1637 74.2018 79.4648ZM158.614 163.876C136.299 186.191 100.114 186.191 77.7986 163.876C55.4834 141.561 55.4834 105.376 77.7986 83.0608C100.114 60.7455 136.299 60.7455 158.614 83.0608C180.929 105.377 180.929 141.561 158.614 163.876Z" fill="#E0E0E0"/>
<path d="M150.901 158.245C150.368 158.245 149.835 158.042 149.428 157.635C148.615 156.822 148.615 155.504 149.428 154.691C166.644 137.475 166.644 109.462 149.428 92.2463C148.615 91.4325 148.615 90.1141 149.428 89.3021C150.241 88.4892 151.561 88.4892 152.373 89.3021C171.212 108.142 171.212 138.796 152.373 157.636C151.966 158.042 151.434 158.245 150.901 158.245Z" fill="#E0E0E0"/>
<path d="M73.2154 136.247C72.2719 136.247 71.4178 135.603 71.191 134.645C68.1258 121.696 70.5524 107.932 77.8494 96.8808C78.4828 95.9189 79.774 95.6552 80.7341 96.2903C81.6942 96.9237 81.9579 98.2149 81.3245 99.175C74.659 109.271 72.4419 121.85 75.2433 133.686C75.5088 134.805 74.8167 135.928 73.6972 136.191C73.5351 136.23 73.374 136.247 73.2154 136.247Z" fill="#E0E0E0"/>
<path d="M85.5116 158.245C84.979 158.245 84.4455 158.042 84.0391 157.636C80.2705 153.866 77.1765 149.552 74.8437 144.814C74.3356 143.782 74.7596 142.534 75.7915 142.026C76.82 141.514 78.0709 141.942 78.579 142.974C80.7112 147.302 83.5389 151.244 86.9842 154.691C87.798 155.504 87.7971 156.823 86.9842 157.635C86.5777 158.042 86.0451 158.245 85.5116 158.245Z" fill="#E0E0E0"/>
<path d="M166.707 307.883L165.845 307.021C163.822 304.998 163.822 301.716 165.845 299.692L184.862 280.675L193.053 288.865L174.036 307.882C172.012 309.907 168.731 309.907 166.707 307.883Z" fill="#F0F0F0"/>
<path d="M186.01 289.257L184.471 287.719C182.635 285.882 182.635 282.903 184.471 281.066L184.862 280.676L193.053 288.866L192.662 289.257C190.825 291.094 187.847 291.094 186.01 289.257Z" fill="#E0E0E0"/>
<path d="M249.09 236.253L229.908 255.435C225.227 260.115 225.227 267.776 229.908 272.457C234.588 277.138 242.249 277.138 246.93 272.457L254.689 264.698C256.291 255.015 254.425 244.862 249.09 236.253Z" fill="#F0F0F0"/>
<path d="M256.315 254.76C254.771 232.588 235.549 215.869 213.378 217.413C191.21 218.956 174.487 238.178 176.03 260.351C177.574 282.519 196.8 299.242 218.968 297.698C241.139 296.154 257.858 276.928 256.315 254.76ZM179.311 260.122C177.894 239.765 193.249 222.112 213.606 220.694C233.963 219.277 251.616 234.631 253.033 254.989C254.451 275.346 239.095 292.999 218.739 294.417C198.382 295.834 180.728 280.479 179.311 260.122Z" fill="#E0E0E0"/>
<path d="M195.677 281.117C189.641 275.866 185.602 268.318 185.003 259.725C184.952 258.983 185.511 258.341 186.253 258.288C186.994 258.237 187.637 258.796 187.69 259.539C188.783 275.243 202.452 287.131 218.155 286.038C218.897 285.986 219.54 286.546 219.592 287.288C219.643 288.03 219.084 288.673 218.342 288.724C209.75 289.322 201.715 286.369 195.677 281.117Z" fill="#E0E0E0"/>
<path d="M244.089 250.526C243.897 250.358 243.75 250.135 243.676 249.871C241.58 242.334 236.382 235.916 229.421 232.26C228.759 231.915 228.509 231.1 228.854 230.443C229.199 229.784 230.014 229.531 230.671 229.876C238.291 233.879 243.976 240.903 246.269 249.15C246.469 249.867 246.049 250.609 245.333 250.808C244.881 250.933 244.417 250.812 244.089 250.526Z" fill="#E0E0E0"/>
<path d="M213.212 228.746C212.952 228.52 212.779 228.194 212.752 227.823C212.701 227.081 213.26 226.438 214.002 226.387C217.441 226.148 220.858 226.469 224.16 227.342C224.881 227.535 225.308 228.27 225.118 228.988C224.928 229.708 224.191 230.136 223.472 229.946C220.456 229.148 217.334 228.855 214.19 229.074C213.818 229.1 213.471 228.973 213.212 228.746Z" fill="#E0E0E0"/>
<path d="M219 374.543C312.804 374.543 388.847 370.103 388.847 364.625C388.847 359.146 312.804 354.706 219 354.706C125.196 354.706 49.1533 359.146 49.1533 364.625C49.1533 370.103 125.196 374.543 219 374.543Z" fill="#F5F5F5"/>
<path d="M120.732 127.794C113.671 134.893 125.675 145.925 117.744 150.984C124.213 154.237 146.905 158.362 152.751 145.586C148.468 142.258 151.442 134.069 147.488 126.217C141.618 114.562 113.671 119.72 120.732 127.794Z" fill="#263238"/>
<path d="M121.372 127.607C119.17 127.237 111.746 130.938 117.268 140.864C121.73 148.882 118.015 149.455 118.015 149.455C118.015 149.455 122.421 149.579 119.792 143.613C116.984 137.243 115.674 130.634 121.372 127.607Z" fill="#263238"/>
<path d="M173.435 190.63C172.888 189.584 171.596 189.179 170.549 189.726L170.028 189.998C169.865 190.083 169.547 190.295 169.292 190.437C169.024 190.6 168.748 190.753 168.466 190.895C167.907 191.184 167.326 191.417 166.755 191.619C165.609 192.022 164.468 192.235 163.386 192.252C162.3 192.279 161.273 192.081 160.276 191.753C159.651 191.533 159.041 191.24 158.44 190.897C157.689 189.231 156.972 187.55 156.355 185.818C155.61 183.791 154.957 181.722 154.381 179.628C153.807 177.535 153.295 175.42 152.872 173.291C152.653 172.229 152.458 171.163 152.285 170.099L152.051 168.513C151.971 168.003 151.901 167.432 151.854 167.028L151.834 166.854C151.559 164.529 149.492 162.82 147.139 163.006C144.729 163.198 142.93 165.306 143.122 167.717C143.181 168.457 143.238 169.027 143.314 169.655C143.384 170.272 143.484 170.873 143.571 171.478C143.765 172.682 143.98 173.876 144.223 175.063C144.717 177.436 145.323 179.78 146.063 182.089C146.41 183.249 146.831 184.389 147.226 185.535C147.678 186.665 148.091 187.805 148.593 188.916C149.521 191.165 150.666 193.334 151.847 195.474L151.954 195.67C152.257 196.221 152.717 196.696 153.312 197.02C154.918 197.895 156.719 198.554 158.613 198.898C160.511 199.238 162.501 199.18 164.355 198.772C166.211 198.341 167.918 197.577 169.395 196.582C170.136 196.087 170.811 195.522 171.447 194.929C171.765 194.631 172.07 194.324 172.365 194C172.669 193.656 172.902 193.366 173.247 192.909C173.728 192.272 173.83 191.386 173.435 190.63Z" fill="#FF8B7B"/>
<path d="M179.271 182.43L179.019 182.423C177.313 182.382 175.687 183.143 174.625 184.476L170.394 189.784L170.358 193.413C173.754 194.762 178.067 191.122 178.067 191.122L180.248 190.576C181.767 190.196 182.752 188.728 182.528 187.178L182.219 185.044C182.006 183.57 180.76 182.466 179.271 182.43Z" fill="#FF8B7B"/>
<path d="M151.747 161.954C154.577 164.861 154.757 173.545 154.757 173.545L143.432 182.651C143.432 182.651 138.788 169.781 141.357 165.234C143.538 161.373 148.143 158.251 151.747 161.954Z" fill="#407BFF"/>
<g opacity="0.2">
<path d="M151.747 161.954C154.577 164.861 154.757 173.545 154.757 173.545L143.432 182.651C143.432 182.651 138.788 169.781 141.357 165.234C143.538 161.373 148.143 158.251 151.747 161.954Z" fill="white"/>
</g>
<path d="M133.022 357.115L139.274 357.805L140.13 340.808L133.879 340.118L133.022 357.115Z" fill="#FF8B7B"/>
<path d="M140.302 353.716H132.951C132.631 353.716 132.387 353.939 132.365 354.251L131.876 361.203C131.825 361.924 132.492 362.587 133.232 362.594C136.334 362.622 136.364 362.608 140.228 362.608C142.605 362.608 147.377 362.608 150.659 362.608C153.87 362.608 153.877 359.362 152.489 359.068C146.263 357.749 143.836 355.932 141.643 354.197C141.25 353.884 140.77 353.716 140.302 353.716Z" fill="#263238"/>
<path opacity="0.2" d="M140.129 340.812L139.689 349.573L133.4 349.581L133.876 340.122L140.129 340.812Z" fill="black"/>
<path d="M143.506 205.219C143.506 205.219 148.911 250.536 148.911 270.684C144.646 298.716 141.039 347.911 141.039 347.911L132.38 347.688C132.38 347.688 128.447 294.106 132.095 270.977C127.424 250.244 121.659 202.417 121.659 202.417L143.506 205.219Z" fill="#263238"/>
<path opacity="0.2" d="M126.822 217.835C125.727 218.317 124.737 218.842 123.826 219.394C125.018 228.338 126.586 239.595 128.25 249.984C131.088 241.434 129.555 222.635 126.822 217.835Z" fill="black"/>
<path d="M65.291 341.339L70.4472 344.941L79.3456 330.433L74.1894 326.832L65.291 341.339Z" fill="#FF8B7B"/>
<path d="M71.7541 343.041L67.3592 337.147C67.1682 336.891 66.845 336.828 66.5813 336.997L60.7156 340.761C60.1077 341.151 59.9736 342.082 60.4116 342.679C62.2433 345.183 62.2722 345.199 64.5823 348.296C66.0031 350.201 68.8554 354.027 70.8176 356.658C72.7369 359.232 75.3439 357.298 74.7491 356.009C72.0843 350.23 72.0905 347.198 72.1702 344.403C72.1859 343.901 72.0335 343.416 71.7541 343.041Z" fill="#263238"/>
<path opacity="0.2" d="M79.342 330.437L74.7561 337.915L69.2329 334.908L74.1841 326.834L79.342 330.437Z" fill="black"/>
<path d="M96.9407 347.424C92.4626 347.424 83.142 347.424 82.9852 340.836C82.8608 335.666 89.2573 333.523 94.7718 333.26C97.3481 333.127 99.5258 335.123 99.6493 337.694C99.6546 337.811 99.6563 337.928 99.6528 338.042C105.906 337.745 109.955 336.38 111.433 334.047C114.773 328.784 108.381 315.22 102.2 302.103C94.9338 286.681 86.6985 269.201 86.5365 252.464C86.512 249.89 88.5784 247.783 91.153 247.758C91.1679 247.758 91.1828 247.758 91.1986 247.758C93.7512 247.758 95.8335 249.816 95.858 252.374C95.999 267.072 103.774 283.573 110.633 298.13C118.55 314.935 125.389 329.448 119.305 339.039C115.727 344.682 108.411 347.424 96.9407 347.424Z" fill="#407BFF"/>
<path d="M136.576 204.33C136.576 204.33 121.634 256.116 114.332 274.895C100.199 299.476 76.7394 337.102 76.7394 337.102L69.2461 332.756C69.2461 332.756 86.7714 289.308 98.5536 269.072C101.712 248.056 113.671 201.391 113.671 201.391L136.576 204.33Z" fill="#263238"/>
<path d="M73.098 347.27C73.5045 347.815 73.9539 348.242 74.4024 348.333C74.709 348.395 74.992 348.299 75.2425 348.047C75.4291 347.86 75.4501 347.65 75.4352 347.507C75.3248 346.456 72.6136 345.093 72.0714 344.83C72.0092 344.801 71.9365 344.823 71.8909 344.887C71.8454 344.951 71.8366 345.041 71.869 345.112C72.1537 345.73 72.5917 346.591 73.098 347.27ZM74.9648 347.237C75.055 347.358 75.1102 347.47 75.1207 347.57C75.126 347.618 75.1207 347.677 75.0471 347.75C74.8702 347.927 74.681 347.993 74.4664 347.949C73.8935 347.833 73.1331 346.899 72.3902 345.417C73.3547 345.926 74.5434 346.672 74.9648 347.237Z" fill="#407BFF"/>
<path d="M71.888 345.144C71.9011 345.163 71.9178 345.177 71.9362 345.188C72.8051 345.674 75.0898 346.056 75.5856 345.334C75.6942 345.177 75.7748 344.903 75.5418 344.499C74.6377 342.941 72.0413 344.765 71.9309 344.844C71.8792 344.88 71.8468 344.949 71.8477 345.021C71.8494 345.069 71.8634 345.112 71.888 345.144ZM75.215 344.632C75.2387 344.663 75.2606 344.696 75.2807 344.732C75.3762 344.896 75.3981 345.017 75.3464 345.092C75.0591 345.51 73.3719 345.367 72.3908 344.979C73.0495 344.581 74.5861 343.789 75.215 344.632Z" fill="#407BFF"/>
<path d="M144.496 355.166C145.175 355.166 145.786 355.061 146.128 354.756C146.361 354.548 146.453 354.264 146.401 353.912C146.362 353.651 146.206 353.508 146.083 353.434C145.175 352.896 142.462 354.253 141.926 354.532C141.865 354.563 141.84 354.635 141.863 354.71C141.887 354.784 141.954 354.845 142.031 354.861C142.696 355.003 143.649 355.166 144.496 355.166ZM145.585 353.651C145.736 353.651 145.859 353.673 145.945 353.725C145.987 353.75 146.031 353.789 146.046 353.892C146.083 354.14 146.022 354.331 145.859 354.477C145.423 354.867 144.22 354.918 142.587 354.627C143.571 354.157 144.88 353.651 145.585 353.651Z" fill="#407BFF"/>
<path d="M142.069 354.866C142.091 354.866 142.112 354.862 142.133 354.853C143.042 354.447 144.713 352.843 144.432 352.015C144.371 351.833 144.2 351.605 143.737 351.551C141.946 351.344 141.858 354.516 141.854 354.651C141.852 354.715 141.888 354.782 141.947 354.824C141.985 354.852 142.028 354.866 142.069 354.866ZM143.646 351.893C143.685 351.893 143.725 351.895 143.766 351.9C143.955 351.922 144.065 351.976 144.094 352.062C144.257 352.543 143.134 353.81 142.237 354.365C142.311 353.598 142.594 351.893 143.646 351.893Z" fill="#407BFF"/>
<path d="M113.671 201.392C119.431 202.13 131.67 203.695 143.505 205.214C150.239 182.558 152.448 171.62 153.049 166.348C153.361 163.614 151.71 161.037 149.086 160.21C147.302 159.648 145.078 158.984 142.835 158.412C142.067 158.214 141.292 158.028 140.529 157.859C136.16 156.889 132.029 156.518 126.983 156.116C126.31 156.06 125.641 156.022 124.971 155.985C123.649 155.922 122.357 155.897 121.152 155.897C117.368 155.897 114.404 159.133 114.733 162.903C114.965 165.55 115.151 167.973 115.291 170.215C115.626 175.455 115.727 179.679 115.652 183.362C115.496 190.214 114.726 195.198 113.671 201.392Z" fill="#407BFF"/>
<g opacity="0.3">
<path d="M113.671 201.392C119.431 202.13 131.67 203.695 143.505 205.214C150.239 182.558 152.448 171.62 153.049 166.348C153.361 163.614 151.71 161.037 149.086 160.21C147.302 159.648 145.078 158.984 142.835 158.412C142.067 158.214 141.292 158.028 140.529 157.859C136.16 156.889 132.029 156.518 126.983 156.116C126.31 156.06 125.641 156.022 124.971 155.985C123.649 155.922 122.357 155.897 121.152 155.897C117.368 155.897 114.404 159.133 114.733 162.903C114.965 165.55 115.151 167.973 115.291 170.215C115.626 175.455 115.727 179.679 115.652 183.362C115.496 190.214 114.726 195.198 113.671 201.392Z" fill="white"/>
</g>
<path opacity="0.3" d="M115.651 183.363C119.595 178.266 121.016 172.435 119.741 169.214L115.292 170.216C115.626 175.456 115.727 179.68 115.651 183.363Z" fill="#407BFF"/>
<path d="M142.835 158.416C142.064 158.215 141.294 158.031 140.531 157.855C136.16 156.892 132.025 156.515 126.98 156.112C126.305 156.06 125.639 156.025 124.974 155.99C124.579 155.972 124.194 155.955 123.809 155.937L124.728 157.47C124.851 157.68 127.829 162.551 135.275 167.789L136.861 168.893L138.385 167.728C142.634 164.478 143.186 160.405 143.186 158.504C143.072 158.477 142.949 158.442 142.835 158.416Z" fill="white"/>
<path d="M130.267 147.099C129.988 150.786 129.12 154.543 126.979 156.118C126.979 156.118 129.709 160.665 136.791 165.637C141.224 162.246 140.527 157.856 140.527 157.856C135.815 156.072 136.135 152.837 138.137 147.626L134.458 145.646C133.03 144.07 130.426 144.979 130.267 147.099Z" fill="#FF8B7B"/>
<path opacity="0.2" d="M134.454 145.642C133.108 144.155 130.707 144.884 130.315 146.763C131.822 149.527 133.756 151.847 136.75 153.346C136.709 151.785 137.261 149.888 138.131 147.622L134.454 145.642Z" fill="black"/>
<path d="M124.543 135.536C126.372 142.655 126.994 145.708 131.344 148.706C137.888 153.216 146.232 149.413 146.568 141.891C146.87 135.12 143.83 124.614 136.226 123.104C128.733 121.615 122.714 128.416 124.543 135.536Z" fill="#FF8B7B"/>
<path d="M142.664 124.538C135.364 130.962 127.803 132.751 127.803 132.751C127.803 132.751 133.237 144.321 123.059 141.401C120.107 131.546 123.101 126.437 125.655 124.028C133.757 121.399 139.451 120.523 142.664 124.538Z" fill="#263238"/>
<path d="M124.198 142.551C124.825 143.94 126.035 144.91 127.213 145.334C128.986 145.971 130.009 144.419 129.63 142.674C129.29 141.104 127.957 138.88 126.123 138.994C124.317 139.108 123.482 140.963 124.198 142.551Z" fill="#FF8B7B"/>
<path d="M113.448 199.585L111.76 202.083C111.629 202.276 111.848 202.519 112.192 202.564L143.482 206.576C143.751 206.61 143.991 206.508 144.029 206.34L144.641 203.704C144.683 203.521 144.47 203.336 144.175 203.298L113.962 199.423C113.741 199.394 113.532 199.459 113.448 199.585Z" fill="#407BFF"/>
<path d="M117.073 203.482L116.264 203.378C116.103 203.357 115.991 203.259 116.015 203.158L116.839 199.738C116.863 199.638 117.015 199.573 117.176 199.593L117.985 199.696C118.146 199.717 118.259 199.816 118.234 199.916L117.41 203.338C117.386 203.439 117.234 203.503 117.073 203.482Z" fill="#263238"/>
<path d="M141.171 206.573L140.362 206.47C140.2 206.449 140.088 206.351 140.113 206.25L140.937 202.829C140.961 202.729 141.113 202.664 141.274 202.685L142.084 202.788C142.245 202.809 142.357 202.907 142.333 203.008L141.508 206.429C141.485 206.528 141.332 206.594 141.171 206.573Z" fill="#263238"/>
<path d="M129.123 205.028L128.313 204.924C128.152 204.904 128.04 204.805 128.064 204.704L128.889 201.283C128.912 201.183 129.065 201.117 129.226 201.138L130.035 201.242C130.197 201.263 130.309 201.361 130.284 201.461L129.46 204.882C129.435 204.984 129.284 205.049 129.123 205.028Z" fill="#263238"/>
<path d="M136.739 135.231C136.852 135.817 137.254 136.233 137.638 136.159C138.022 136.086 138.241 135.55 138.128 134.963C138.015 134.376 137.613 133.961 137.229 134.035C136.846 134.108 136.626 134.644 136.739 135.231Z" fill="#263238"/>
<path d="M143.371 133.955C143.484 134.542 143.886 134.957 144.269 134.884C144.653 134.81 144.872 134.275 144.759 133.688C144.646 133.101 144.244 132.686 143.86 132.759C143.477 132.833 143.258 133.368 143.371 133.955Z" fill="#263238"/>
<path d="M143.697 132.825L145.028 132.147C145.028 132.147 144.516 133.387 143.697 132.825Z" fill="#263238"/>
<path d="M141.618 135.272C141.618 135.272 143.099 137.606 144.43 138.614C143.795 139.486 142.414 139.408 142.414 139.408L141.618 135.272Z" fill="#FF5652"/>
<path d="M137.477 141.773C137.432 141.825 137.419 141.901 137.45 141.965C137.492 142.053 137.598 142.089 137.684 142.047C140.038 140.908 141.944 142.021 141.964 142.032C142.047 142.082 142.156 142.052 142.204 141.971C142.254 141.888 142.227 141.781 142.145 141.731C142.061 141.68 140.063 140.506 137.532 141.731C137.511 141.742 137.492 141.757 137.477 141.773Z" fill="#263238"/>
<path d="M134.459 133.424C134.508 133.39 134.55 133.345 134.578 133.287C135.269 131.884 136.551 131.714 136.564 131.712C136.755 131.689 136.893 131.514 136.871 131.322C136.848 131.13 136.673 130.993 136.48 131.016C136.412 131.024 134.807 131.236 133.948 132.977C133.863 133.15 133.934 133.362 134.108 133.447C134.225 133.504 134.358 133.491 134.459 133.424Z" fill="#263238"/>
<path d="M145.339 128.986C145.354 128.971 145.369 128.954 145.381 128.935C145.491 128.775 145.45 128.556 145.291 128.447C143.691 127.347 142.187 127.947 142.124 127.973C141.945 128.046 141.86 128.251 141.933 128.431C142.007 128.61 142.211 128.695 142.39 128.622C142.446 128.599 143.62 128.15 144.893 129.025C145.034 129.122 145.222 129.102 145.339 128.986Z" fill="#263238"/>
<path d="M137.066 134.1L138.397 133.423C138.397 133.423 137.886 134.662 137.066 134.1Z" fill="#263238"/>
<path d="M91.1971 257.08C88.6445 257.08 86.5622 255.022 86.5377 252.465C86.4177 240.021 90.5629 229.518 98.524 222.092C108.325 212.948 123.617 208.702 141.591 210.121C154.196 211.121 162.28 208.047 171.638 204.487C173.177 203.903 174.732 203.312 176.326 202.731C178.741 201.847 181.419 203.097 182.299 205.516C183.18 207.935 181.933 210.609 179.515 211.489C177.963 212.054 176.449 212.631 174.951 213.199C165.415 216.827 155.556 220.571 140.855 219.413C125.519 218.194 112.747 221.569 104.882 228.907C98.7999 234.582 95.7637 242.477 95.8592 252.374C95.8837 254.948 93.8173 257.055 91.2444 257.08C91.2287 257.08 91.2129 257.08 91.1971 257.08Z" fill="#407BFF"/>
<path d="M180.226 224.934L198.986 218.063L186.927 185.142L168.167 192.013C164.925 193.201 163.244 196.825 164.431 200.067L172.172 221.198C173.359 224.441 176.983 226.122 180.226 224.934Z" fill="#407BFF"/>
<path opacity="0.7" d="M180.226 224.934L198.986 218.063L186.927 185.142L168.167 192.013C164.925 193.201 163.244 196.825 164.431 200.067L172.172 221.198C173.359 224.441 176.983 226.122 180.226 224.934Z" fill="white"/>
<path opacity="0.2" d="M178.56 188.203L186.928 185.138L198.988 218.064L190.621 221.129C190.072 220.605 189.646 219.957 189.37 219.204L178.848 190.48C178.572 189.727 178.479 188.958 178.56 188.203Z" fill="#407BFF"/>
<path d="M205.708 193.367L204.885 193.668L206.89 199.143L207.713 198.842L205.708 193.367Z" fill="#407BFF"/>
<path d="M203.63 190.23L200.671 182.152C199.648 179.359 196.957 177.483 193.974 177.483C193.143 177.483 192.323 177.628 191.539 177.916L186.21 179.868L185.908 179.046L191.238 177.093C192.12 176.771 193.041 176.607 193.974 176.607C197.322 176.607 200.344 178.714 201.493 181.851L204.452 189.929L203.63 190.23Z" fill="#407BFF"/>
<path d="M198.617 221.4L206.421 218.542C208.965 217.61 210.285 214.766 209.353 212.221L198.615 182.906C197.683 180.361 194.838 179.041 192.293 179.974L184.49 182.832C181.945 183.764 180.626 186.608 181.558 189.153L192.296 218.468C193.227 221.013 196.072 222.333 198.617 221.4Z" fill="#407BFF"/>
<path d="M194.652 190.852C195.151 192.215 194.451 193.725 193.088 194.224C191.725 194.723 190.216 194.023 189.716 192.66C189.217 191.297 189.917 189.788 191.28 189.289C192.643 188.79 194.152 189.49 194.652 190.852Z" fill="#263238"/>
<path d="M201.193 208.713C201.693 210.076 200.993 211.585 199.63 212.085C198.266 212.584 196.757 211.884 196.258 210.521C195.758 209.158 196.458 207.649 197.821 207.149C199.185 206.65 200.694 207.35 201.193 208.713Z" fill="#263238"/>
<path d="M124.422 206.603L124.346 206.528C122.977 205.162 121.532 203.673 120.232 202.163C118.905 200.66 117.644 199.117 116.484 197.54C115.315 195.969 114.273 194.343 113.367 192.712C112.689 191.471 112.121 190.212 111.684 188.97C112.207 187.225 112.764 185.491 113.43 183.784C114.194 181.764 115.056 179.773 115.992 177.814C116.928 175.856 117.927 173.923 119.002 172.037C119.533 171.09 120.083 170.158 120.649 169.241L121.511 167.889C121.785 167.452 122.106 166.973 122.334 166.638L122.432 166.493C123.747 164.557 123.306 161.911 121.405 160.511C119.458 159.077 116.717 159.492 115.283 161.44C114.844 162.038 114.513 162.506 114.158 163.03C113.808 163.541 113.489 164.061 113.16 164.577C112.518 165.613 111.898 166.656 111.304 167.713C110.124 169.829 109.045 171.998 108.092 174.227C107.596 175.331 107.167 176.468 106.715 177.592C106.316 178.743 105.882 179.874 105.533 181.044C104.762 183.35 104.206 185.739 103.697 188.13L103.653 188.338C103.522 188.958 103.558 189.619 103.792 190.258C104.649 192.604 105.834 194.689 107.143 196.597C108.454 198.504 109.934 200.219 111.472 201.823C113.03 203.412 114.66 204.89 116.369 206.252C118.107 207.604 119.814 208.861 121.767 210.022C122.605 210.519 123.703 210.409 124.423 209.688C125.275 208.833 125.273 207.453 124.422 206.603Z" fill="#FF8B7B"/>
<path d="M134.57 210.955L134.461 210.727C133.72 209.191 132.302 208.089 130.631 207.751L123.978 206.406L120.733 208.027C121.08 211.664 126.285 213.845 126.285 213.845L127.765 215.537C128.796 216.716 130.551 216.924 131.829 216.018L133.588 214.771C134.801 213.909 135.217 212.296 134.57 210.955Z" fill="#FF8B7B"/>
<path d="M118.428 156.498C114.742 158.191 110.811 164.036 110.811 164.036L118.729 178.801C118.729 178.801 127.697 168.468 126.939 163.3C126.296 158.913 123.124 154.343 118.428 156.498Z" fill="#407BFF"/>
<g opacity="0.3">
<path d="M118.428 156.498C114.742 158.191 110.811 164.036 110.811 164.036L118.729 178.801C118.729 178.801 127.697 168.468 126.939 163.3C126.296 158.913 123.124 154.343 118.428 156.498Z" fill="white"/>
</g>
<path d="M370.804 349.903C363.085 349.904 355.497 348.314 351.822 343.515C334.401 320.768 334.56 274.923 334.712 230.586C334.795 206.722 336.681 184.179 334.031 166.666C332.468 156.342 327.057 149.25 321.516 145.589C313.355 140.197 302.137 143.092 297.345 144.33C294.853 144.975 292.312 143.476 291.667 140.983C291.024 138.491 292.523 135.949 295.015 135.305C301.006 133.757 315.037 130.135 326.655 137.812C334.489 142.988 341.271 152.226 343.245 165.271C346.004 183.493 344.116 206.383 344.033 230.618C343.886 273.392 343.733 317.622 359.222 337.847C360.471 339.478 365.367 340.938 373.456 340.522C374.171 340.486 374.875 340.436 375.564 340.376C375.264 339.761 375.096 339.069 375.096 338.339C375.096 335.765 377.183 333.678 379.756 333.678C389.941 333.678 395.302 334.535 396.338 339.214C396.635 340.553 396.793 343.917 391.867 346.21C388.191 347.923 379.415 349.903 370.804 349.903Z" fill="#407BFF"/>
<path d="M268.819 353.919L259.312 350.184L264.327 333.704L273.833 337.439L268.819 353.919Z" fill="#FFC3BD"/>
<path d="M259.088 349.173L269.795 353.38C270.078 353.491 270.245 353.783 270.198 354.083L269.151 360.753C269.042 361.446 268.305 361.851 267.658 361.584C264.97 360.474 260.763 358.638 257.353 357.298C255.255 356.473 251.269 355.158 248.372 354.021C245.539 352.907 246.222 349.869 247.51 350.076C253.285 351.002 255.497 350.019 257.8 349.158C258.216 349.002 258.676 349.011 259.088 349.173Z" fill="#263238"/>
<path opacity="0.2" d="M273.834 337.445L264.324 333.707L261.743 342.204L271.254 345.941L273.834 337.445Z" fill="black"/>
<path d="M285.726 209.895C285.726 209.895 277.126 252.419 273.833 273.387C270.142 296.892 260.371 339.823 260.371 339.823L273.011 344.79C273.011 344.79 291.064 300.838 293.581 279.546C301.155 262.252 316.225 211.333 316.225 211.333L285.726 209.895Z" fill="#407BFF"/>
<path d="M259.764 339.9L273.636 345.351L276.007 341.15L260.495 334.72L259.764 339.9Z" fill="#263238"/>
<path d="M256.365 349.354C255.84 349.147 255.383 348.865 255.174 348.48C255.008 348.175 255.009 347.84 255.175 347.483C255.299 347.217 255.495 347.145 255.637 347.131C256.558 347.038 258.243 349.281 258.432 349.537C258.474 349.594 258.478 349.67 258.442 349.732C258.406 349.792 258.337 349.825 258.267 349.816C257.742 349.743 257.002 349.605 256.365 349.354ZM255.9 347.522C255.814 347.489 255.738 347.473 255.672 347.48C255.619 347.486 255.551 347.507 255.493 347.632C255.374 347.885 255.371 348.108 255.481 348.312C255.735 348.778 256.619 349.175 257.883 349.4C257.282 348.644 256.429 347.731 255.9 347.522Z" fill="#407BFF"/>
<path d="M258.227 349.805C258.2 349.795 258.176 349.778 258.156 349.755C257.594 349.087 256.808 347.032 257.256 346.32C257.338 346.19 257.536 345.99 257.945 346.095C258.208 346.165 258.417 346.327 258.559 346.58C259.103 347.55 258.485 349.606 258.459 349.693C258.44 349.755 258.389 349.802 258.326 349.814C258.293 349.821 258.258 349.818 258.227 349.805ZM257.933 346.461C257.909 346.451 257.884 346.443 257.858 346.436C257.636 346.378 257.579 346.469 257.555 346.507C257.29 346.928 257.721 348.416 258.219 349.234C258.367 348.621 258.604 347.374 258.254 346.751C258.173 346.609 258.068 346.513 257.933 346.461Z" fill="#407BFF"/>
<path opacity="0.2" d="M304.269 235.669C299.506 241.579 297.623 256.622 297.642 269.169C300.858 260.314 304.539 249.063 307.782 238.848L304.269 235.669Z" fill="black"/>
<path d="M326.019 355.507H315.805L314.445 338.334H324.659L326.019 355.507Z" fill="#FFC3BD"/>
<path d="M315.227 354.648H326.731C327.034 354.648 327.297 354.858 327.363 355.154L328.827 361.745C328.979 362.429 328.442 363.076 327.742 363.064C324.834 363.014 320.247 362.843 316.584 362.843C314.33 362.843 310.139 363.077 307.026 363.077C303.982 363.077 303.507 359.999 304.781 359.72C310.494 358.47 312.194 356.747 314.023 355.103C314.352 354.807 314.783 354.648 315.227 354.648Z" fill="#263238"/>
<path opacity="0.2" d="M324.662 338.339H314.443L315.149 347.191H325.368L324.662 338.339Z" fill="black"/>
<path d="M298.095 210.437C298.095 210.437 303.754 257.816 304.944 274.873C306.601 298.609 313.002 345.476 313.002 345.476H326.583C326.583 345.476 328.04 297.612 325.58 276.313C328.964 257.74 327.894 211.858 327.894 211.858L298.095 210.437Z" fill="#407BFF"/>
<path d="M312.464 345.77H327.369L328.04 340.992L311.25 340.681L312.464 345.77Z" fill="#263238"/>
<path d="M312.758 355.813C312.194 355.813 311.667 355.717 311.33 355.434C311.065 355.211 310.943 354.899 310.967 354.506C310.985 354.214 311.141 354.075 311.268 354.009C312.092 353.586 314.48 355.058 314.75 355.226C314.811 355.264 314.842 355.333 314.831 355.404C314.819 355.473 314.767 355.529 314.699 355.547C314.183 355.67 313.444 355.813 312.758 355.813ZM311.656 354.277C311.564 354.277 311.487 354.291 311.428 354.322C311.381 354.346 311.326 354.391 311.318 354.528C311.301 354.807 311.378 355.016 311.556 355.166C311.962 355.506 312.93 355.553 314.189 355.3C313.352 354.815 312.225 354.277 311.656 354.277Z" fill="#407BFF"/>
<path d="M314.657 355.551C314.628 355.551 314.6 355.544 314.573 355.53C313.806 355.113 312.322 353.488 312.479 352.662C312.507 352.512 312.618 352.253 313.038 352.201C313.308 352.169 313.562 352.243 313.786 352.427C314.647 353.132 314.825 355.271 314.832 355.362C314.837 355.427 314.806 355.488 314.752 355.523C314.724 355.542 314.691 355.551 314.657 355.551ZM313.16 352.545C313.134 352.545 313.108 352.547 313.081 352.551C312.853 352.579 312.833 352.683 312.824 352.728C312.731 353.216 313.676 354.444 314.439 355.023C314.353 354.397 314.116 353.151 313.563 352.699C313.438 352.596 313.305 352.545 313.16 352.545Z" fill="#407BFF"/>
<path d="M302.781 145.09L302.745 145.089L294.561 144.983C291.816 144.965 289.08 144.903 286.377 144.855C285.555 144.839 284.746 144.802 283.933 144.77C283.978 144.721 284.019 144.673 284.064 144.624C284.64 144.013 285.216 143.381 285.815 142.778C286.109 142.466 286.405 142.158 286.704 141.86C286.982 141.56 287.324 141.228 287.514 140.987L288.261 140.046C289.11 138.961 289.455 137.503 289.068 136.07C288.414 133.655 285.927 132.226 283.512 132.879L281.89 133.317C281.385 133.469 280.887 133.629 280.394 133.795C279.414 134.142 278.444 134.513 277.491 134.93C275.585 135.762 273.739 136.759 271.929 137.892C270.135 139.036 268.383 140.357 266.717 141.855C265.042 143.344 263.499 145.107 262.067 147.035C261.739 147.484 261.428 148.007 261.196 148.539C259.5 152.424 261.274 156.948 265.159 158.643L265.954 158.99C268.143 159.945 269.847 160.401 271.526 160.836C273.188 161.263 274.769 161.539 276.315 161.801C277.862 162.055 279.385 162.276 280.888 162.464C282.393 162.632 283.889 162.781 285.373 162.906C288.341 163.174 291.285 163.3 294.218 163.391C297.172 163.458 300.031 163.476 303.075 163.339C307.862 163.113 311.73 159.191 311.794 154.335C311.858 149.296 307.824 145.155 302.781 145.09Z" fill="#FFC3BD"/>
<path d="M307.546 161.075C300.48 169.14 283.467 166.123 283.467 166.123L284.399 146.041C284.399 146.041 292.99 144.011 302.153 143.991C312.134 143.97 313.206 154.615 307.546 161.075Z" fill="#263238"/>
<path d="M288.68 154.908C288.255 158.144 287.843 162.509 287.532 168.38C283.843 187.031 282.465 200.253 285.725 209.895C288.298 213.075 321.862 212.461 327.897 211.854C331.378 203.181 331.766 178.286 332.175 157.36C332.291 151.404 328.022 146.262 322.151 145.25C314.592 143.945 306.968 143.624 299.265 144.478C293.759 145.088 289.401 149.413 288.68 154.908Z" fill="#263238"/>
<path opacity="0.2" d="M321.241 167.637C321.353 174.022 325.976 184.209 331.177 189.373C331.494 183.986 331.699 178.142 331.857 172.251L321.241 167.637Z" fill="black"/>
<path d="M350.478 180.036L350.183 179.33C348.91 176.289 347.47 173.501 345.895 170.866C344.334 168.238 342.659 165.758 340.909 163.363C339.173 160.965 337.321 158.69 335.428 156.461C334.469 155.358 333.514 154.254 332.506 153.19L330.987 151.593L329.346 149.967C325.936 146.6 320.431 146.417 316.822 149.664C313.076 153.034 312.77 158.802 316.14 162.548L316.4 162.836L321.548 168.559C323.285 170.505 324.969 172.489 326.63 174.455C327.437 175.447 328.269 176.437 329.029 177.441C329.838 178.428 330.578 179.427 331.332 180.424C332.415 181.938 333.464 183.44 334.4 184.922C334.28 185.602 334.088 186.364 333.863 187.141C333.282 189.106 332.528 191.261 331.648 193.398C330.799 195.56 329.844 197.746 328.878 199.956C327.924 202.155 326.876 204.416 325.957 206.604L325.874 206.796C325.202 208.401 325.474 210.318 326.726 211.686C328.443 213.563 331.356 213.691 333.232 211.974C335.238 210.137 336.98 208.277 338.725 206.299C340.448 204.323 342.086 202.26 343.652 200.074C344.435 198.982 345.174 197.841 345.909 196.665C346.647 195.493 347.357 194.265 348.007 192.942C348.663 191.616 349.297 190.238 349.849 188.63C350.395 187.011 350.874 185.222 350.967 182.748C350.999 181.857 350.845 180.913 350.478 180.036Z" fill="#FFC3BD"/>
<path d="M322.745 145.367C334.565 147.383 342.261 163.383 342.261 163.383L328.018 178.659C328.018 178.659 319.806 170.3 314.903 162.559C309.562 154.128 314.279 143.923 322.745 145.367Z" fill="#263238"/>
<path d="M301.156 120.141C299.183 116.827 298.546 112.237 302.16 107.61C299.77 107.985 298.547 105.888 298.547 105.888C298.547 105.888 303.792 100.978 312.64 100.982C323.247 100.987 324.039 105.073 323.676 107.869C330.926 108.332 336.217 127.2 317.83 130.532C307.313 119.416 301.156 120.141 301.156 120.141Z" fill="#263238"/>
<path d="M323.003 108.179C323.003 108.179 325.958 105.167 322.284 101.517C323.688 101.948 325.266 103.044 325.737 104.953C326.26 107.076 324.828 108.774 323.003 108.179Z" fill="#263238"/>
<path d="M318.939 128.195C318.659 133.999 318.138 140.605 319.11 145.245C317.605 147.615 313.752 150.347 306.84 150.961C304.38 149.567 301.142 146.165 302.27 144.411C305.209 142.527 306.451 136.821 305.608 132.559L318.939 128.195Z" fill="#FFC3BD"/>
<path opacity="0.2" d="M315.578 129.29L305.605 132.557C305.942 134.276 305.951 136.217 305.644 138.062C308.622 137.966 312.754 135.718 314.301 133.614C315.597 131.856 315.771 130.404 315.578 129.29Z" fill="black"/>
<path d="M321.855 118.993C320.007 126.117 319.287 130.38 314.924 133.37C308.361 137.869 300.106 132.832 299.789 125.3C299.503 118.52 302.574 108.01 310.19 106.517C317.694 105.046 323.703 111.87 321.855 118.993Z" fill="#FFC3BD"/>
<path d="M320.377 108.801C317.255 111.028 313.372 120.452 321.295 124.232C328.337 118.018 326.502 108.801 320.377 108.801Z" fill="#263238"/>
<path d="M322.187 109.933C323.521 103.726 307.872 100.524 302.909 107.765C301.231 112.103 321.237 115.984 322.187 109.933Z" fill="#263238"/>
<path d="M310.506 126.556C310.506 126.556 310.504 126.554 310.502 126.554C307.802 125.356 305.609 125.282 305.351 125.253C305.239 125.251 305.153 125.336 305.166 125.446C305.178 125.557 305.283 125.65 305.397 125.65C305.549 125.67 307.728 125.742 310.339 126.898C310.445 126.942 310.566 126.899 310.609 126.802C310.652 126.708 310.604 126.6 310.506 126.556Z" fill="#263238"/>
<path d="M323.561 126.782C322.216 128.24 320.322 128.94 318.692 128.98C316.24 129.039 315.614 126.7 316.8 124.701C317.866 122.901 320.427 120.702 322.646 121.597C324.832 122.478 325.101 125.115 323.561 126.782Z" fill="#FFC3BD"/>
<path d="M310.526 118.877C310.411 119.464 310.007 119.879 309.624 119.805C309.24 119.73 309.022 119.193 309.136 118.606C309.25 118.019 309.654 117.604 310.038 117.679C310.423 117.753 310.641 118.289 310.526 118.877Z" fill="#263238"/>
<path d="M303.891 117.583C303.776 118.17 303.372 118.585 302.989 118.511C302.605 118.436 302.387 117.899 302.501 117.312C302.616 116.725 303.019 116.31 303.403 116.385C303.787 116.459 304.005 116.996 303.891 117.583Z" fill="#263238"/>
<path d="M305.944 118.287C305.944 118.287 303.948 121.413 302.16 122.76C303.01 123.932 304.97 123.701 304.97 123.701L305.944 118.287Z" fill="#ED847E"/>
<path d="M309.57 115.467C309.695 115.436 309.831 115.473 309.922 115.575C310.956 116.751 312.239 116.579 312.253 116.577C312.444 116.549 312.623 116.683 312.651 116.874C312.679 117.065 312.554 117.246 312.354 117.273C312.287 117.283 310.678 117.498 309.395 116.04C309.267 115.894 309.281 115.672 309.427 115.544C309.47 115.506 309.519 115.481 309.57 115.467Z" fill="#263238"/>
<path d="M301.839 113.525C301.77 113.505 301.706 113.465 301.659 113.404C301.539 113.251 301.565 113.031 301.717 112.911C303.243 111.708 304.785 112.205 304.851 112.231C305.035 112.293 305.133 112.492 305.072 112.676C305.01 112.859 304.802 112.955 304.628 112.897C304.574 112.882 303.373 112.5 302.153 113.462C302.06 113.534 301.944 113.554 301.839 113.525Z" fill="#263238"/>
<path d="M330.122 206.354L322.594 206.301L326.484 214.937C326.484 214.937 332.902 213.56 332.553 210.077L330.122 206.354Z" fill="#FFC3BD"/>
<path d="M318.769 212.225L320.005 214.66C320.69 216.008 322.289 216.61 323.694 216.051L326.484 214.937L322.594 206.301L319.604 208.577C318.481 209.432 318.129 210.966 318.769 212.225Z" fill="#FFC3BD"/>
<path d="M272.842 199.988C271.671 199.988 270.5 199.55 269.595 198.67C267.749 196.876 267.706 193.926 269.5 192.08C272.851 188.63 275.871 185.965 278.535 183.613C284.966 177.938 287.179 175.758 286.969 171.479C286.872 169.514 286.11 166.713 285.304 163.747C283.387 156.7 281.217 148.714 284.933 142.317C286.932 138.875 290.324 136.517 295.015 135.305C297.502 134.663 300.049 136.16 300.693 138.652C301.336 141.144 299.838 143.685 297.346 144.329C294.048 145.181 293.254 146.549 292.992 146.998C291.233 150.027 292.932 156.278 294.297 161.3C295.241 164.769 296.132 168.044 296.278 171.02C296.719 179.996 291.417 184.676 284.703 190.6C282.165 192.842 279.286 195.381 276.184 198.574C275.27 199.516 274.057 199.988 272.842 199.988Z" fill="#407BFF"/>
<path d="M283.06 133.062L290.354 131.2L288.655 140.518C288.655 140.518 282.094 140.724 281.596 137.259L283.06 133.062Z" fill="#FFC3BD"/>
<path d="M295.466 136.143L294.905 138.572C294.548 140.114 293.075 141.129 291.507 140.913L288.654 140.519L290.354 131.201L293.699 132.647C295.056 133.233 295.799 134.703 295.466 136.143Z" fill="#FFC3BD"/>
<path d="M241.208 213.717L241.003 213.512C240.122 212.631 240.122 211.189 241.003 210.307L266.843 184.468C267.724 183.587 269.166 183.587 270.047 184.468L270.252 184.673C271.133 185.554 271.133 186.996 270.252 187.877L244.413 213.718C243.531 214.598 242.089 214.598 241.208 213.717Z" fill="#263238"/>
<path d="M254.657 227.167L254.452 226.962C253.571 226.081 253.571 224.639 254.452 223.758L280.293 197.917C281.174 197.036 282.616 197.036 283.497 197.917L283.702 198.122C284.583 199.004 284.583 200.445 283.702 201.327L257.863 227.167C256.981 228.048 255.539 228.048 254.657 227.167Z" fill="#263238"/>
<path d="M292.121 200.84L273.914 219.046L249.124 194.256L267.33 176.049C269.772 173.607 273.767 173.607 276.209 176.049L292.121 191.961C294.563 194.403 294.563 198.398 292.121 200.84Z" fill="#407BFF"/>
<path opacity="0.7" d="M292.121 200.84L273.914 219.046L249.124 194.256L267.33 176.049C269.772 173.607 273.767 173.607 276.209 176.049L292.121 191.961C294.563 194.403 294.563 198.398 292.121 200.84Z" fill="white"/>
<path opacity="0.2" d="M255.421 187.953L249.12 194.254L273.914 219.048L280.215 212.747C279.971 212.029 279.563 211.37 278.996 210.803L257.365 189.172C256.798 188.605 256.139 188.197 255.421 187.953Z" fill="#407BFF"/>
<path d="M277.098 220.116L276.652 220.562C274.735 222.479 271.6 222.479 269.684 220.562L247.607 198.486C245.691 196.569 245.691 193.434 247.607 191.517L248.053 191.071C249.97 189.155 253.105 189.155 255.022 191.071L277.098 213.147C279.014 215.064 279.014 218.2 277.098 220.116Z" fill="#407BFF"/>
<path d="M316.69 83.6414H121.31C117.254 83.6414 113.935 80.3223 113.935 76.2655V40.6298C113.935 36.5731 117.254 33.2539 121.31 33.2539H316.691C320.748 33.2539 324.067 36.5731 324.067 40.6298V76.2655C324.067 80.3223 320.748 83.6414 316.69 83.6414Z" fill="white"/>
<path d="M316.691 84.2879H121.31C116.886 84.2879 113.287 80.6893 113.287 76.2655V40.6298C113.287 36.206 116.886 32.6074 121.31 32.6074H316.69C321.114 32.6074 324.712 36.206 324.712 40.6298V76.2655C324.713 80.6884 321.114 84.2879 316.691 84.2879ZM121.31 33.9004C117.6 33.9004 114.58 36.9191 114.58 40.6298V76.2655C114.58 79.9754 117.599 82.9949 121.31 82.9949H316.69C320.4 82.9949 323.419 79.9762 323.419 76.2655V40.6298C323.419 36.92 320.401 33.9004 316.69 33.9004H121.31Z" fill="#263238"/>
<g opacity="0.4">
<path d="M131.208 67.2068V48.2476H138.359C139.619 48.2476 140.579 48.308 141.244 48.4289C142.175 48.5839 142.955 48.8792 143.585 49.3145C144.214 49.7499 144.72 50.3596 145.104 51.1445C145.487 51.9294 145.679 52.7914 145.679 53.7313C145.679 55.344 145.166 56.7071 144.14 57.824C143.113 58.9409 141.261 59.4989 138.578 59.4989H133.716V67.2068H131.208ZM133.717 57.2616H138.619C140.24 57.2616 141.391 56.9594 142.072 56.3567C142.752 55.7531 143.093 54.9043 143.093 53.8093C143.093 53.0156 142.893 52.3367 142.491 51.7726C142.091 51.2076 141.562 50.8353 140.907 50.6539C140.485 50.5418 139.705 50.4857 138.566 50.4857H133.716V57.2616H133.717Z" fill="#263238"/>
<path d="M157.538 65.5125C156.676 66.2448 155.846 66.7625 155.049 67.0638C154.252 67.3652 153.395 67.5167 152.481 67.5167C150.972 67.5167 149.813 67.1479 149.003 66.4103C148.191 65.6736 147.787 64.7319 147.787 63.5844C147.787 62.9116 147.939 62.2975 148.245 61.7413C148.551 61.185 148.953 60.7382 149.448 60.4027C149.943 60.0664 150.501 59.8123 151.122 59.6397C151.579 59.5189 152.269 59.4023 153.192 59.2911C155.071 59.0668 156.455 58.7997 157.342 58.4896C157.351 58.1707 157.355 57.9675 157.355 57.8816C157.355 56.9338 157.135 56.2654 156.696 55.8773C156.101 55.3517 155.217 55.0889 154.045 55.0889C152.95 55.0889 152.142 55.2816 151.62 55.6645C151.098 56.0473 150.712 56.727 150.463 57.7012L148.186 57.3911C148.393 56.4169 148.734 55.6303 149.208 55.0311C149.682 54.4319 150.367 53.9703 151.264 53.6479C152.16 53.3247 153.2 53.1626 154.381 53.1626C155.554 53.1626 156.507 53.3001 157.24 53.5761C157.973 53.852 158.511 54.1998 158.857 54.6168C159.202 55.0355 159.443 55.5637 159.581 56.2014C159.658 56.5983 159.698 57.3131 159.698 58.3485V61.4522C159.698 63.6168 159.748 64.9842 159.847 65.5589C159.945 66.1318 160.142 66.681 160.434 67.2075H158.003C157.763 66.724 157.607 66.1589 157.538 65.5125ZM157.344 60.3143C156.499 60.6594 155.232 60.952 153.542 61.1929C152.584 61.3313 151.908 61.4864 151.511 61.6589C151.115 61.8306 150.809 62.0829 150.593 62.4149C150.378 62.7469 150.27 63.1157 150.27 63.5213C150.27 64.1415 150.506 64.6592 150.975 65.0727C151.445 65.4862 152.132 65.6929 153.037 65.6929C153.934 65.6929 154.732 65.4967 155.43 65.1042C156.128 64.7127 156.641 64.1757 156.969 63.4941C157.219 62.9685 157.344 62.1933 157.344 61.1666V60.3143Z" fill="#263238"/>
<path d="M162.88 68.3446L165.143 68.6809C165.237 69.38 165.501 69.8881 165.932 70.2069C166.509 70.6379 167.299 70.8534 168.298 70.8534C169.376 70.8534 170.208 70.6379 170.795 70.2069C171.381 69.7759 171.778 69.1724 171.984 68.3971C172.105 67.9223 172.16 66.9272 172.152 65.41C171.135 66.6083 169.867 67.2075 168.35 67.2075C166.461 67.2075 165 66.5269 163.965 65.1638C162.93 63.8016 162.414 62.1679 162.414 60.2626C162.414 58.9521 162.651 57.7432 163.125 56.6351C163.599 55.5269 164.287 54.6711 165.187 54.0675C166.088 53.4648 167.147 53.1626 168.363 53.1626C169.984 53.1626 171.319 53.8178 172.372 55.1275V53.4718H174.518V65.3443C174.518 67.4817 174.3 68.998 173.865 69.8898C173.43 70.7825 172.74 71.4868 171.796 72.0045C170.853 72.5213 169.691 72.7806 168.31 72.7806C166.672 72.7806 165.349 72.4118 164.34 71.6742C163.332 70.9375 162.845 69.8276 162.88 68.3446ZM164.806 60.0944C164.806 61.8963 165.165 63.2112 165.88 64.0381C166.596 64.866 167.493 65.2803 168.571 65.2803C169.639 65.2803 170.535 64.8677 171.26 64.0451C171.984 63.2226 172.346 61.9305 172.346 60.1715C172.346 58.4904 171.973 57.2229 171.227 56.3696C170.481 55.5155 169.583 55.0889 168.531 55.0889C167.497 55.0889 166.617 55.5085 165.893 56.3504C165.169 57.1904 164.806 58.4379 164.806 60.0944Z" fill="#263238"/>
<path d="M187.438 62.7836L189.844 63.0814C189.463 64.4866 188.762 65.5772 187.736 66.3524C186.709 67.1286 185.4 67.5166 183.804 67.5166C181.796 67.5166 180.203 66.8982 179.026 65.6604C177.849 64.4235 177.261 62.6881 177.261 60.4561C177.261 58.1452 177.856 56.352 179.045 55.0757C180.235 53.8002 181.778 53.1616 183.675 53.1616C185.512 53.1616 187.011 53.7862 188.176 55.0371C189.339 56.2872 189.922 58.0462 189.922 60.3142C189.922 60.4517 189.916 60.6593 189.908 60.9344H179.666C179.752 62.4437 180.179 63.5983 180.946 64.4007C181.713 65.2022 182.671 65.6026 183.817 65.6026C184.671 65.6026 185.4 65.3792 186.002 64.9298C186.606 64.4813 187.084 63.7665 187.438 62.7836ZM179.795 59.0203H187.464C187.36 57.8649 187.068 56.9985 186.584 56.4203C185.842 55.5242 184.882 55.0757 183.7 55.0757C182.631 55.0757 181.733 55.4331 181.004 56.1497C180.275 56.8645 179.872 57.8219 179.795 59.0203Z" fill="#263238"/>
<path d="M200.125 67.2065V53.4717H202.22V55.4243C203.229 53.9159 204.685 53.1616 206.591 53.1616C207.419 53.1616 208.18 53.3105 208.874 53.6075C209.567 53.9053 210.087 54.2952 210.431 54.7778C210.776 55.2614 211.018 55.8343 211.156 56.4983C211.241 56.9293 211.285 57.6844 211.285 58.761V67.2065H208.958V58.8521C208.958 57.9043 208.867 57.1947 208.685 56.7243C208.505 56.2548 208.183 55.8798 207.722 55.5995C207.261 55.3201 206.72 55.1799 206.098 55.1799C205.107 55.1799 204.252 55.4944 203.531 56.1243C202.812 56.7532 202.452 57.9472 202.452 59.7062V67.2074L200.125 67.2065Z" fill="#263238"/>
<path d="M213.988 60.3397C213.988 57.7966 214.695 55.9124 216.109 54.6877C217.29 53.6707 218.73 53.1626 220.428 53.1626C222.316 53.1626 223.859 53.7811 225.058 55.018C226.256 56.2549 226.856 57.964 226.856 60.1461C226.856 61.9138 226.591 63.3032 226.061 64.3167C225.531 65.3302 224.759 66.1169 223.746 66.6766C222.733 67.2373 221.627 67.5176 220.428 67.5176C218.506 67.5176 216.951 66.9009 215.767 65.6684C214.581 64.435 213.988 62.6584 213.988 60.3397ZM216.381 60.3397C216.381 62.0987 216.765 63.4153 217.531 64.2904C218.299 65.1655 219.265 65.6027 220.428 65.6027C221.584 65.6027 222.545 65.1629 223.313 64.2834C224.079 63.4048 224.463 62.0645 224.463 60.2617C224.463 58.564 224.078 57.2772 223.306 56.402C222.534 55.5269 221.576 55.0889 220.428 55.0889C219.265 55.0889 218.299 55.5243 217.531 56.395C216.764 57.2658 216.381 58.5807 216.381 60.3397Z" fill="#263238"/>
<path d="M234.668 65.1242L235.004 67.1811C234.349 67.3186 233.763 67.3878 233.245 67.3878C232.4 67.3878 231.744 67.2538 231.279 66.9866C230.814 66.7194 230.486 66.3682 230.296 65.9328C230.106 65.4974 230.013 64.5811 230.013 63.1848V55.2824H228.305V53.4717H230.013V50.071L232.328 48.6738V53.4717H234.668V55.2824H232.328V63.3135C232.328 63.9775 232.368 64.4042 232.45 64.5934C232.533 64.7835 232.666 64.935 232.852 65.0463C233.037 65.1593 233.302 65.2145 233.647 65.2145C233.905 65.2145 234.244 65.1847 234.668 65.1242Z" fill="#263238"/>
<path d="M244.858 67.2067V55.2826H242.801V53.4719H244.858V52.0108C244.858 51.0883 244.94 50.4033 245.103 49.9548C245.328 49.3503 245.722 48.8615 246.286 48.4866C246.851 48.1108 247.642 47.9233 248.659 47.9233C249.314 47.9233 250.039 48.0013 250.832 48.1564L250.483 50.1869C249.999 50.1002 249.543 50.0582 249.111 50.0582C248.404 50.0582 247.904 50.2088 247.611 50.511C247.318 50.8133 247.172 51.3765 247.172 52.2052V53.4719H249.849V55.2826H247.172V67.2067H244.858Z" fill="#263238"/>
<path d="M250.794 60.3397C250.794 57.7966 251.501 55.9124 252.915 54.6877C254.096 53.6707 255.536 53.1626 257.234 53.1626C259.122 53.1626 260.666 53.7811 261.864 55.018C263.062 56.2549 263.662 57.964 263.662 60.1461C263.662 61.9138 263.397 63.3032 262.867 64.3167C262.337 65.3302 261.565 66.1169 260.552 66.6766C259.539 67.2373 258.433 67.5176 257.234 67.5176C255.312 67.5176 253.757 66.9009 252.573 65.6684C251.387 64.435 250.794 62.6584 250.794 60.3397ZM253.186 60.3397C253.186 62.0987 253.57 63.4153 254.337 64.2904C255.105 65.1655 256.071 65.6027 257.234 65.6027C258.39 65.6027 259.351 65.1629 260.119 64.2834C260.885 63.4048 261.27 62.0645 261.27 60.2617C261.27 58.564 260.884 57.2772 260.113 56.402C259.341 55.5269 258.382 55.0889 257.235 55.0889C256.072 55.0889 255.106 55.5243 254.338 56.395C253.57 57.2658 253.186 58.5807 253.186 60.3397Z" fill="#263238"/>
<path d="M275.39 67.2065V65.1891C274.321 66.7405 272.869 67.5166 271.032 67.5166C270.221 67.5166 269.465 67.3607 268.762 67.0514C268.059 66.7413 267.538 66.3506 267.198 65.8802C266.856 65.4107 266.618 64.836 266.48 64.1536C266.386 63.6972 266.337 62.9728 266.337 61.982V53.4717H268.665V61.0894C268.665 62.3053 268.713 63.1234 268.808 63.5466C268.954 64.1589 269.265 64.6389 269.739 64.9885C270.213 65.338 270.8 65.5132 271.498 65.5132C272.196 65.5132 272.851 65.3345 273.464 64.9762C274.075 64.6188 274.509 64.1317 274.763 63.515C275.017 62.8992 275.145 62.0039 275.145 60.8318V53.4734H277.472V67.2065H275.39Z" fill="#263238"/>
<path d="M281.12 67.2065V53.4717H283.216V55.4243C284.224 53.9159 285.681 53.1616 287.586 53.1616C288.414 53.1616 289.174 53.3105 289.869 53.6075C290.563 53.9053 291.082 54.2952 291.426 54.7778C291.771 55.2614 292.013 55.8343 292.151 56.4983C292.237 56.9293 292.279 57.6844 292.279 58.761V67.2065H289.952V58.8521C289.952 57.9043 289.862 57.1947 289.68 56.7243C289.499 56.2548 289.178 55.8798 288.716 55.5995C288.255 55.3201 287.715 55.1799 287.093 55.1799C286.101 55.1799 285.246 55.4944 284.525 56.1243C283.806 56.7532 283.446 57.9472 283.446 59.7062V67.2074L281.12 67.2065Z" fill="#263238"/>
<path d="M304.76 67.2067V65.4731C303.889 66.8362 302.608 67.5168 300.919 67.5168C299.824 67.5168 298.817 67.2146 297.899 66.6119C296.981 66.0084 296.27 65.1656 295.765 64.0829C295.261 63.0019 295.008 61.758 295.008 60.352C295.008 58.9811 295.237 57.738 295.693 56.6211C296.15 55.5042 296.837 54.6484 297.75 54.0536C298.664 53.4579 299.685 53.1609 300.815 53.1609C301.642 53.1609 302.38 53.3353 303.026 53.6848C303.673 54.0334 304.198 54.489 304.604 55.0496V48.2466H306.919V67.2067H304.76ZM297.402 60.3529C297.402 62.1119 297.772 63.4268 298.514 64.2975C299.256 65.1683 300.131 65.6028 301.139 65.6028C302.156 65.6028 303.02 65.1867 303.732 64.3553C304.444 63.5231 304.799 62.2538 304.799 60.5465C304.799 58.6666 304.438 57.2869 303.713 56.4074C302.99 55.5279 302.096 55.0881 301.036 55.0881C300.001 55.0881 299.137 55.5104 298.443 56.3557C297.748 57.2011 297.402 58.5335 297.402 60.3529Z" fill="#263238"/>
</g>
<path d="M219 109.531C227.972 109.531 235.245 102.258 235.245 93.2865C235.245 84.3149 227.972 77.042 219 77.042C210.029 77.042 202.756 84.3149 202.756 93.2865C202.756 102.258 210.029 109.531 219 109.531Z" fill="#263238"/>
<path d="M219 107.107C226.633 107.107 232.821 100.919 232.821 93.2865C232.821 85.6535 226.633 79.4658 219 79.4658C211.367 79.4658 205.18 85.6535 205.18 93.2865C205.18 100.919 211.367 107.107 219 107.107Z" fill="white"/>
<path d="M228.345 90.3071H221.869L227.308 74.2158L209.656 96.2665H216.133L210.693 112.357L228.345 90.3071Z" fill="#407BFF"/>
<path d="M228.905 105.119L230.836 103.188L209.1 81.4513L207.168 83.3827L228.905 105.119Z" fill="#263238"/>
</svg>
