<svg width="438" height="438" viewBox="0 0 438 438" fill="none" xmlns="http://www.w3.org/2000/svg">
<path d="M249.063 376.605L371.644 375.322C371.644 375.322 439.913 243.917 352.412 225.07C274.281 208.242 241.349 158.402 230.153 106.873C213.527 30.3445 67.064 20.5605 49.9633 153.268C32.8626 285.975 66.6473 376.605 66.6473 376.605H249.063Z" fill="#FDEDEE"/>
<path d="M191.046 241.179L235 237.731L199.255 195.069C199.255 195.069 197.962 194.638 197.1 188.605C196.734 186.046 193.221 161.457 193.221 161.457L191.929 158.873C191.929 158.873 196.67 154.994 201.41 159.734C206.15 164.474 216.061 183.004 216.061 183.004C216.061 183.004 275.53 226.397 284.582 250.218C292.77 271.764 190.206 279.53 190.206 279.53L193.222 241.178" fill="#FFAC9D"/>
<path d="M193.223 241.179L228.673 238.398C233.137 249.36 232.968 262.84 230.188 274.834C208.981 278.091 190.207 279.531 190.207 279.531L193.223 241.179Z" fill="#F19C7C"/>
<path d="M201.41 159.734C201.8 160.124 202.228 160.616 202.68 161.175C203.94 170.731 203.031 180.637 201.481 190.086C201.156 192.071 200.822 194.203 200.4 196.358L199.255 195.07C199.255 195.07 197.962 194.639 197.1 188.606C196.734 186.047 193.221 161.458 193.221 161.458L191.929 158.873C191.929 158.873 196.669 154.994 201.41 159.734Z" fill="#F19C7C"/>
<path d="M191.499 285.852C193.797 285.852 182.306 238.163 182.306 238.163C182.306 238.163 195.809 231.412 223.387 230.838C223.387 230.838 226.691 256.406 220.371 281.687L191.499 285.852Z" fill="#6F96BD"/>
<path opacity="0.5" d="M187.117 259.05C190.102 260.359 193.062 261.736 196.063 263.026C202.259 265.69 208.615 267.707 215.19 269.22C217.635 269.782 220.09 270.274 222.55 270.737C221.998 274.341 221.288 278.015 220.371 281.686L191.498 285.852C192.743 285.852 189.945 271.872 187.117 259.05Z" fill="#5086B2"/>
<path d="M188.453 302.953C189.951 280.86 189.265 258.686 189.063 236.541C175.456 240.392 158.433 253.123 161.765 226.098C165.643 194.64 135.047 201.535 135.047 201.535C135.047 201.535 134.616 240.749 130.738 240.749C126.86 240.749 96.6955 236.871 94.1095 267.035C91.755 294.512 166.626 325.914 188.453 302.953Z" fill="#FFAC9D"/>
<path d="M163.204 240.467C156.74 239.209 150.63 236.842 145.636 232.383C139.822 227.191 137.315 220.297 134.73 213.344C134.99 206.733 135.048 201.534 135.048 201.534C135.048 201.534 165.643 194.638 161.765 226.096C160.837 233.62 161.49 238.057 163.204 240.467Z" fill="#F19C7C"/>
<path d="M182.306 238.162C182.306 238.162 186.328 269.188 161.046 273.785C135.765 278.382 116.805 241.035 116.805 241.035C116.805 241.035 88.6519 245.632 89.8003 274.934C90.9495 304.237 98.4192 364.567 98.4192 364.567L184.029 358.246L186.902 322.623C186.902 322.623 209.885 316.303 201.841 276.658C193.797 237.013 197.819 233.565 197.819 233.565L182.306 238.162Z" fill="#6F96BD"/>
<path opacity="0.5" d="M99.5205 277.97C103.858 284.203 108.997 290.052 114.151 295.615C124.509 306.793 135.983 316.997 148.705 325.425C160.225 333.058 172.046 339.051 185.317 342.269L184.029 358.247L98.4186 364.567C98.4186 364.567 90.9489 304.238 89.7997 274.935C89.6466 271.036 90.0249 267.588 90.7734 264.516C94.0598 268.706 96.4744 273.591 99.5205 277.97Z" fill="#5086B2"/>
<path d="M329.908 371.709H225.737L265.907 283.054H370.078L329.908 371.709Z" fill="#352C38"/>
<path d="M240.166 363.967H167.669V371.709H240.166V363.967Z" fill="#352C38"/>
<path d="M336.947 371.709H232.776L272.945 283.054H377.116L336.947 371.709Z" fill="#765E69"/>
<path d="M80.9238 291.559C80.9238 291.559 71.7857 350.307 78.3129 363.362C86.3276 379.391 184.494 372.5 184.494 372.5C184.494 372.5 229.751 375.111 185.364 368.148C185.364 368.148 237.149 375.111 188.41 365.102C188.41 365.102 235.408 369.454 191.456 361.621C191.456 361.621 229.316 363.797 181.012 356.399C181.012 356.399 210.603 349.872 172.309 352.918C172.309 352.918 136.625 346.826 113.561 342.039C113.561 342.039 120.088 302.003 119.218 295.476C118.348 288.949 80.9238 291.559 80.9238 291.559Z" fill="#FFAC9D"/>
<path d="M114.296 310.052C108.566 311.579 103.126 312.83 97.1496 312.267C90.753 311.664 84.6601 310.035 78.7202 307.904C79.8614 298.388 80.9232 291.558 80.9232 291.558C80.9232 291.558 118.348 288.948 119.218 295.475C119.489 297.503 119.044 302.768 118.304 309.061C116.961 309.356 115.624 309.699 114.296 310.052Z" fill="#F19C7C"/>
<path d="M122.7 304.615L116.805 241.035C116.805 241.035 93.108 240.645 83.5347 264.579C73.9606 288.513 74.8317 302.439 74.8317 302.439C74.8317 302.439 97.0252 312.012 122.7 304.615Z" fill="#6F96BD"/>
<path d="M141.889 140.917C141.889 140.917 165.82 126.786 155.792 108.097C145.764 89.4083 118.643 113.339 130.038 128.154C141.434 142.968 144.625 104.679 123.201 108.097C101.777 111.516 116.363 153.68 141.889 140.917Z" fill="#965450"/>
<path d="M134.824 141.601C134.824 141.601 136.676 141.2 140.046 140.098C141.728 139.543 143.788 138.806 146.151 137.799C148.51 136.789 151.18 135.51 153.991 133.777C156.785 132.037 159.769 129.839 162.314 126.791C163.566 125.262 164.707 123.52 165.489 121.538C166.277 119.564 166.724 117.366 166.669 115.092C166.621 112.817 166.12 110.495 165.252 108.226C164.404 105.973 163.177 103.752 161.427 101.917C159.692 100.073 157.42 98.6602 154.862 97.9462C152.307 97.2193 149.515 97.1737 146.778 97.6729C144.04 98.1842 141.333 99.2236 138.872 100.753C136.43 102.285 134.161 104.329 132.766 106.939C132.081 108.238 131.662 109.694 131.711 111.159C131.725 111.523 131.766 111.887 131.833 112.247C131.9 112.603 132 113.003 132.097 113.349C132.303 114.075 132.579 114.785 132.925 115.456C133.61 116.802 134.619 117.987 135.889 118.811C137.153 119.634 138.674 120.089 140.195 120.048C141.696 120.013 143.268 119.467 144.161 118.324C144.601 117.76 144.823 117.06 144.8 116.34C144.781 115.617 144.529 114.885 144.161 114.205C142.536 111.459 139.986 109.162 137.177 107.39C134.348 105.612 131.148 104.349 127.798 103.752C124.449 103.157 120.944 103.254 117.587 104.113C114.227 104.969 111.032 106.53 108.155 108.585C107.434 109.114 106.726 109.613 106.078 110.218C105.46 110.775 104.893 111.453 104.413 112.152C103.439 113.563 102.901 115.238 102.763 116.957C102.53 120.435 103.874 123.927 105.759 126.969C107.665 130.035 110.171 132.751 112.976 135.1C115.797 137.433 118.946 139.414 122.343 140.819C125.725 142.221 129.402 143.058 133.031 142.775C134.838 142.635 136.62 142.199 138.25 141.431C139.073 141.049 139.832 140.599 140.591 140.059C141.364 139.525 142.086 138.978 142.812 138.386C145.696 136.042 148.261 133.294 150.504 130.315C152.747 127.335 154.672 124.108 156.17 120.703C157.656 117.302 158.735 113.694 158.983 110.035C159.24 106.409 158.55 102.629 156.318 99.8262C154.138 96.9861 150.617 95.4483 147.108 94.8032C143.542 94.1228 139.869 94.6293 136.608 96.1086C133.334 97.572 130.51 99.9184 128.152 102.598C125.802 105.3 123.891 108.362 122.44 111.595C120.989 114.825 119.973 118.24 119.592 121.69C119.406 123.411 119.382 125.146 119.622 126.825C119.854 128.5 120.349 130.137 121.24 131.508C122.108 132.882 123.423 133.947 124.902 134.496C126.423 135.089 128.056 135.081 129.558 134.533C131.06 133.994 132.393 133.005 133.538 131.853C134.679 130.688 135.641 129.351 136.463 127.944C138.088 125.112 139.182 122.009 139.758 118.87C140.336 115.732 140.401 112.526 139.779 109.504C139.154 106.495 137.764 103.666 135.572 101.665C133.413 99.6259 130.569 98.5216 127.728 98.0712C126.287 97.8484 124.883 97.7571 123.432 97.8124C122.045 97.8709 120.642 98.1345 119.342 98.5769C116.721 99.4576 114.483 101.157 112.852 103.247C111.212 105.338 110.114 107.761 109.439 110.215C108.081 115.145 108.264 120.165 109.312 124.597C110.382 129.039 112.379 132.964 114.998 135.933C116.303 137.42 117.749 138.675 119.263 139.676C120.78 140.673 122.362 141.412 123.92 141.937C125.478 142.47 127.021 142.758 128.478 142.917C129.206 143.017 129.919 143.022 130.605 143.062C131.293 143.046 131.959 143.074 132.598 143.017C135.16 142.866 137.307 142.407 139.02 141.964C140.73 141.501 142.015 141.055 142.87 140.73C143.726 140.403 144.168 140.234 144.168 140.234C144.168 140.234 143.728 140.407 142.876 140.744C142.024 141.079 140.743 141.541 139.036 142.023C137.326 142.486 135.179 142.972 132.606 143.152C131.965 143.217 131.294 143.197 130.603 143.22C129.911 143.188 129.194 143.191 128.459 143.099C126.989 142.954 125.428 142.682 123.846 142.16C122.265 141.646 120.653 140.916 119.102 139.922C117.555 138.924 116.072 137.666 114.728 136.171C112.033 133.184 109.96 129.219 108.82 124.716C107.705 120.22 107.454 115.118 108.79 110.036C109.458 107.507 110.581 104.994 112.278 102.796C113.966 100.602 116.321 98.7852 119.087 97.8372C120.469 97.3604 121.909 97.0751 123.414 97.003C124.855 96.9373 126.383 97.0206 127.857 97.2442C130.814 97.693 133.844 98.8373 136.175 101.009C138.537 103.14 140.033 106.155 140.704 109.305C141.376 112.473 141.325 115.797 140.747 119.047C140.169 122.299 139.063 125.509 137.386 128.475C136.536 129.95 135.535 131.364 134.32 132.62C133.101 133.861 131.654 134.964 129.937 135.595C128.24 136.241 126.222 136.258 124.523 135.588C122.762 134.943 121.258 133.706 120.257 132.14C119.243 130.58 118.707 128.783 118.453 126.988C118.193 125.186 118.218 123.361 118.407 121.561C118.799 117.958 119.844 114.434 121.333 111.098C122.824 107.76 124.786 104.597 127.222 101.786C129.666 98.9984 132.612 96.5286 136.091 94.9635C139.54 93.3783 143.548 92.827 147.311 93.541C149.213 93.8976 151.061 94.4434 152.798 95.3425C154.531 96.2216 156.121 97.463 157.339 99.0217C158.564 100.573 159.412 102.411 159.861 104.316C160.313 106.224 160.434 108.189 160.303 110.12C160.047 113.991 158.929 117.729 157.404 121.242C155.863 124.756 153.901 128.077 151.591 131.135C149.281 134.191 146.641 137.009 143.654 139.427C142.916 140.028 142.13 140.619 141.348 141.157C140.568 141.71 139.698 142.227 138.807 142.635C137.02 143.472 135.076 143.942 133.131 144.087C129.221 144.382 125.362 143.478 121.845 142.013C118.312 140.544 115.068 138.491 112.161 136.076C109.268 133.644 106.684 130.837 104.697 127.626C103.703 126.025 102.865 124.315 102.288 122.508C101.699 120.708 101.409 118.785 101.539 116.867C101.693 114.955 102.311 113.053 103.405 111.475C103.952 110.685 104.554 109.963 105.28 109.311C105.956 108.682 106.725 108.139 107.456 107.605C110.439 105.484 113.775 103.857 117.296 102.968C120.815 102.075 124.496 101.98 127.998 102.611C131.507 103.238 134.829 104.59 137.766 106.455C140.688 108.337 143.31 110.687 145.077 113.708C145.494 114.492 145.806 115.374 145.827 116.315C145.855 117.251 145.541 118.216 144.959 118.946C143.77 120.423 141.92 120.993 140.215 121.032C138.483 121.069 136.778 120.543 135.364 119.611C133.945 118.679 132.835 117.348 132.099 115.879C131.726 115.145 131.435 114.379 131.218 113.596C131.107 113.186 131.02 112.827 130.943 112.417C130.868 112.009 130.825 111.598 130.813 111.186C130.769 109.532 131.25 107.929 131.996 106.535C133.518 103.737 135.902 101.64 138.441 100.063C141.002 98.4935 143.801 97.4381 146.641 96.926C149.479 96.426 152.384 96.4877 155.056 97.265C157.731 98.0255 160.112 99.5329 161.895 101.478C163.7 103.414 164.933 105.712 165.78 108.038C166.636 110.35 167.131 112.75 167.153 115.087C167.184 117.426 166.699 119.684 165.87 121.695C165.046 123.716 163.864 125.478 162.576 127.014C159.962 130.077 156.932 132.253 154.107 133.972C151.264 135.682 148.574 136.934 146.199 137.921C143.822 138.905 141.752 139.62 140.062 140.157C136.68 141.221 134.824 141.601 134.824 141.601Z" fill="#965450"/>
<path d="M172.538 103.187C172.538 103.187 172.833 103.949 173.163 105.341C173.328 106.036 173.494 106.888 173.646 107.875C173.778 108.862 173.922 109.983 173.934 111.215C173.961 112.445 173.934 113.784 173.752 115.19C173.69 115.896 173.534 116.609 173.411 117.344C173.231 118.067 173.068 118.813 172.803 119.544C172.336 121.024 171.66 122.494 170.815 123.891C170.004 125.314 168.918 126.587 167.786 127.798C166.579 128.935 165.303 130.009 163.911 130.854C163.568 131.071 163.225 131.287 162.884 131.503C162.527 131.69 162.173 131.876 161.821 132.062C161.466 132.243 161.122 132.439 160.767 132.605C160.406 132.76 160.049 132.914 159.694 133.066C159.339 133.218 158.988 133.369 158.639 133.518C158.284 133.649 157.927 133.764 157.575 133.88C156.867 134.101 156.191 134.37 155.502 134.521C154.819 134.696 154.155 134.865 153.513 135.029C152.868 135.175 152.236 135.277 151.634 135.396C150.434 135.655 149.313 135.762 148.325 135.877C147.831 135.931 147.37 135.994 146.941 136.03C146.512 136.057 146.118 136.081 145.761 136.103C144.337 136.18 143.523 136.224 143.523 136.224C143.523 136.224 144.331 136.119 145.744 135.937C146.097 135.893 146.488 135.846 146.913 135.795C147.337 135.733 147.792 135.643 148.28 135.559C149.255 135.384 150.357 135.211 151.537 134.92C152.129 134.781 152.75 134.658 153.382 134.491C154.009 134.307 154.657 134.115 155.324 133.919C155.997 133.745 156.652 133.456 157.337 133.214C157.678 133.089 158.023 132.963 158.371 132.834C158.71 132.685 159.052 132.532 159.396 132.379C159.741 132.226 160.089 132.072 160.439 131.918C160.784 131.752 161.116 131.556 161.458 131.376C161.799 131.192 162.142 131.007 162.486 130.821C162.814 130.608 163.143 130.394 163.474 130.18C164.815 129.345 166.027 128.291 167.178 127.189C168.277 126.039 169.337 124.831 170.132 123.472C170.96 122.139 171.629 120.731 172.097 119.306C172.587 117.889 172.929 116.469 173.134 115.103C173.361 113.739 173.434 112.427 173.452 111.217C173.474 110.005 173.401 108.895 173.329 107.91C173.238 106.927 173.123 106.071 173 105.372C172.76 103.973 172.538 103.187 172.538 103.187Z" fill="#965450"/>
<path d="M95.833 151.451C96.3026 150.854 96.8187 150.289 97.3733 149.768C97.6417 149.496 97.9278 149.244 98.2219 149.002C98.5176 148.762 98.7933 148.494 99.1059 148.275C99.7189 147.822 100.322 147.351 100.979 146.959L101.948 146.343L102.96 145.802C103.299 145.625 103.63 145.431 103.979 145.273L105.036 144.823L106.095 144.375L107.187 144.017C107.916 143.781 108.639 143.518 109.393 143.373C110.142 143.21 110.884 143.003 111.64 142.877L113.921 142.565C114.68 142.428 115.452 142.47 116.217 142.422C116.983 142.411 117.752 142.324 118.517 142.399L120.815 142.526C121.584 142.538 122.337 142.689 123.097 142.789L125.372 143.119C126.124 143.263 126.865 143.458 127.612 143.624L129.849 144.146L133.941 145.1L129.725 144.979C128.058 144.932 126.432 144.743 124.8 144.514C123.171 144.28 121.553 143.979 119.951 143.605C119.151 143.416 118.353 143.217 117.562 142.989C116.768 142.771 115.983 142.521 115.203 142.258C114.421 141.999 113.653 141.703 112.885 141.404C112.124 141.086 111.369 140.758 110.631 140.387C109.885 140.037 109.166 139.629 108.451 139.222L107.392 138.582L106.367 137.888C106.019 137.666 105.704 137.398 105.373 137.152C105.041 136.907 104.718 136.651 104.412 136.373C103.774 135.849 103.192 135.263 102.608 134.682C102.064 134.061 101.505 133.454 101.034 132.777C100.523 132.131 100.114 131.412 99.6829 130.714C99.3062 129.983 98.9127 129.263 98.6258 128.493C98.2884 127.744 98.0977 126.943 97.8453 126.168C98.141 126.931 98.3734 127.714 98.75 128.44C99.065 129.191 99.4849 129.89 99.8856 130.595C100.34 131.268 100.77 131.958 101.3 132.572C101.789 133.219 102.365 133.791 102.919 134.38C103.506 134.936 104.09 135.495 104.728 135.993C105.034 136.256 105.357 136.5 105.689 136.732C106.02 136.964 106.334 137.22 106.681 137.429L107.702 138.083L108.756 138.685C109.469 139.067 110.183 139.449 110.924 139.774C111.654 140.123 112.41 140.414 113.157 140.726C113.914 141.013 114.671 141.297 115.442 141.545C116.211 141.798 116.986 142.038 117.769 142.245C118.55 142.463 119.338 142.652 120.129 142.832C121.71 143.187 123.309 143.471 124.916 143.688C126.52 143.906 128.146 144.059 129.744 144.13L129.62 144.963L127.423 144.433C126.689 144.262 125.96 144.063 125.222 143.916L122.989 143.575C122.243 143.47 121.502 143.313 120.749 143.296L118.495 143.154C117.744 143.073 116.993 143.154 116.241 143.158L115.113 143.189C114.737 143.187 114.361 143.207 113.989 143.261L111.746 143.511C111.002 143.616 110.271 143.801 109.531 143.942C108.786 144.065 108.072 144.306 107.35 144.52L106.268 144.845L105.217 145.26L104.166 145.677C103.82 145.825 103.487 146.004 103.146 146.163L102.126 146.656L101.147 147.223C100.482 147.584 99.8672 148.025 99.2413 148.45C98.9223 148.655 98.6395 148.908 98.3365 149.135C98.0336 149.362 97.7419 149.603 97.4614 149.858C96.878 150.348 96.3355 150.88 95.833 151.451Z" fill="#965450"/>
<path d="M153.58 135.572C153.58 135.572 149.93 129.664 139.677 132.444C129.424 135.225 124.037 143.914 125.601 148.606C127.165 153.298 153.58 135.572 153.58 135.572Z" fill="#FFA65B"/>
<path d="M114.507 165.24C114.507 165.24 105.313 196.554 138.639 213.791L132.031 166.389L114.507 165.24Z" fill="#965450"/>
<path d="M169.861 144.412C169.861 144.412 206.842 146.649 197.531 201.294C189.307 249.558 135.909 241.801 132.918 200.863C129.864 159.041 144.673 143.551 169.861 144.412Z" fill="#FFAC9D"/>
<path d="M194.084 160.643C194.084 160.643 180.951 128.28 147.544 135.65C108.474 144.269 111.921 181.902 115.081 186.211C118.241 190.52 135.478 182.189 135.478 182.189C135.478 182.189 139.5 194.543 133.754 201.725C133.754 201.725 148.693 194.83 138.638 176.731C138.638 176.731 148.118 186.498 143.809 195.692C143.809 195.692 153.576 183.626 140.075 172.709C140.075 172.709 147.831 170.985 148.118 158.057C148.118 158.057 174.836 149.439 194.084 160.643Z" fill="#965450"/>
<path d="M192.015 159.32C192.015 159.32 192.74 158.772 194.047 157.94C195.36 157.11 197.272 155.978 199.688 154.857C200.901 154.312 202.226 153.737 203.669 153.238C205.103 152.715 206.655 152.27 208.278 151.893C209.905 151.525 211.615 151.268 213.366 151.14C215.116 151.056 216.909 151.041 218.678 151.31C219.568 151.393 220.434 151.631 221.303 151.81C221.737 151.906 222.154 152.064 222.578 152.188C222.997 152.331 223.429 152.426 223.828 152.613C224.635 152.96 225.458 153.249 226.201 153.685C226.58 153.887 226.955 154.087 227.33 154.286C227.691 154.505 228.036 154.747 228.385 154.973C228.73 155.207 229.083 155.421 229.41 155.664C229.728 155.921 230.043 156.174 230.355 156.425C230.663 156.68 230.982 156.914 231.27 157.178C231.551 157.45 231.827 157.718 232.1 157.983C232.373 158.247 232.642 158.508 232.907 158.765C233.161 159.031 233.389 159.315 233.625 159.582C234.081 160.131 234.567 160.625 234.951 161.164C235.727 162.236 236.468 163.196 236.99 164.135C237.543 165.053 238.048 165.839 238.374 166.537C239.075 167.905 239.475 168.686 239.475 168.686C239.475 168.686 239.043 167.922 238.289 166.586C237.936 165.904 237.4 165.14 236.812 164.249C236.255 163.338 235.479 162.416 234.688 161.373C234.294 160.849 233.8 160.375 233.335 159.845C233.095 159.588 232.862 159.314 232.604 159.058C232.337 158.812 232.065 158.563 231.789 158.31C231.514 158.057 231.235 157.801 230.953 157.541C230.663 157.29 230.344 157.069 230.035 156.827C229.723 156.59 229.408 156.35 229.091 156.107C228.765 155.877 228.413 155.679 228.071 155.46C227.724 155.248 227.383 155.022 227.025 154.818C226.656 154.635 226.285 154.45 225.91 154.264C225.179 153.86 224.369 153.602 223.582 153.287C223.191 153.117 222.768 153.037 222.36 152.91C221.947 152.802 221.541 152.659 221.119 152.578C220.273 152.429 219.434 152.222 218.571 152.164C216.862 151.927 215.127 151.967 213.434 152.07C211.74 152.218 210.084 152.489 208.507 152.868C206.932 153.257 205.427 153.711 204.034 154.24C202.633 154.745 201.346 155.325 200.168 155.874C199 156.448 197.934 156.985 197.016 157.509C196.091 158.022 195.306 158.504 194.665 158.909C193.381 159.729 192.706 160.241 192.706 160.241L192.015 159.32Z" fill="#965450"/>
<path d="M191.497 159.214C191.497 159.214 191.594 158.945 191.775 158.439C191.961 157.943 192.24 157.22 192.626 156.315C193.401 154.508 194.581 151.953 196.359 149.079C197.253 147.646 198.305 146.139 199.564 144.655C200.817 143.168 202.308 141.718 204.076 140.494C205.845 139.292 207.943 138.331 210.216 138.072C212.421 137.813 214.735 137.904 216.946 138.364C219.16 138.834 221.32 139.744 223.045 141.214C223.893 141.956 224.637 142.845 225.063 143.909C225.267 144.441 225.382 145.022 225.326 145.606C225.275 146.188 225.025 146.761 224.627 147.18C224.228 147.602 223.735 147.879 223.211 148.044C222.692 148.219 222.004 148.168 221.552 147.815C221.085 147.473 220.827 146.97 220.673 146.482C220.519 145.987 220.457 145.483 220.471 144.991C220.505 143.011 221.435 141.266 222.637 140.093C223.241 139.503 223.915 139.036 224.609 138.71C224.944 138.521 225.306 138.418 225.639 138.277C225.987 138.18 226.321 138.068 226.654 138.002C227.985 137.72 229.179 137.704 230.145 137.782C231.113 137.848 231.867 137.97 232.374 138.079C232.883 138.18 233.154 138.235 233.154 138.235C233.154 138.235 232.882 138.187 232.37 138.098C231.861 138.003 231.105 137.898 230.14 137.857C229.178 137.802 227.992 137.849 226.689 138.157C225.397 138.466 223.965 139.11 222.826 140.284C221.696 141.438 220.854 143.139 220.871 144.991C220.868 145.449 220.94 145.912 221.086 146.346C221.231 146.776 221.47 147.188 221.824 147.429C222.525 147.943 223.599 147.473 224.222 146.812C224.863 146.117 224.874 145.05 224.483 144.143C224.09 143.224 223.394 142.42 222.59 141.753C220.955 140.426 218.891 139.606 216.775 139.213C214.641 138.833 212.47 138.802 210.356 139.106C208.29 139.397 206.393 140.325 204.773 141.489C203.157 142.674 201.781 144.08 200.623 145.532C199.459 146.982 198.485 148.459 197.659 149.865C196.016 152.688 194.933 155.204 194.23 156.974C193.88 157.861 193.628 158.565 193.464 159.044C193.308 159.52 193.224 159.774 193.224 159.774L191.497 159.214Z" fill="#965450"/>
<path d="M218.216 106.06C218.216 106.06 218.831 106.962 219.683 108.67C220.105 109.525 220.582 110.583 221.02 111.841C221.459 113.096 221.862 114.557 222.021 116.199C222.18 117.828 222.077 119.689 221.277 121.445C220.87 122.311 220.317 123.148 219.594 123.856C218.861 124.543 218.033 125.181 217.095 125.638C216.644 125.906 216.142 126.067 215.661 126.289C215.169 126.464 214.648 126.629 214.16 126.791C213.147 127.099 212.161 127.436 211.19 127.85C209.236 128.668 207.344 129.712 205.577 130.933C202.055 133.396 199.066 136.586 196.97 139.985C194.864 143.383 193.632 146.949 193.211 150.064C192.989 151.622 192.951 153.065 193.021 154.334C193.065 155.607 193.271 156.702 193.449 157.597C193.63 158.496 193.937 159.147 193.852 159.697C193.788 160.241 193.51 160.643 193.51 160.643C193.51 160.643 193.054 160.53 192.653 160.11C192.204 159.706 192.104 158.914 191.834 157.964C191.625 156.996 191.381 155.81 191.317 154.429C191.249 153.051 191.281 151.486 191.545 149.812C191.823 148.141 192.303 146.367 193.017 144.577C193.722 142.785 194.684 140.988 195.859 139.264C198.213 135.821 201.39 132.625 205.096 130.22C206.941 129.011 208.908 127.99 210.928 127.201C212.952 126.342 215.074 126.073 216.85 125.153C217.761 124.737 218.556 124.152 219.268 123.518C219.968 122.865 220.509 122.088 220.916 121.274C221.719 119.625 221.871 117.822 221.753 116.22C221.637 114.604 221.275 113.146 220.87 111.889C220.465 110.629 220.016 109.562 219.616 108.699C218.808 106.978 218.216 106.06 218.216 106.06Z" fill="#965450"/>
<path d="M136.206 172.915C136.206 172.915 136.314 172.877 136.519 172.808C136.761 172.723 137.051 172.662 137.442 172.586C137.83 172.527 138.301 172.476 138.84 172.489C139.109 172.473 139.393 172.527 139.691 172.557C139.84 172.574 139.993 172.592 140.148 172.611C140.3 172.65 140.456 172.69 140.614 172.73C141.26 172.858 141.898 173.162 142.562 173.471C143.178 173.865 143.841 174.255 144.389 174.812C145.004 175.3 145.464 175.949 145.981 176.56C146.465 177.193 146.844 177.904 147.279 178.574C147.625 179.288 147.97 180.002 148.311 180.706C148.605 181.426 148.847 182.151 149.105 182.841C149.382 183.525 149.539 184.221 149.72 184.869C149.895 185.518 150.061 186.131 150.215 186.698C150.681 188.993 150.992 190.523 150.992 190.523C150.992 190.523 150.892 190.146 150.719 189.486C150.541 188.827 150.308 187.882 149.991 186.76C149.797 186.21 149.588 185.614 149.366 184.983C149.139 184.356 148.935 183.682 148.612 183.03C148.309 182.371 148.02 181.68 147.683 181.003C147.305 180.35 146.921 179.687 146.537 179.024C146.064 178.429 145.646 177.788 145.146 177.247C144.619 176.734 144.149 176.177 143.569 175.806C143.043 175.356 142.446 175.091 141.91 174.803C141.337 174.607 140.806 174.402 140.287 174.354C140.161 174.333 140.037 174.312 139.915 174.292C139.791 174.291 139.672 174.289 139.554 174.289C139.321 174.293 139.101 174.267 138.895 174.308C138.483 174.342 138.136 174.422 137.854 174.495C137.584 174.58 137.353 174.657 137.257 174.709C137.156 174.749 137.042 174.81 137.048 174.806L136.206 172.915Z" fill="#965450"/>
<path d="M149.268 174.72C149.539 173.791 149.736 172.846 149.906 171.899C150.071 170.952 150.183 169.997 150.234 169.042C150.284 168.088 150.301 167.135 150.228 166.19C150.2 165.717 150.138 165.247 150.067 164.781C149.994 164.315 149.89 163.857 149.777 163.402C149.646 162.953 149.514 162.505 149.337 162.075C149.174 161.641 148.969 161.223 148.754 160.816C148.544 160.404 148.287 160.023 148.029 159.643C147.744 159.283 147.47 158.915 147.138 158.596C146.834 158.253 146.467 157.972 146.123 157.671C145.746 157.409 145.392 157.115 144.985 156.894C144.599 156.643 144.18 156.445 143.763 156.245C143.349 156.039 142.901 155.899 142.473 155.722L142.828 154.639C143.388 154.823 143.893 155.026 144.406 155.252C144.914 155.482 145.414 155.725 145.899 155.994C146.397 156.242 146.86 156.551 147.337 156.835C147.812 157.123 148.253 157.465 148.711 157.777C149.163 158.101 149.575 158.479 150.005 158.83C150.433 159.185 150.804 159.606 151.205 159.991C151.617 160.366 151.938 160.83 152.301 161.251C152.473 161.469 152.664 161.674 152.82 161.904L153.269 162.61C153.562 163.083 153.887 163.536 154.102 164.054C154.335 164.559 154.591 165.052 154.801 165.564L155.312 167.147C155.514 167.664 155.549 168.226 155.663 168.764C155.738 169.309 155.886 169.845 155.866 170.399L155.904 172.044C155.95 172.59 155.829 173.133 155.788 173.675L155.587 175.293L155.604 173.666C155.6 173.126 155.675 172.587 155.583 172.052L155.411 170.45C155.391 169.912 155.189 169.403 155.086 168.882C154.949 168.368 154.892 167.832 154.669 167.344L154.104 165.857C153.878 165.378 153.607 164.921 153.363 164.454C153.138 163.974 152.804 163.559 152.504 163.127L152.048 162.482C151.889 162.272 151.706 162.08 151.536 161.879C151.18 161.489 150.871 161.06 150.469 160.714C150.078 160.36 149.72 159.972 149.303 159.645C148.884 159.323 148.485 158.977 148.055 158.67C147.615 158.378 147.195 158.055 146.74 157.785C146.282 157.52 145.84 157.228 145.364 156.998C144.899 156.744 144.422 156.518 143.939 156.304C143.462 156.093 142.961 155.886 142.492 155.728L142.847 154.646C143.31 154.84 143.787 154.997 144.237 155.223C144.69 155.444 145.142 155.666 145.567 155.945C146.008 156.192 146.403 156.515 146.811 156.815C147.186 157.157 147.581 157.48 147.911 157.869C148.267 158.232 148.562 158.648 148.864 159.054C149.14 159.48 149.41 159.908 149.629 160.365C149.858 160.814 150.048 161.284 150.203 161.76C150.369 162.235 150.486 162.721 150.601 163.206C150.697 163.695 150.781 164.184 150.833 164.677C150.883 165.169 150.922 165.663 150.927 166.156C150.944 166.649 150.928 167.141 150.903 167.63C150.878 168.12 150.834 168.609 150.765 169.093C150.481 171.027 150.019 172.932 149.268 174.72Z" fill="#965450"/>
<path d="M135.75 210.918C133.562 209.984 131.472 208.831 129.453 207.57C127.438 206.304 125.503 204.905 123.675 203.375C120.025 200.317 116.792 196.71 114.367 192.578C111.947 188.451 110.397 183.802 109.912 179.029C109.663 176.645 109.665 174.235 109.893 171.85C110.132 169.459 110.528 167.107 111.217 164.789C111.886 162.482 112.814 160.247 113.996 158.15C115.178 156.055 116.596 154.093 118.216 152.317C121.449 148.748 125.422 145.916 129.675 143.719C133.935 141.516 138.485 139.93 143.122 138.773C145.443 138.198 147.791 137.734 150.154 137.377C152.522 137.026 154.889 136.757 157.302 136.664L157.333 137.509C154.989 137.656 152.628 137.915 150.288 138.234C147.945 138.558 145.612 138.947 143.297 139.424C138.67 140.377 134.093 141.63 129.727 143.41C127.547 144.302 125.422 145.331 123.417 146.553C121.411 147.77 119.534 149.206 117.923 150.892C116.336 152.582 115.115 154.615 114.189 156.761C113.261 158.911 112.612 161.183 112.183 163.493C111.324 168.12 111.34 172.901 112.023 177.565C112.716 182.232 114.116 186.799 116.179 191.049C117.212 193.172 118.4 195.222 119.756 197.16C121.115 199.094 122.622 200.928 124.287 202.611C127.6 205.997 131.51 208.788 135.75 210.918ZM135.75 210.918C131.478 208.854 127.514 206.118 124.132 202.766C120.743 199.425 117.918 195.508 115.791 191.239C113.672 186.966 112.216 182.364 111.475 177.648C110.743 172.934 110.683 168.091 111.516 163.371C111.933 161.014 112.573 158.686 113.525 156.475C114.472 154.267 115.722 152.162 117.384 150.382C119.049 148.628 120.973 147.154 123.02 145.904C125.065 144.65 127.223 143.6 129.432 142.688C133.855 140.873 138.472 139.599 143.135 138.625C145.467 138.139 147.817 137.741 150.176 137.41C152.537 137.083 154.897 136.813 157.29 136.664L157.322 137.509C154.981 137.593 152.614 137.854 150.277 138.195C147.937 138.543 145.613 138.996 143.316 139.558C138.727 140.691 134.229 142.248 130.029 144.406C125.836 146.558 121.933 149.329 118.761 152.811C117.173 154.546 115.783 156.459 114.622 158.503C113.467 160.55 112.533 162.722 111.863 164.98C111.178 167.217 110.758 169.573 110.506 171.91C110.26 174.256 110.239 176.627 110.463 178.974C110.901 183.673 112.385 188.264 114.741 192.363C117.083 196.474 120.228 200.111 123.817 203.21C125.614 204.76 127.521 206.184 129.513 207.478C131.507 208.766 133.577 209.951 135.75 210.918Z" fill="#965450"/>
<path d="M144.672 137.087C144.672 137.087 145.555 136.709 147.154 136.19C148.754 135.684 151.068 135.012 153.912 134.502C156.753 134.013 160.124 133.607 163.752 133.735C165.563 133.812 167.434 133.989 169.312 134.342C171.182 134.711 173.075 135.191 174.878 135.926C176.701 136.616 178.4 137.591 180.006 138.632C181.561 139.747 183.036 140.94 184.258 142.294C184.567 142.628 184.874 142.96 185.179 143.288C185.467 143.628 185.724 143.991 185.99 144.339C186.252 144.689 186.512 145.036 186.769 145.378C187.006 145.733 187.218 146.098 187.439 146.451C188.36 147.841 189.006 149.28 189.637 150.58C190.162 151.928 190.706 153.14 190.997 154.28C191.327 155.406 191.656 156.372 191.807 157.201C192.159 158.843 192.361 159.781 192.361 159.781C192.361 159.781 192.1 158.859 191.645 157.245C191.453 156.429 191.076 155.482 190.694 154.383C190.346 153.271 189.745 152.098 189.196 150.782C188.533 149.519 187.856 148.124 186.912 146.791C186.684 146.453 186.466 146.102 186.224 145.763C185.963 145.436 185.699 145.107 185.433 144.774C185.161 144.444 184.905 144.096 184.622 143.765C184.324 143.45 184.021 143.131 183.717 142.809C182.517 141.503 181.074 140.364 179.557 139.297C177.99 138.305 176.336 137.378 174.562 136.725C172.82 135.993 170.984 135.507 169.161 135.128C167.331 134.765 165.499 134.572 163.722 134.479C161.942 134.42 160.217 134.402 158.583 134.512C156.947 134.593 155.408 134.782 153.99 134.977C152.577 135.2 151.28 135.413 150.141 135.658C148.999 135.891 148.012 136.136 147.202 136.348C145.581 136.779 144.672 137.087 144.672 137.087Z" fill="#965450"/>
<path d="M135.33 180.649C135.33 180.649 133.383 165.305 123.074 171.419C112.765 177.532 126.493 202.632 134.911 194.435C138.726 190.718 135.33 180.649 135.33 180.649Z" fill="#FFAC9D"/>
<path d="M177.709 184.775C177.669 185.663 177.654 186.539 177.646 187.412C177.648 188.285 177.641 189.152 177.685 190.016C177.704 190.878 177.758 191.738 177.837 192.59C177.874 193.016 177.896 193.443 177.965 193.865L178.132 195.13L178.35 196.383C178.416 196.802 178.548 197.203 178.635 197.616L178.771 198.234L178.956 198.836C179.086 199.234 179.186 199.647 179.342 200.035L179.795 201.208C179.934 201.606 180.16 201.959 180.337 202.339C180.52 202.717 180.691 203.104 180.932 203.448C181.152 203.805 181.382 204.158 181.597 204.525L182.011 205.231L181.356 205.417C179.777 205.867 178.188 206.291 176.56 206.608C177.996 205.777 179.471 205.052 180.957 204.352L180.716 205.244C180.42 204.9 180.138 204.541 179.847 204.186C179.542 203.839 179.295 203.456 179.06 203.063C178.835 202.666 178.56 202.29 178.376 201.871L177.796 200.626C177.616 200.205 177.496 199.764 177.343 199.334L177.126 198.684L176.962 198.022C176.865 197.578 176.746 197.138 176.682 196.689L176.484 195.346C176.424 194.898 176.411 194.446 176.381 193.996C176.343 193.547 176.352 193.096 176.347 192.647C176.335 192.199 176.353 191.75 176.389 191.303C176.419 190.855 176.44 190.409 176.496 189.965C176.609 189.078 176.733 188.195 176.943 187.328C177.131 186.461 177.384 185.602 177.709 184.775Z" fill="#FC6A5A"/>
<path d="M172.538 170.698C172.538 170.698 172.694 171.102 172.727 171.862C172.737 172.238 172.742 172.712 172.63 173.24C172.546 173.776 172.363 174.373 172.065 174.989C171.93 175.305 171.724 175.596 171.539 175.923C171.332 176.232 171.076 176.519 170.827 176.833C170.547 177.108 170.253 177.395 169.938 177.666C169.61 177.912 169.267 178.168 168.907 178.4C168.538 178.61 168.156 178.816 167.766 179.019C167.367 179.184 166.96 179.348 166.545 179.503C166.13 179.653 165.706 179.753 165.279 179.867C165.057 179.92 164.87 179.98 164.617 180.027L164.012 180.142C163.228 180.286 162.329 180.409 161.489 180.472C160.649 180.539 159.81 180.554 159.011 180.518C158.211 180.494 157.447 180.404 156.795 180.357C156.136 180.307 155.6 180.303 155.09 180.413C154.84 180.485 154.591 180.552 154.356 180.66C154.113 180.744 153.886 180.857 153.673 180.972C153.241 181.183 152.874 181.427 152.554 181.596C151.943 181.983 151.566 182.19 151.566 182.19C151.566 182.19 151.781 181.826 152.207 181.217C152.445 180.933 152.69 180.547 153.079 180.181C153.439 179.792 153.909 179.376 154.546 179.032C155.187 178.688 155.989 178.488 156.74 178.411C157.5 178.325 158.226 178.292 158.967 178.226C159.71 178.17 160.46 178.075 161.229 177.977C161.996 177.862 162.728 177.763 163.558 177.597L164.165 177.494C164.317 177.469 164.524 177.411 164.701 177.371C165.064 177.274 165.445 177.226 165.795 177.114C166.143 176.998 166.492 176.893 166.84 176.792C167.166 176.655 167.488 176.517 167.814 176.393C168.124 176.248 168.408 176.073 168.71 175.93C168.99 175.763 169.244 175.571 169.516 175.406C169.757 175.205 169.991 175.01 170.217 174.821C170.418 174.608 170.65 174.421 170.817 174.199C171.166 173.768 171.482 173.341 171.7 172.922C171.931 172.509 172.098 172.118 172.222 171.787C172.466 171.122 172.538 170.698 172.538 170.698Z" fill="#76413B"/>
<path d="M197.532 186.786C197.532 186.786 197.193 186.804 196.615 186.787C196.327 186.776 195.974 186.77 195.579 186.733C195.183 186.725 194.729 186.612 194.234 186.501C193.747 186.376 193.169 186.294 192.643 186.065C192.106 185.852 191.518 185.651 190.953 185.359C190.4 185.048 189.805 184.749 189.257 184.36C188.722 183.954 188.145 183.576 187.658 183.095C187.163 182.622 186.662 182.155 186.25 181.619C185.801 181.118 185.436 180.563 185.09 180.028C184.743 179.494 184.474 178.935 184.219 178.415C183.991 177.878 183.784 177.372 183.648 176.882C183.482 176.406 183.392 175.948 183.312 175.547C183.231 175.147 183.198 174.788 183.174 174.496C183.127 173.909 183.168 173.57 183.168 173.57C183.168 173.57 183.347 173.848 183.662 174.332C183.98 174.806 184.424 175.469 184.979 176.223C185.244 176.607 185.579 176.99 185.889 177.412C186.228 177.816 186.563 178.252 186.942 178.674C187.136 178.88 187.322 179.098 187.511 179.316C187.701 179.535 187.922 179.73 188.12 179.947C188.518 180.38 188.96 180.781 189.399 181.183C189.811 181.616 190.314 181.945 190.746 182.346C191.201 182.72 191.686 183.039 192.127 183.398C192.584 183.732 193.059 184.012 193.489 184.321C193.919 184.645 194.35 184.853 194.742 185.113C195.146 185.34 195.487 185.616 195.854 185.787C196.208 185.968 196.509 186.15 196.759 186.295C197.255 186.59 197.532 186.786 197.532 186.786Z" fill="#76413B"/>
<path d="M172.538 217.238C172.538 217.238 164.495 199.139 154.152 213.791L172.538 217.238Z" fill="white"/>
<path d="M182.597 191.959C182.383 195.204 183.172 197.899 184.359 197.977C185.547 198.056 186.682 195.488 186.896 192.243C187.11 188.997 186.321 186.303 185.133 186.224C183.947 186.146 182.811 188.713 182.597 191.959Z" fill="#352C38"/>
<path d="M160.476 190.235C160.262 193.481 161.052 196.175 162.239 196.253C163.426 196.332 164.562 193.764 164.776 190.519C164.99 187.273 164.2 184.579 163.013 184.5C161.827 184.423 160.69 186.99 160.476 190.235Z" fill="#352C38"/>
<path d="M166.218 194.542C166.218 194.542 166.179 194.768 166.073 195.153C165.958 195.535 165.806 196.088 165.544 196.725C165.289 197.363 164.941 198.093 164.47 198.829C164.005 199.566 163.398 200.311 162.59 200.889C162.179 201.166 161.699 201.377 161.191 201.468C160.68 201.576 160.15 201.47 159.707 201.301C159.251 201.138 158.891 200.854 158.584 200.58C158.277 200.304 158.023 200.011 157.824 199.723C157.611 199.445 157.445 199.172 157.318 198.921C157.177 198.678 157.067 198.462 156.987 198.278C156.82 197.913 156.737 197.702 156.737 197.702C156.737 197.702 156.888 197.877 157.129 198.19C157.363 198.505 157.733 198.937 158.199 199.4C158.31 199.523 158.437 199.636 158.573 199.745C158.707 199.856 158.835 199.985 158.99 200.079C159.139 200.181 159.287 200.296 159.456 200.368C159.618 200.459 159.786 200.534 159.962 200.585C160.311 200.694 160.68 200.728 161.045 200.647C161.409 200.573 161.771 200.409 162.104 200.175C162.439 199.942 162.759 199.668 163.044 199.356C163.327 199.045 163.607 198.73 163.847 198.396C164.339 197.738 164.756 197.078 165.102 196.503C165.443 195.926 165.735 195.44 165.917 195.089C166.109 194.742 166.218 194.542 166.218 194.542Z" fill="#FC6A5A"/>
<path d="M181.156 196.554C181.156 196.554 181.24 196.768 181.385 197.143C181.52 197.519 181.747 198.045 182.008 198.67C182.277 199.293 182.596 200.015 182.997 200.741C183.189 201.109 183.427 201.461 183.667 201.807C183.91 202.152 184.197 202.461 184.509 202.697C184.817 202.939 185.156 203.086 185.499 203.09C185.842 203.085 186.194 202.953 186.521 202.764C186.84 202.552 187.14 202.306 187.406 202.043C187.668 201.774 187.912 201.509 188.122 201.244C188.342 200.991 188.519 200.735 188.694 200.519C188.869 200.304 189.002 200.101 189.116 199.937C189.346 199.61 189.489 199.427 189.489 199.427C189.489 199.427 189.414 199.644 189.263 200.018C189.185 200.204 189.096 200.433 188.969 200.685C188.843 200.938 188.721 201.235 188.527 201.528C188.436 201.679 188.341 201.835 188.242 201.997C188.127 202.15 188.008 202.309 187.885 202.472C187.627 202.791 187.324 203.115 186.942 203.395C186.549 203.654 186.074 203.911 185.506 203.922C184.941 203.931 184.4 203.697 183.991 203.383C183.173 202.73 182.692 201.878 182.322 201.081C181.952 200.279 181.711 199.5 181.543 198.827C181.369 198.155 181.289 197.581 181.224 197.184C181.167 196.785 181.156 196.554 181.156 196.554Z" fill="#FC6A5A"/>
<path d="M130.882 192.819C130.508 192.412 130.159 191.973 129.882 191.484C129.747 191.238 129.623 190.984 129.526 190.715C129.476 190.581 129.449 190.437 129.41 190.297C129.375 190.156 129.381 190.004 129.365 189.856C129.358 189.707 129.403 189.554 129.424 189.402C129.466 189.254 129.552 189.116 129.62 188.973C129.712 188.848 129.83 188.742 129.938 188.627C130.052 188.519 130.196 188.466 130.325 188.384C130.588 188.219 130.881 188.185 131.16 188.081L132.016 187.954L131.765 188.231C131.675 187.015 131.54 185.792 131.374 184.581C131.229 183.366 131.043 182.158 130.809 180.962C130.567 179.77 130.285 178.584 129.876 177.457C129.667 176.897 129.46 176.337 129.174 175.831C128.895 175.326 128.557 174.854 128.138 174.553C127.931 174.396 127.701 174.313 127.468 174.263C127.353 174.267 127.214 174.238 127.119 174.256L126.661 174.319C126.335 174.342 126.119 174.465 125.844 174.53C125.584 174.622 125.326 174.764 125.071 174.887C124.591 175.198 124.119 175.538 123.737 175.978L123.446 176.305L123.2 176.666C123.022 176.9 122.901 177.167 122.768 177.43C122.51 177.959 122.36 178.532 122.255 179.116C122.233 179.41 122.204 179.706 122.198 180.003C122.22 180.298 122.211 180.6 122.259 180.895C122.348 181.487 122.518 182.07 122.764 182.625C122.905 182.893 123.029 183.174 123.187 183.434L123.7 184.2L123.099 183.494C122.905 183.251 122.762 182.973 122.591 182.711C122.291 182.163 122.062 181.574 121.913 180.957C121.836 180.65 121.818 180.332 121.767 180.017C121.757 179.699 121.771 179.379 121.779 179.06C121.857 178.426 121.989 177.793 122.24 177.199C122.369 176.904 122.489 176.603 122.671 176.334L122.925 175.919L123.228 175.538C123.627 175.022 124.143 174.605 124.694 174.249C124.987 174.098 125.271 173.937 125.588 173.819C125.907 173.726 126.258 173.577 126.55 173.555L127.006 173.484C127.215 173.449 127.386 173.48 127.578 173.482C127.948 173.545 128.307 173.682 128.597 173.892C129.187 174.304 129.579 174.863 129.905 175.422C130.229 175.988 130.481 176.575 130.683 177.174C131.092 178.371 131.36 179.593 131.587 180.816C131.805 182.04 131.971 183.269 132.096 184.501C132.201 185.737 132.273 186.969 132.299 188.211L132.305 188.465L132.048 188.489L131.257 188.563C131.018 188.643 130.738 188.66 130.526 188.785C130.42 188.845 130.293 188.885 130.201 188.96C130.117 189.042 130.016 189.112 129.937 189.2C129.883 189.304 129.805 189.398 129.762 189.509C129.74 189.628 129.689 189.743 129.683 189.869C129.688 189.995 129.669 190.124 129.69 190.253C129.716 190.382 129.727 190.513 129.762 190.642C129.832 190.901 129.928 191.153 130.039 191.403C130.272 191.896 130.553 192.374 130.882 192.819Z" fill="#FC6A5A"/>
<path d="M252.699 146.682C229.261 97.5607 249.268 38.1855 332.903 57.8691C332.903 57.8691 385.394 73.0617 374.646 129.96C365.481 178.476 300.33 192.118 266.801 164.633C257.978 170.643 235.138 185.364 260.527 158.572C257.464 155.076 254.816 151.12 252.699 146.682Z" fill="#FC6A5A"/>
<path d="M317.416 117.205L305.1 111.345C306.153 108.69 307.326 106.603 308.614 105.086C309.901 103.568 311.215 102.42 312.554 101.641C313.892 100.863 315.224 100.35 316.547 100.102C317.874 99.8533 319.127 99.6906 320.311 99.6121C321.494 99.5344 322.56 99.4246 323.508 99.2795C324.455 99.1345 325.235 98.761 325.85 98.1592C326.227 97.8026 326.517 97.3218 326.714 96.7167C326.913 96.1109 326.921 95.4513 326.74 94.7397C326.557 94.0273 326.13 93.2948 325.46 92.5455C324.789 91.7938 323.785 91.0998 322.45 90.4651C321.576 90.0492 320.501 89.6341 319.222 89.2198C317.945 88.8055 316.572 88.4496 315.104 88.1547C313.637 87.8574 312.153 87.6443 310.652 87.5096C309.151 87.3782 307.746 87.3726 306.437 87.4936L311.629 72.4468C312.781 72.3402 314.059 72.2697 315.461 72.2369C316.861 72.2024 318.348 72.2849 319.923 72.4829C321.497 72.68 323.156 73.0142 324.897 73.4862C326.639 73.9574 328.433 74.6322 330.279 75.5105C333.267 76.9322 335.894 78.6896 338.161 80.7796C340.429 82.872 342.176 85.192 343.406 87.7436C344.634 90.2944 345.275 93.0191 345.325 95.9193C345.376 98.8179 344.679 101.785 343.234 104.822C342.136 107.131 340.927 108.826 339.606 109.911C338.286 110.996 336.902 111.746 335.454 112.158C334.006 112.571 332.505 112.781 330.955 112.788C329.402 112.794 327.856 112.87 326.311 113.013C324.769 113.159 323.244 113.514 321.74 114.078C320.236 114.644 318.793 115.686 317.416 117.205ZM314.662 127.691C314.153 128.761 313.472 129.658 312.621 130.384C311.767 131.111 310.831 131.655 309.81 132.019C308.788 132.381 307.719 132.544 306.607 132.505C305.492 132.467 304.413 132.199 303.369 131.703C302.3 131.194 301.4 130.521 300.668 129.679C299.934 128.84 299.387 127.908 299.025 126.888C298.661 125.865 298.499 124.799 298.537 123.683C298.576 122.57 298.849 121.479 299.358 120.41C299.855 119.365 300.529 118.465 301.38 117.707C302.232 116.951 303.168 116.39 304.19 116.029C305.211 115.665 306.281 115.498 307.402 115.524C308.521 115.55 309.615 115.817 310.684 116.326C311.728 116.823 312.613 117.497 313.341 118.349C314.067 119.202 314.612 120.137 314.976 121.16C315.338 122.181 315.5 123.264 315.463 124.408C315.425 125.552 315.158 126.648 314.662 127.691Z" fill="white"/>
<path d="M326.347 149.134L319.081 141.672C320.54 140.05 321.933 138.865 323.258 138.122C324.582 137.377 325.828 136.903 326.993 136.7C328.156 136.497 329.247 136.484 330.261 136.657C331.276 136.831 332.218 137.046 333.087 137.305C333.954 137.563 334.746 137.768 335.464 137.915C336.181 138.063 336.839 138.002 337.438 137.734C337.803 137.578 338.138 137.311 338.44 136.93C338.743 136.549 338.924 136.079 338.982 135.521C339.041 134.963 338.929 134.325 338.648 133.611C338.367 132.894 337.832 132.131 337.045 131.322C336.528 130.792 335.869 130.21 335.063 129.574C334.259 128.94 333.37 128.32 332.397 127.72C331.424 127.118 330.418 126.571 329.379 126.077C328.339 125.585 327.334 125.208 326.365 124.948L334.073 115.55C334.927 115.779 335.86 116.068 336.872 116.416C337.884 116.763 338.928 117.216 340.002 117.776C341.077 118.335 342.177 119.014 343.299 119.813C344.421 120.612 345.526 121.572 346.616 122.69C348.379 124.501 349.795 126.456 350.863 128.554C351.932 130.654 352.568 132.779 352.772 134.932C352.975 137.085 352.711 139.206 351.978 141.296C351.246 143.385 349.96 145.326 348.121 147.117C346.722 148.48 345.406 149.372 344.173 149.8C342.94 150.226 341.75 150.396 340.604 150.307C339.457 150.219 338.326 149.971 337.214 149.564C336.1 149.157 334.972 148.801 333.829 148.494C332.685 148.19 331.499 148.039 330.272 148.045C329.045 148.049 327.736 148.412 326.347 149.134ZM321.593 155.913C320.945 156.544 320.22 157.006 319.417 157.3C318.614 157.595 317.799 157.736 316.971 157.726C316.143 157.713 315.334 157.547 314.548 157.224C313.76 156.902 313.058 156.424 312.442 155.791C311.811 155.143 311.345 154.422 311.044 153.626C310.741 152.83 310.597 152.018 310.607 151.192C310.618 150.362 310.785 149.556 311.108 148.767C311.431 147.98 311.916 147.272 312.564 146.64C313.196 146.025 313.919 145.559 314.728 145.242C315.539 144.927 316.358 144.773 317.186 144.786C318.014 144.796 318.824 144.96 319.62 145.276C320.414 145.591 321.128 146.072 321.758 146.721C322.374 147.353 322.829 148.071 323.124 148.875C323.417 149.678 323.56 150.493 323.548 151.321C323.537 152.148 323.367 152.967 323.036 153.776C322.708 154.584 322.225 155.297 321.593 155.913Z" fill="white"/>
<path d="M285.042 124.518L275.605 124.975C275.379 123.009 275.41 121.35 275.7 120.003C275.989 118.655 276.415 117.524 276.978 116.61C277.54 115.697 278.185 114.947 278.911 114.362C279.639 113.776 280.351 113.266 281.048 112.831C281.744 112.396 282.359 111.98 282.89 111.581C283.421 111.182 283.775 110.698 283.953 110.13C284.067 109.789 284.085 109.401 284.008 108.967C283.931 108.531 283.721 108.127 283.376 107.752C283.031 107.377 282.531 107.07 281.876 106.832C281.22 106.593 280.38 106.498 279.357 106.547C278.687 106.579 277.895 106.679 276.978 106.845C276.063 107.01 275.108 107.242 274.115 107.543C273.122 107.841 272.146 108.197 271.186 108.607C270.228 109.018 269.368 109.475 268.608 109.978L266.849 99.0919C267.517 98.6496 268.274 98.188 269.119 97.7088C269.962 97.2295 270.898 96.792 271.924 96.3977C272.95 96.0026 274.072 95.6636 275.289 95.3807C276.507 95.0978 277.822 94.9223 279.238 94.8534C281.527 94.7428 283.707 94.9544 285.775 95.4881C287.845 96.0226 289.671 96.8665 291.257 98.0213C292.842 99.1761 294.126 100.63 295.107 102.383C296.088 104.136 296.634 106.176 296.746 108.503C296.832 110.271 296.649 111.702 296.199 112.797C295.749 113.892 295.148 114.802 294.4 115.528C293.651 116.255 292.803 116.875 291.859 117.387C290.913 117.9 289.994 118.452 289.098 119.046C288.204 119.639 287.389 120.356 286.656 121.193C285.925 122.032 285.385 123.141 285.042 124.518ZM286.796 131.822C286.836 132.642 286.714 133.412 286.432 134.135C286.149 134.858 285.755 135.496 285.252 136.053C284.746 136.609 284.148 137.058 283.455 137.399C282.762 137.741 282.016 137.931 281.216 137.969C280.396 138.009 279.626 137.892 278.904 137.619C278.181 137.348 277.543 136.957 276.987 136.454C276.43 135.948 275.982 135.351 275.64 134.657C275.3 133.965 275.109 133.209 275.069 132.39C275.03 131.59 275.147 130.819 275.418 130.078C275.692 129.337 276.079 128.689 276.584 128.133C277.088 127.576 277.686 127.124 278.379 126.773C279.071 126.422 279.827 126.227 280.646 126.187C281.445 126.148 282.207 126.27 282.93 126.552C283.653 126.835 284.292 127.228 284.849 127.733C285.404 128.237 285.858 128.846 286.211 129.556C286.562 130.266 286.757 131.022 286.796 131.822Z" fill="white"/>
</svg>
