<svg width="438" height="438" viewBox="0 0 438 438" fill="none" xmlns="http://www.w3.org/2000/svg">
<path d="M334.215 69.2856H259.28V177.724H334.215V69.2856Z" fill="#E0E0E0"/>
<path d="M330.461 69.2856H255.526V177.724H330.461V69.2856Z" fill="#EBEBEB"/>
<path d="M321.15 81.0293H264.835V165.978H321.15V81.0293Z" fill="white"/>
<path d="M321.15 165.978C321.15 165.978 321.143 165.834 321.14 165.563C321.137 165.282 321.133 164.882 321.129 164.358C321.123 163.29 321.116 161.728 321.106 159.698C321.094 155.627 321.077 149.694 321.056 142.199C321.033 127.22 321.002 106.008 320.964 81.0289L321.151 81.2158C303.946 81.2212 284.882 81.2267 264.843 81.2322H264.836L265.04 81.0289C265.024 113.075 265.01 142.622 264.999 165.978L264.836 165.816C281.987 165.851 296.044 165.88 305.826 165.9C310.719 165.918 314.54 165.932 317.151 165.942C318.448 165.95 319.442 165.956 320.123 165.96C320.796 165.967 321.15 165.978 321.15 165.978C321.15 165.978 320.819 165.99 320.157 165.996C319.482 166 318.499 166.006 317.215 166.014C314.613 166.023 310.804 166.038 305.927 166.055C296.121 166.076 282.029 166.105 264.836 166.14H264.674V165.978C264.662 142.622 264.648 113.075 264.633 81.0289V80.8257H264.837H264.844C284.882 80.8319 303.947 80.8374 321.152 80.842H321.339V81.0289C321.302 106.059 321.27 127.313 321.247 142.322C321.225 149.799 321.208 155.718 321.197 159.779C321.186 161.792 321.179 163.343 321.174 164.402C321.169 164.916 321.165 165.309 321.163 165.585C321.158 165.849 321.15 165.978 321.15 165.978Z" fill="#E0E0E0"/>
<path d="M330.671 69.2855C330.715 69.319 330.207 70.0603 329.335 71.2228C328.465 72.3854 327.23 73.9661 325.819 75.6753C324.409 77.3852 323.091 78.899 322.115 79.9743C321.14 81.0505 320.509 81.6905 320.467 81.6539C320.424 81.6166 320.978 80.9095 321.897 79.7867C322.902 78.5696 324.138 77.073 325.505 75.4168C326.871 73.7605 328.105 72.2623 329.109 71.0453C330.037 69.9287 330.626 69.2504 330.671 69.2855Z" fill="#E0E0E0"/>
<path d="M321.438 165.705C324.234 170.145 327.537 174.268 331.26 177.969Z" fill="white"/>
<path d="M331.26 177.969C331.223 178.006 330.554 177.427 329.547 176.414C328.54 175.401 327.206 173.943 325.843 172.242C324.48 170.539 323.348 168.918 322.581 167.714C321.812 166.511 321.394 165.733 321.438 165.705C321.489 165.673 321.994 166.396 322.82 167.553C323.646 168.711 324.806 170.294 326.161 171.988C327.516 173.679 328.808 175.158 329.758 176.217C330.706 177.276 331.302 177.927 331.26 177.969Z" fill="#E0E0E0"/>
<path d="M255.516 177.637C258.787 173.607 262.059 169.577 265.331 165.547Z" fill="white"/>
<path d="M265.33 165.547C265.417 165.618 263.29 168.382 260.581 171.721C257.87 175.06 255.602 177.709 255.514 177.638C255.427 177.567 257.553 174.803 260.264 171.464C262.974 168.125 265.243 165.476 265.33 165.547Z" fill="#E0E0E0"/>
<path d="M255.526 69.2856C255.614 69.2155 257.748 71.7618 260.29 74.9715C262.834 78.1819 264.823 80.8403 264.735 80.9104C264.647 80.9805 262.514 78.435 259.97 75.2238C257.428 72.0141 255.438 69.3549 255.526 69.2856Z" fill="#E0E0E0"/>
<path d="M303.606 98.2778H284.749V151.729H303.606V98.2778Z" fill="#E0E0E0"/>
<path d="M209.428 287.187L212.294 286.724L219.958 294.415L220.884 300.127C220.884 300.127 225.358 299.683 223.625 292.289C221.891 284.895 222.764 286.707 222.764 286.707C222.764 286.707 232.164 285.152 232.812 284.209C233.285 283.525 232.03 274.156 231.309 269.081C230.945 266.526 228.997 264.41 226.527 264.192C226.176 264.16 225.827 264.166 225.493 264.219C223.147 264.599 211.469 268.439 211.469 268.439L206.519 269.239L209.428 287.187Z" fill="#EBEBEB"/>
<path d="M201.478 290.08L200.069 270.226L204.977 269.434L208.085 288.609L201.478 290.08Z" fill="#EBEBEB"/>
<path d="M248.061 348.831L244.468 345.424L229.175 361.495L232.767 364.903L248.061 348.831Z" fill="#EBEBEB"/>
<path d="M232.301 345.737L228.888 349.323L244.985 364.592L248.398 361.006L232.301 345.737Z" fill="#EBEBEB"/>
<path d="M312.511 243.715C321.203 243.715 328.248 236.68 328.248 228.003C328.248 219.326 321.203 212.292 312.511 212.292C303.82 212.292 296.774 219.326 296.774 228.003C296.774 236.68 303.82 243.715 312.511 243.715Z" fill="#F5F5F5"/>
<path d="M303.829 225.206C305.485 226.289 307.006 227.559 308.374 228.987C308.809 229.441 309.498 228.752 309.064 228.298C307.64 226.812 306.045 225.493 304.321 224.365C303.795 224.022 303.306 224.864 303.829 225.206Z" fill="#E0E0E0"/>
<path d="M306.338 227.127C306.181 228.091 306.024 229.055 305.867 230.019C305.827 230.269 305.932 230.555 306.207 230.618C306.442 230.672 306.763 230.547 306.807 230.279C306.964 229.315 307.121 228.35 307.277 227.386C307.318 227.136 307.213 226.85 306.937 226.787C306.703 226.733 306.381 226.858 306.338 227.127Z" fill="#E0E0E0"/>
<path d="M319.497 226.209C317.652 227.132 315.928 228.267 314.34 229.582C314.137 229.75 314.166 230.096 314.34 230.27C314.54 230.47 314.826 230.438 315.029 230.27C316.552 229.01 318.221 227.934 319.989 227.05C320.55 226.769 320.057 225.929 319.497 226.209Z" fill="#E0E0E0"/>
<path d="M316.568 228.773C316.725 229.737 316.882 230.701 317.039 231.666C317.08 231.918 317.407 232.081 317.638 232.006C317.912 231.918 318.023 231.678 317.978 231.408C317.822 230.444 317.665 229.479 317.508 228.515C317.468 228.263 317.14 228.1 316.908 228.175C316.635 228.263 316.525 228.503 316.568 228.773Z" fill="#E0E0E0"/>
<path d="M307.228 235.631C308.13 234.39 309.689 233.687 311.218 233.824C312.717 233.959 314.05 234.932 314.735 236.248C315.025 236.804 315.866 236.313 315.577 235.757C314.727 234.123 313.053 233.011 311.218 232.85C309.329 232.685 307.484 233.627 306.386 235.139C306.017 235.647 306.863 236.133 307.228 235.631Z" fill="#E0E0E0"/>
<path d="M379.818 302.958L383.144 300.468C383.392 300.282 383.505 299.966 383.431 299.666L382.543 296.065C382.497 296.121 382.446 296.173 382.402 296.23C382.101 295.455 381.634 294.743 381.03 294.17C379.913 293.108 378.347 292.532 376.808 292.617C374.402 292.75 372.183 294.429 371.008 296.334C370.845 296.598 370.709 296.879 370.6 297.169C369.878 299.1 369.815 301.464 370.599 303.41C371.331 305.225 372.727 306.822 374.224 308.085C375.975 309.561 378.116 311.307 379.257 312.233C379.658 312.558 380.253 312.406 380.454 311.931L382.135 307.948C382.242 307.694 382.206 307.403 382.04 307.183L379.665 304.04C379.407 303.699 379.476 303.214 379.818 302.958Z" fill="#EBEBEB"/>
<path d="M394.537 299.747C394.031 297.554 392.442 295.234 390.18 294.349C388.744 293.787 387.076 293.844 385.683 294.504C384.919 294.865 384.25 295.41 383.718 296.065L384.848 299.915C384.926 300.18 384.829 300.464 384.606 300.627L380.982 303.276C380.778 303.446 380.74 303.745 380.895 303.96L383.443 307.285C383.578 307.461 383.605 307.697 383.513 307.899L381.23 312.876C381.239 312.883 381.252 312.894 381.252 312.894C381.252 312.894 384.727 311.075 387.785 309.845C389.603 309.113 391.429 308.034 392.693 306.538C394.059 304.919 394.742 302.627 394.646 300.553C394.634 300.282 394.598 300.012 394.537 299.747Z" fill="#EBEBEB"/>
<path d="M174.976 55.9854H67.9375V247.96H174.976V55.9854Z" fill="#EBEBEB"/>
<path d="M169.595 61.5518H72.2144V242.24H169.595V61.5518Z" fill="#FAFAFA"/>
<path d="M179.502 249.69L174.976 247.959V52.7295H179.502V249.69Z" fill="#E0E0E0"/>
<path d="M171.711 113.53H72.2144V115.454H171.711V113.53Z" fill="#E0E0E0"/>
<path d="M171.711 156.56H72.2148V158.484H171.711V156.56Z" fill="#E0E0E0"/>
<path d="M171.711 199.589H72.2144V201.513H171.711V199.589Z" fill="#E0E0E0"/>
<path d="M118.445 114.494L118.445 247.364H123.365L123.365 114.494H118.445Z" fill="#E0E0E0"/>
<path d="M93.1949 61.5518H90.9658V114.493H93.1949V61.5518Z" fill="#E0E0E0"/>
<path d="M112.419 61.5518H110.19V114.493H112.419V61.5518Z" fill="#E0E0E0"/>
<path d="M131.642 61.5518H129.413V114.493H131.642V61.5518Z" fill="#E0E0E0"/>
<path d="M150.866 61.5518H148.638V114.493H150.866V61.5518Z" fill="#E0E0E0"/>
<path d="M67.9382 52.7295H63.4106V249.148H67.9382V52.7295Z" fill="#E0E0E0"/>
<path d="M179.503 50.7471H63.4106V55.9852H179.503V50.7471Z" fill="#E0E0E0"/>
<path d="M182.567 250.336H60.1978V255.216H182.567V250.336Z" fill="#E0E0E0"/>
<path d="M174.975 247.96L182.567 250.336H60.1978L67.9371 247.96H174.975Z" fill="#E0E0E0"/>
<path d="M91.5971 274.873H58.2959V283.668H91.5971V274.873Z" fill="#EBEBEB"/>
<path d="M77.5156 292.933C77.5125 292.929 77.5086 292.875 77.5055 292.773C77.5024 292.656 77.4992 292.507 77.4946 292.322C77.4883 291.908 77.4805 291.331 77.4696 290.591C77.4563 289.073 77.4368 286.89 77.4127 284.138L77.5156 284.24C69.912 284.256 57.8198 284.28 44.2168 284.307C44.2917 284.231 44.046 284.476 44.3845 284.138V284.14V284.145V284.153V284.171V284.206V284.277V284.419V284.701V285.265C44.3845 285.64 44.3845 286.014 44.3845 286.387C44.3845 287.132 44.3845 287.873 44.3837 288.606C44.3829 290.074 44.3821 291.519 44.3806 292.933L44.2145 292.767C53.697 292.797 61.9948 292.823 67.9457 292.842C70.9103 292.863 73.2891 292.878 74.9504 292.89C75.7584 292.899 76.3917 292.906 76.8449 292.912C77.0484 292.916 77.2114 292.92 77.3401 292.923C77.4524 292.926 77.5117 292.929 77.5156 292.933C77.5195 292.937 77.4673 292.94 77.3612 292.944C77.238 292.947 77.082 292.95 76.8862 292.955C76.4416 292.96 75.8208 292.967 75.0276 292.976C73.3749 292.987 71.0093 293.004 68.0612 293.024C62.0806 293.043 53.743 293.069 44.2145 293.099L44.0483 293.1V292.934C44.0476 291.519 44.0468 290.075 44.0452 288.607C44.0452 287.873 44.0444 287.133 44.0444 286.388C44.0444 286.015 44.0444 285.641 44.0444 285.266V284.702V284.42V284.278V284.207V284.172V284.154V284.145V284.141V284.138C44.3837 283.8 44.1396 284.044 44.216 283.969C57.819 283.996 69.912 284.02 77.5148 284.035H77.6186L77.6178 284.138C77.5936 286.916 77.5741 289.12 77.5609 290.653C77.5499 291.383 77.5421 291.952 77.5359 292.36C77.5312 292.538 77.5281 292.68 77.525 292.793C77.5226 292.889 77.5187 292.936 77.5156 292.933Z" fill="#E0E0E0"/>
<path d="M392.662 78.9087H359.361V87.7038H392.662V78.9087Z" fill="#EBEBEB"/>
<path d="M378.581 96.9682C378.578 96.9643 378.574 96.9106 378.571 96.8086C378.568 96.691 378.564 96.5423 378.56 96.3578C378.554 95.9435 378.546 95.3665 378.535 94.6268C378.522 93.1083 378.502 90.9257 378.478 88.1731L378.581 88.2759C370.977 88.2915 358.885 88.3148 345.282 88.3421C345.357 88.2666 345.111 88.5111 345.45 88.1731V88.1755V88.1801V88.1887V88.2066V88.2424V88.3133V88.455V88.7377V89.3014C345.45 89.6767 345.45 90.0505 345.45 90.4235C345.45 91.1687 345.45 91.9092 345.449 92.6435C345.448 94.1113 345.447 95.5557 345.446 96.9698L345.28 96.8039C354.762 96.8343 363.06 96.86 369.011 96.8795C371.976 96.8997 374.354 96.9153 376.016 96.927C376.824 96.9363 377.457 96.9433 377.91 96.9488C378.114 96.9534 378.277 96.9566 378.405 96.9597C378.518 96.9612 378.578 96.9651 378.581 96.9682C378.585 96.9721 378.532 96.9752 378.426 96.9791C378.303 96.9823 378.147 96.9854 377.951 96.99C377.507 96.9955 376.886 97.0025 376.093 97.0118C374.44 97.0227 372.075 97.0391 369.126 97.0593C363.146 97.078 354.808 97.1045 345.279 97.1349L345.113 97.1356V96.9698C345.112 95.5557 345.111 94.1113 345.11 92.6435C345.11 91.9092 345.109 91.1694 345.109 90.4235C345.109 90.0505 345.109 89.6767 345.109 89.3014V88.7377V88.455V88.3133V88.2424V88.2066V88.1887V88.1801V88.1755V88.1731C345.448 87.8344 345.204 88.0789 345.28 88.0034C358.883 88.0306 370.976 88.0548 378.579 88.0696H378.684L378.683 88.1723C378.659 90.9506 378.639 93.1543 378.626 94.6875C378.615 95.4179 378.607 95.9871 378.601 96.3951C378.596 96.5727 378.593 96.7152 378.59 96.8281C378.588 96.9246 378.585 96.9721 378.581 96.9682Z" fill="#E0E0E0"/>
<path d="M236.518 220.565H203.217V229.361H236.518V220.565Z" fill="#EBEBEB"/>
<path d="M374.4 199.468C374.397 199.465 374.393 199.41 374.39 199.308C374.387 199.191 374.383 199.042 374.379 198.857C374.372 198.443 374.365 197.866 374.354 197.126C374.34 195.608 374.321 193.425 374.297 190.673L374.4 190.775C366.796 190.79 354.704 190.814 341.1 190.842C341.175 190.766 340.929 191.011 341.268 190.673V190.675V190.68V190.689V190.707V190.742V190.813V190.955V191.237V191.801C341.268 192.176 341.268 192.55 341.268 192.923C341.268 193.668 341.267 194.409 341.267 195.142C341.266 196.61 341.265 198.054 341.264 199.469L341.098 199.303C350.58 199.333 358.878 199.36 364.829 199.378C367.794 199.398 370.172 199.414 371.834 199.426C372.642 199.435 373.275 199.442 373.727 199.448C373.931 199.452 374.094 199.455 374.223 199.458C374.337 199.461 374.396 199.465 374.4 199.468C374.404 199.472 374.351 199.475 374.245 199.479C374.122 199.481 373.966 199.485 373.77 199.49C373.326 199.495 372.705 199.502 371.912 199.511C370.259 199.522 367.893 199.539 364.945 199.559C358.965 199.578 350.627 199.604 341.098 199.634L340.932 199.635V199.469C340.931 198.054 340.93 196.61 340.929 195.142C340.929 194.408 340.928 193.668 340.928 192.923C340.928 192.55 340.928 192.176 340.928 191.801V191.237V190.955V190.813V190.742V190.707V190.689V190.68V190.675V190.673C341.267 190.334 341.023 190.578 341.099 190.503C354.702 190.53 366.794 190.554 374.399 190.569H374.503L374.502 190.672C374.478 193.45 374.458 195.654 374.445 197.187C374.434 197.917 374.426 198.487 374.42 198.895C374.415 199.072 374.412 199.215 374.409 199.328C374.406 199.424 374.403 199.472 374.4 199.468Z" fill="#E0E0E0"/>
<path d="M378.915 190.673C378.911 190.669 378.906 190.612 378.902 190.506C378.899 190.38 378.895 190.226 378.889 190.039C378.882 189.606 378.872 189.019 378.859 188.276C378.843 186.733 378.82 184.555 378.793 181.877L378.915 181.999C373.731 182.011 366.68 182.028 358.908 182.046C358.756 182.197 359.113 181.84 359.076 181.877V181.88V181.884V181.894V181.912V181.947V182.02V182.165V182.453V183.027C359.076 183.41 359.076 183.79 359.076 184.168C359.075 184.924 359.075 185.671 359.075 186.407C359.072 187.878 359.071 189.305 359.068 190.672L358.907 190.51C364.683 190.542 369.656 190.568 373.22 190.587C374.978 190.605 376.386 190.621 377.389 190.631C377.858 190.64 378.231 190.646 378.514 190.651C378.771 190.66 378.908 190.667 378.915 190.673C378.922 190.68 378.797 190.686 378.551 190.693C378.277 190.698 377.915 190.704 377.46 190.713C376.467 190.724 375.07 190.739 373.328 190.757C369.737 190.776 364.726 190.803 358.906 190.834L358.745 190.834V190.672C358.742 189.306 358.741 187.879 358.738 186.408C358.738 185.672 358.738 184.925 358.737 184.169C358.737 183.79 358.737 183.41 358.736 183.028V182.454V182.165V182.021V181.949V181.913V181.895V181.886V181.881V181.879C358.699 181.915 359.058 181.557 358.907 181.708C366.679 181.727 373.731 181.743 378.914 181.756H379.037L379.036 181.877C379.008 184.586 378.986 186.79 378.97 188.35C378.957 189.081 378.947 189.659 378.94 190.086C378.931 190.48 378.923 190.682 378.915 190.673Z" fill="#E0E0E0"/>
<path d="M316.081 326.193C316.078 326.189 316.074 326.135 316.071 326.033C316.068 325.915 316.065 325.767 316.06 325.582C316.054 325.169 316.046 324.591 316.035 323.851C316.022 322.333 316.003 320.15 315.978 317.397L316.081 317.5C308.478 317.515 296.385 317.539 282.782 317.566C282.857 317.491 282.611 317.735 282.949 317.397V317.4V317.404V317.413V317.431V317.466V317.537V317.679V317.961V318.525C282.949 318.9 282.949 319.274 282.949 319.647C282.949 320.392 282.949 321.133 282.949 321.866C282.948 323.334 282.947 324.778 282.946 326.193L282.779 326.027C292.262 326.057 300.56 326.083 306.511 326.102C309.475 326.122 311.854 326.138 313.515 326.15C314.323 326.159 314.957 326.166 315.41 326.172C315.613 326.176 315.777 326.179 315.905 326.182C316.018 326.185 316.077 326.189 316.081 326.193C316.085 326.196 316.033 326.2 315.927 326.203C315.804 326.207 315.648 326.21 315.452 326.214C315.007 326.22 314.387 326.227 313.593 326.236C311.941 326.247 309.575 326.263 306.627 326.284C300.646 326.302 292.309 326.329 282.779 326.359L282.613 326.36V326.193C282.612 324.779 282.612 323.335 282.61 321.867C282.61 321.133 282.609 320.393 282.609 319.648C282.609 319.275 282.609 318.901 282.609 318.526V317.962V317.679V317.538V317.467V317.432V317.414V317.405V317.401V317.398C282.949 317.059 282.705 317.304 282.781 317.228C296.384 317.256 308.476 317.28 316.081 317.295H316.184L316.184 317.397C316.159 320.176 316.14 322.379 316.127 323.913C316.116 324.643 316.108 325.212 316.102 325.62C316.097 325.798 316.094 325.94 316.091 326.053C316.088 326.148 316.084 326.196 316.081 326.193Z" fill="#E0E0E0"/>
<path d="M320.596 317.397C320.593 317.393 320.588 317.336 320.584 317.229C320.581 317.103 320.576 316.95 320.571 316.763C320.564 316.33 320.554 315.742 320.54 314.999C320.525 313.457 320.502 311.279 320.475 308.601L320.596 308.722C315.413 308.735 308.361 308.751 300.589 308.77C300.437 308.921 300.795 308.563 300.758 308.601V308.603V308.608V308.617V308.635V308.672V308.744V308.889V309.177V309.752C300.758 310.134 300.758 310.514 300.758 310.892C300.757 311.648 300.757 312.395 300.756 313.131C300.754 314.602 300.752 316.029 300.75 317.396L300.589 317.235C306.365 317.266 311.338 317.292 314.901 317.311C316.659 317.33 318.068 317.344 319.071 317.355C319.54 317.364 319.912 317.37 320.196 317.376C320.452 317.383 320.59 317.39 320.596 317.397C320.603 317.404 320.479 317.41 320.233 317.417C319.958 317.422 319.597 317.429 319.142 317.437C318.148 317.448 316.751 317.463 315.01 317.482C311.419 317.501 306.408 317.527 300.588 317.558L300.426 317.559V317.397C300.425 316.03 300.422 314.604 300.42 313.132C300.419 312.396 300.419 311.649 300.419 310.893C300.419 310.515 300.419 310.135 300.418 309.752V309.178V308.89V308.745V308.672V308.636V308.618V308.609V308.604V308.602C300.38 308.637 300.74 308.28 300.589 308.431C308.361 308.45 315.412 308.466 320.596 308.478H320.719L320.717 308.6C320.69 311.309 320.667 313.513 320.652 315.072C320.639 315.803 320.628 316.383 320.621 316.809C320.613 317.204 320.605 317.405 320.596 317.397Z" fill="#E0E0E0"/>
<path d="M242.278 119.989C242.275 119.986 242.271 119.931 242.267 119.829C242.264 119.712 242.261 119.563 242.257 119.378C242.25 118.964 242.243 118.387 242.232 117.647C242.218 116.129 242.199 113.946 242.175 111.194L242.278 111.296C234.674 111.311 222.582 111.335 208.979 111.363C209.054 111.287 208.808 111.532 209.147 111.194V111.196V111.201V111.209V111.227V111.262V111.333V111.475V111.757V112.321C209.147 112.696 209.147 113.07 209.147 113.443C209.147 114.188 209.146 114.929 209.146 115.663C209.145 117.131 209.144 118.575 209.143 119.99L208.976 119.824C218.459 119.854 226.757 119.881 232.708 119.899C235.672 119.919 238.051 119.935 239.712 119.947C240.52 119.956 241.154 119.963 241.606 119.968C241.81 119.973 241.973 119.976 242.101 119.979C242.214 119.982 242.274 119.985 242.278 119.989C242.282 119.993 242.229 119.996 242.123 120C242 120.003 241.844 120.006 241.648 120.011C241.204 120.016 240.583 120.023 239.79 120.032C238.137 120.043 235.771 120.06 232.823 120.08C226.843 120.099 218.505 120.125 208.976 120.155L208.81 120.156V119.99C208.809 118.575 208.808 117.131 208.806 115.663C208.806 114.929 208.806 114.189 208.806 113.443C208.806 113.07 208.806 112.696 208.806 112.321V111.757V111.475V111.333V111.262V111.227V111.209V111.201V111.196V111.194C209.145 110.855 208.901 111.099 208.977 111.024C222.58 111.051 234.672 111.075 242.276 111.09H242.381L242.38 111.193C242.356 113.971 242.336 116.175 242.323 117.708C242.312 118.438 242.304 119.008 242.298 119.416C242.293 119.593 242.29 119.736 242.287 119.849C242.285 119.945 242.281 119.992 242.278 119.989Z" fill="#E0E0E0"/>
<path d="M395 385.592C395 385.704 316.196 385.795 219.009 385.795C121.787 385.795 43 385.703 43 385.592C43 385.48 121.787 385.39 219.009 385.39C316.196 385.39 395 385.48 395 385.592Z" fill="#263238"/>
<path d="M331.103 343.22L281.542 346.951L257.84 329.509L247.436 338.61C247.436 338.61 268.345 363.957 280.325 366.032C289.548 367.629 338.7 365.294 338.7 365.294L331.103 343.22Z" fill="#FFBF9D"/>
<path d="M257.006 324.709C256.187 322.876 255.203 321.168 254.145 320.151C252.377 318.451 241.875 313.204 234.554 311.342C227.233 309.48 226.015 309.252 225.628 311.322C225.24 313.392 228.371 314.171 232.256 315.486C236.14 316.801 237.951 317.749 237.951 317.749C237.951 317.749 234.301 319.683 236.003 323.251C236.003 323.251 233.068 327.803 236.919 329.987C236.919 329.987 234.92 331.775 238.136 334.36C238.136 334.36 244.82 337.64 248.286 339.49C248.726 339.726 258.392 331.032 259.073 330.415L257.006 324.709Z" fill="#FFBF9D"/>
<path d="M252.926 330.589C252.954 330.488 251.764 330.831 250.324 329.769C249.651 329.245 248.929 328.383 248.636 327.241C248.506 326.674 248.385 325.993 248.396 325.362C248.422 324.705 248.552 324 248.781 323.317L248.905 322.946H248.509C246.446 322.946 244.126 323.004 241.86 322.335C240.801 321.988 239.659 321.554 239.085 320.78C238.813 320.395 238.698 319.897 238.809 319.477C238.914 319.046 239.238 318.702 239.631 318.456C240.432 317.976 241.417 317.783 242.272 317.564C243.144 317.365 243.973 317.25 244.731 317.181C247.779 316.926 249.663 317.428 249.678 317.307C249.686 317.271 249.23 317.115 248.375 316.96C247.521 316.808 246.26 316.663 244.699 316.747C243.92 316.789 243.068 316.883 242.166 317.065C241.273 317.276 240.304 317.424 239.332 317.974C238.865 318.254 238.398 318.71 238.239 319.329C238.075 319.946 238.232 320.606 238.591 321.125C238.954 321.648 239.491 321.994 240.015 322.258C240.542 322.531 241.104 322.747 241.683 322.923C244.084 323.629 246.451 323.539 248.516 323.509L248.245 323.138C248.009 323.888 247.886 324.626 247.873 325.35C247.882 326.103 248.019 326.729 248.18 327.364C248.554 328.631 249.364 329.513 250.126 330.045C250.906 330.58 251.674 330.715 252.171 330.718C252.675 330.713 252.931 330.612 252.926 330.589Z" fill="#FF9A6C"/>
<path d="M248.071 324.86C248.027 324.865 248.025 325.088 248.024 325.475C248.015 325.852 248.015 326.434 247.656 326.95C247.475 327.204 247.223 327.39 246.883 327.391C246.546 327.4 246.099 327.27 245.652 327.186C244.754 326.989 243.777 326.733 242.771 326.401C238.72 325.094 235.866 323.06 235.763 323.22C235.718 323.281 236.37 323.872 237.565 324.635C238.758 325.399 240.513 326.311 242.579 326.985C243.609 327.325 244.615 327.571 245.54 327.742C246.006 327.809 246.421 327.93 246.915 327.9C247.422 327.876 247.84 327.521 248.021 327.185C248.42 326.485 248.321 325.835 248.262 325.455C248.19 325.06 248.112 324.855 248.071 324.86Z" fill="#FF9A6C"/>
<path d="M245.532 327.663C245.515 327.71 245.703 327.793 245.946 328.026C246.183 328.259 246.458 328.689 246.502 329.278C246.566 329.858 246.26 330.527 245.652 331.023C245.051 331.526 244.186 331.759 243.249 331.702C239.38 331.388 236.626 329.517 236.548 329.703C236.506 329.764 237.121 330.302 238.288 330.907C239.456 331.505 241.175 332.161 243.221 332.317C244.249 332.387 245.324 332.091 246.019 331.455C246.727 330.855 247.08 329.939 246.935 329.227C246.819 328.519 246.42 328.047 246.096 327.84C245.763 327.631 245.54 327.631 245.532 327.663Z" fill="#FF9A6C"/>
<path d="M244.835 331.738C244.764 331.836 245.475 332.167 246.215 332.983C246.573 333.393 246.811 334.01 246.695 334.693C246.636 335.023 246.481 335.34 246.218 335.539C245.955 335.742 245.582 335.817 245.166 335.814C241.646 335.683 238.878 334.659 238.825 334.838C238.753 334.97 241.465 336.287 245.165 336.428C245.637 336.432 246.177 336.343 246.587 336.015C246.998 335.689 247.197 335.21 247.255 334.779C247.378 333.904 246.992 333.116 246.537 332.691C245.6 331.845 244.857 331.701 244.835 331.738Z" fill="#FF9A6C"/>
<path d="M280.386 353.451C280.549 353.488 281.027 352.017 281.292 350.137C281.561 348.256 281.513 346.711 281.346 346.702C281.173 346.692 280.948 348.199 280.682 350.05C280.421 351.902 280.218 353.413 280.386 353.451Z" fill="#FF9A6C"/>
<path d="M363.167 325.018L338.838 311.88L314.529 287.937L304.125 297.038C304.125 297.038 323.824 319.89 333.514 327.223C340.184 332.271 370.763 347.091 370.763 347.091L363.167 325.018Z" fill="#FFBF9D"/>
<path d="M313.697 283.139C312.878 281.305 311.894 279.598 310.836 278.58C309.067 276.88 298.566 271.634 291.245 269.772C283.924 267.909 282.706 267.682 282.319 269.752C281.931 271.821 285.062 272.601 288.947 273.916C292.831 275.231 294.642 276.179 294.642 276.179C294.642 276.179 290.992 278.112 292.694 281.681C292.694 281.681 289.758 286.233 293.61 288.416C293.61 288.416 291.611 290.204 294.827 292.789C294.827 292.789 301.511 296.07 304.977 297.92C305.417 298.155 315.083 289.461 315.764 288.845L313.697 283.139Z" fill="#FFBF9D"/>
<path d="M309.616 289.018C309.645 288.918 308.455 289.26 307.015 288.199C306.342 287.674 305.62 286.812 305.326 285.671C305.197 285.104 305.075 284.422 305.087 283.792C305.113 283.134 305.243 282.43 305.471 281.747L305.595 281.375H305.2C303.136 281.375 300.817 281.434 298.551 280.765C297.492 280.418 296.349 279.983 295.776 279.21C295.504 278.825 295.388 278.327 295.499 277.906C295.604 277.476 295.928 277.132 296.321 276.886C297.122 276.406 298.107 276.213 298.963 275.993C299.835 275.795 300.663 275.679 301.421 275.61C304.47 275.356 306.353 275.858 306.369 275.736C306.377 275.7 305.921 275.545 305.066 275.388C304.212 275.236 302.951 275.092 301.39 275.176C300.611 275.218 299.758 275.312 298.857 275.493C297.964 275.705 296.994 275.852 296.022 276.403C295.555 276.682 295.089 277.139 294.93 277.758C294.766 278.374 294.923 279.035 295.281 279.554C295.645 280.077 296.181 280.422 296.706 280.687C297.232 280.96 297.794 281.176 298.373 281.352C300.775 282.058 303.142 281.967 305.207 281.938L304.936 281.568C304.699 282.318 304.577 283.055 304.563 283.78C304.572 284.532 304.709 285.158 304.871 285.794C305.244 287.061 306.054 287.942 306.816 288.475C307.597 289.01 308.364 289.144 308.861 289.147C309.366 289.143 309.621 289.041 309.616 289.018Z" fill="#FF9A6C"/>
<path d="M304.763 283.289C304.718 283.295 304.717 283.518 304.715 283.905C304.706 284.282 304.706 284.864 304.348 285.379C304.167 285.634 303.914 285.819 303.575 285.821C303.238 285.831 302.79 285.7 302.343 285.616C301.446 285.419 300.468 285.163 299.462 284.831C295.412 283.524 292.557 281.49 292.454 281.649C292.409 281.711 293.061 282.301 294.257 283.065C295.449 283.828 297.204 284.741 299.27 285.415C300.301 285.755 301.307 286.001 302.231 286.171C302.698 286.239 303.112 286.36 303.607 286.329C304.114 286.306 304.531 285.951 304.713 285.614C305.112 284.914 305.012 284.265 304.954 283.884C304.88 283.489 304.802 283.285 304.763 283.289Z" fill="#FF9A6C"/>
<path d="M302.223 286.092C302.206 286.139 302.394 286.221 302.637 286.455C302.874 286.688 303.149 287.118 303.193 287.706C303.257 288.286 302.952 288.955 302.343 289.451C301.743 289.955 300.878 290.188 299.94 290.131C296.071 289.817 293.317 287.946 293.24 288.131C293.198 288.193 293.812 288.73 294.98 289.336C296.147 289.934 297.866 290.59 299.911 290.745C300.939 290.816 302.014 290.52 302.71 289.883C303.418 289.284 303.771 288.367 303.626 287.655C303.51 286.947 303.111 286.475 302.786 286.268C302.454 286.06 302.231 286.06 302.223 286.092Z" fill="#FF9A6C"/>
<path d="M301.526 290.167C301.455 290.265 302.167 290.596 302.907 291.412C303.264 291.822 303.503 292.439 303.386 293.122C303.327 293.452 303.172 293.77 302.909 293.968C302.646 294.171 302.273 294.246 301.857 294.243C298.337 294.112 295.569 293.088 295.516 293.267C295.444 293.399 298.156 294.716 301.856 294.857C302.328 294.861 302.869 294.772 303.278 294.444C303.69 294.118 303.889 293.639 303.946 293.208C304.07 292.334 303.684 291.546 303.229 291.12C302.291 290.274 301.547 290.13 301.526 290.167Z" fill="#FF9A6C"/>
<path d="M337.656 318.417C337.818 318.455 338.297 316.984 338.562 315.103C338.832 313.223 338.782 311.677 338.616 311.669C338.443 311.658 338.218 313.165 337.952 315.017C337.691 316.869 337.487 318.38 337.656 318.417Z" fill="#FF9A6C"/>
<path d="M347.289 328.526L303.26 319.922L275.997 296.174L265.594 305.275C265.594 305.275 287.082 336.136 299.063 338.21C308.286 339.807 342.01 347.701 342.01 347.701L347.289 328.526Z" fill="#AE7461"/>
<path d="M275.164 291.375C274.345 289.542 273.361 287.835 272.302 286.817C270.534 285.117 260.033 279.87 252.712 278.009C245.391 276.146 244.173 275.919 243.785 277.988C243.398 280.058 246.528 280.838 250.413 282.153C254.297 283.468 256.109 284.416 256.109 284.416C256.109 284.416 252.459 286.349 254.161 289.918C254.161 289.918 251.225 294.47 255.077 296.653C255.077 296.653 253.078 298.441 256.294 301.026C256.294 301.026 262.977 304.307 266.443 306.157C266.884 306.392 276.549 297.698 277.23 297.081L275.164 291.375Z" fill="#AE7461"/>
<path d="M271.083 297.255C271.111 297.154 269.921 297.497 268.481 296.436C267.808 295.911 267.086 295.049 266.793 293.907C266.663 293.341 266.542 292.659 266.553 292.028C266.579 291.371 266.709 290.667 266.937 289.984L267.061 289.612H266.666C264.602 289.612 262.282 289.671 260.017 289.002C258.958 288.654 257.815 288.22 257.242 287.447C256.969 287.061 256.854 286.565 256.965 286.143C257.07 285.713 257.394 285.369 257.787 285.122C258.588 284.643 259.573 284.45 260.429 284.23C261.301 284.032 262.129 283.916 262.887 283.847C265.936 283.592 267.819 284.095 267.834 283.973C267.842 283.937 267.386 283.782 266.532 283.625C265.678 283.473 264.416 283.328 262.856 283.412C262.077 283.455 261.224 283.549 260.322 283.73C259.429 283.942 258.46 284.089 257.488 284.64C257.021 284.919 256.555 285.375 256.395 285.995C256.232 286.611 256.388 287.272 256.747 287.791C257.111 288.313 257.647 288.659 258.171 288.924C258.698 289.196 259.26 289.413 259.839 289.59C262.24 290.295 264.607 290.205 266.673 290.175L266.401 289.805C266.165 290.554 266.043 291.292 266.029 292.017C266.038 292.769 266.175 293.395 266.337 294.03C266.709 295.297 267.52 296.179 268.282 296.711C269.062 297.246 269.83 297.381 270.327 297.384C270.833 297.38 271.088 297.278 271.083 297.255Z" fill="#6F4439"/>
<path d="M266.229 291.526C266.184 291.531 266.183 291.754 266.182 292.141C266.173 292.519 266.173 293.1 265.814 293.616C265.633 293.87 265.38 294.056 265.041 294.057C264.704 294.067 264.256 293.936 263.81 293.852C262.912 293.655 261.935 293.399 260.928 293.067C256.878 291.76 254.023 289.726 253.921 289.886C253.875 289.947 254.527 290.538 255.723 291.301C256.916 292.065 258.67 292.977 260.737 293.651C261.767 293.991 262.774 294.237 263.697 294.408C264.164 294.475 264.579 294.596 265.073 294.566C265.58 294.542 265.997 294.187 266.18 293.851C266.578 293.151 266.479 292.501 266.421 292.121C266.347 291.726 266.269 291.521 266.229 291.526Z" fill="#6F4439"/>
<path d="M263.689 294.329C263.672 294.376 263.86 294.459 264.104 294.692C264.341 294.925 264.615 295.355 264.66 295.943C264.724 296.524 264.418 297.192 263.81 297.688C263.209 298.192 262.344 298.425 261.407 298.368C257.537 298.054 254.783 296.183 254.706 296.369C254.664 296.43 255.279 296.967 256.446 297.573C257.614 298.171 259.333 298.828 261.379 298.983C262.406 299.053 263.481 298.757 264.177 298.121C264.885 297.521 265.238 296.605 265.093 295.893C264.977 295.185 264.578 294.713 264.254 294.506C263.92 294.297 263.697 294.297 263.689 294.329Z" fill="#6F4439"/>
<path d="M262.993 298.404C262.922 298.502 263.633 298.833 264.373 299.649C264.73 300.059 264.969 300.676 264.853 301.359C264.793 301.689 264.638 302.006 264.375 302.205C264.113 302.408 263.74 302.483 263.323 302.48C259.803 302.349 257.035 301.325 256.982 301.504C256.911 301.636 259.622 302.953 263.323 303.094C263.795 303.098 264.336 303.009 264.745 302.681C265.157 302.355 265.356 301.876 265.414 301.445C265.537 300.57 265.151 299.782 264.696 299.357C263.757 298.511 263.014 298.367 262.993 298.404Z" fill="#6F4439"/>
<path d="M385.611 322.066H317.486C315.018 322.066 312.85 323.7 312.173 326.07L296.295 381.668H269.375C267.558 381.668 265.861 382.577 264.856 384.089L263.707 385.82H364.633C367.963 385.82 370.893 383.628 371.83 380.438L388.02 325.277C388.491 323.673 387.286 322.066 385.611 322.066Z" fill="#455A64"/>
<path d="M318.391 322.066C318.498 322.098 314.467 336.396 309.388 353.998C304.306 371.606 300.101 385.851 299.993 385.82C299.886 385.788 303.916 371.494 308.997 353.885C314.077 336.283 318.283 322.035 318.391 322.066Z" fill="#263238"/>
<path d="M349.386 357.821C347.635 360.235 344.563 360.998 342.524 359.524C340.486 358.05 340.253 354.899 342.004 352.484C343.755 350.07 346.827 349.307 348.866 350.781C350.905 352.254 351.138 355.406 349.386 357.821Z" fill="white"/>
<path d="M99.2237 253.408C106.87 237.128 102.489 216.257 110.135 199.977L111.049 197.479C109.034 191.384 99.113 190.562 93.9849 192.326C88.8568 194.091 85.7674 198.137 84.0469 202.445C82.3263 206.753 81.7484 211.437 80.3195 215.848C76.8745 226.481 68.4668 235.774 69.3816 247.309L85.6192 251.333L89.7989 243.08L89.2405 250.843L99.2237 253.408Z" fill="#263238"/>
<path d="M99.5453 200.547C100.538 198.564 101.56 196.55 103.11 194.962C104.662 193.375 106.851 192.254 109.056 192.518C110.094 192.642 111.176 193.153 111.588 194.112C111.999 195.071 111.353 196.434 110.308 196.42L110.099 196.624C107.925 198.826 105.707 200.984 103.447 203.098C102.878 203.63 102.287 204.172 101.558 204.45C100.83 204.728 99.9228 204.684 99.3667 204.138C98.4471 203.237 98.9689 201.698 99.5453 200.547Z" fill="#455A64"/>
<path d="M105.23 196.952C113.072 191.309 122.126 189.269 131.506 191.601C136.798 192.917 138.687 194.59 142.208 196.623C145.73 198.656 148.611 201.599 150.017 205.41C151.689 209.936 152.807 214.803 152.078 219.572C151.328 224.47 150.572 229.4 148.937 234.078C147.302 238.756 144.719 243.218 140.868 246.343L128.138 245.214C121.357 243.654 114.487 242.06 108.35 238.787C102.212 235.513 96.7908 230.303 94.8152 223.643C92.0698 214.389 97.3866 202.595 105.23 196.952Z" fill="#263238"/>
<path d="M138.122 199.257L134.016 197.637L116.077 199.755C113.702 199.25 111.335 200.643 110.628 202.961L96.8955 256.18L106.858 261.146L120.867 269.362L123.84 256.862C123.84 256.862 134.975 258.694 141.106 246.729C144.155 240.78 147.202 230.387 149.421 221.803C151.419 214.077 147.647 201.83 138.122 199.257Z" fill="#FFBF9D"/>
<path d="M122.827 238.681C123.093 238.035 123.624 237.543 124.208 237.263C125.375 236.703 126.785 236.994 127.615 237.965C128.444 238.936 128.643 240.528 128.094 241.812C127.314 242.444 126.3 242.74 125.311 242.566C125.156 242.539 125.004 242.505 124.854 242.46C124.127 242.246 123.447 241.8 123.031 241.112C122.616 240.423 122.497 239.477 122.827 238.681Z" fill="#FF9A6C"/>
<path d="M142.141 231.882C141.891 232.747 140.953 233.249 140.044 233.005C139.137 232.762 138.601 231.867 138.85 231.002C139.1 230.138 140.039 229.635 140.945 229.877C141.854 230.12 142.389 231.017 142.141 231.882Z" fill="#263238"/>
<path d="M145.371 225.311C145.102 225.457 144.17 224.149 142.424 223.585C140.689 222.998 139.116 223.476 138.996 223.201C138.934 223.076 139.264 222.762 139.953 222.538C140.633 222.314 141.698 222.227 142.783 222.585C143.867 222.945 144.651 223.642 145.042 224.222C145.444 224.808 145.501 225.249 145.371 225.311Z" fill="#263238"/>
<path d="M130.293 236.144C130.317 236.042 131.462 236.208 133.293 236.556C133.753 236.655 134.204 236.704 134.377 236.426C134.587 236.138 134.558 235.599 134.511 235.011C134.444 233.798 134.374 232.527 134.3 231.195C134.048 225.779 134.019 221.382 134.237 221.375C134.456 221.366 134.839 225.751 135.092 231.167C135.143 232.499 135.194 233.769 135.24 234.984C135.244 235.545 135.346 236.212 134.901 236.805C134.672 237.098 134.267 237.232 133.956 237.217C133.641 237.21 133.39 237.133 133.165 237.075C131.367 236.594 130.267 236.244 130.293 236.144Z" fill="#263238"/>
<path d="M123.865 256.852C123.865 256.852 115.183 254.629 108.411 246.829C108.411 246.829 110.061 257.045 123.097 259.986L123.865 256.852Z" fill="#FF9A6C"/>
<path d="M141.745 215.959C142.289 215.944 142.874 217.254 143.951 218.498C144.989 219.776 146.179 220.585 146.066 221.113C146.001 221.359 145.542 221.471 144.844 221.277C144.151 221.089 143.244 220.551 142.517 219.685C141.792 218.817 141.423 217.834 141.363 217.124C141.296 216.405 141.491 215.978 141.745 215.959Z" fill="#263238"/>
<path d="M123.239 225.806C122.961 226.662 123.458 227.603 124.348 227.908C125.236 228.213 126.183 227.77 126.46 226.914C126.738 226.058 126.241 225.117 125.354 224.812C124.464 224.505 123.517 224.95 123.239 225.806Z" fill="#263238"/>
<path d="M121.598 218.249C121.74 218.52 123.244 217.957 125.008 218.464C126.776 218.945 127.811 220.222 128.065 220.06C128.187 219.991 128.089 219.546 127.643 218.976C127.205 218.41 126.371 217.744 125.271 217.435C124.17 217.128 123.13 217.268 122.481 217.53C121.819 217.791 121.525 218.125 121.598 218.249Z" fill="#263238"/>
<path d="M131.589 212.941C131.236 212.519 129.811 212.921 128.11 212.907C126.407 212.946 124.972 212.565 124.632 212.993C124.482 213.201 124.7 213.622 125.322 214.029C125.934 214.434 126.965 214.776 128.136 214.768C129.306 214.759 130.327 214.403 130.928 213.988C131.538 213.572 131.744 213.148 131.589 212.941Z" fill="#263238"/>
<path d="M107.082 225.068C107.387 224.128 107.024 221.557 106.141 221.11C103.786 219.914 99.2464 218.656 97.1468 224.936C94.2774 233.521 103.503 234.627 103.6 234.385C103.677 234.196 106.03 228.315 107.082 225.068Z" fill="#FFBF9D"/>
<path d="M102.275 230.458C102.247 230.419 102.091 230.514 101.799 230.545C101.514 230.575 101.063 230.512 100.671 230.194C99.874 229.559 99.5901 227.865 100.066 226.303C100.305 225.514 100.717 224.825 101.201 224.301C101.673 223.761 102.226 223.458 102.711 223.529C103.201 223.575 103.434 223.956 103.459 224.233C103.494 224.512 103.381 224.665 103.422 224.695C103.438 224.724 103.654 224.613 103.704 224.235C103.725 224.052 103.692 223.816 103.544 223.584C103.394 223.348 103.119 223.161 102.789 223.09C102.111 222.914 101.311 223.325 100.78 223.9C100.213 224.466 99.7298 225.234 99.4615 226.119C98.9381 227.868 99.2844 229.782 100.408 230.555C100.96 230.913 101.525 230.9 101.854 230.784C102.191 230.661 102.3 230.484 102.275 230.458Z" fill="#FF9A6C"/>
<path d="M105.777 221.039L107.384 223.931C119.425 217.319 144.301 199.359 142.889 200.448C142.889 200.448 137.039 196 129.583 195.314C122.126 194.628 107.646 194.59 105.61 203.044C103.575 211.498 105.777 221.039 105.777 221.039Z" fill="#263238"/>
<path d="M96.24 227.356C96.2026 227.371 96.0263 227.047 95.7424 226.444C95.4617 225.841 95.0631 224.96 94.6755 223.825C94.2824 222.698 93.947 221.267 93.8994 219.675C93.8323 218.085 93.9361 216.342 94.1755 214.531C94.5975 210.849 96.1823 207.817 97.4115 205.793C98.0417 204.775 98.6235 203.999 99.0486 203.484C99.4729 202.967 99.7388 202.708 99.7677 202.731C99.8465 202.792 98.9261 203.945 97.7695 206.004C96.6448 208.061 95.1637 211.038 94.7574 214.609C94.2699 218.179 94.3073 221.462 95.0725 223.701C95.7596 225.953 96.3375 227.32 96.24 227.356Z" fill="#455A64"/>
<path d="M128.677 242.065C128.577 242.145 127.659 240.485 125.665 239.487C123.69 238.448 121.805 238.667 121.812 238.54C121.805 238.495 122.259 238.369 123.014 238.384C123.766 238.396 124.818 238.598 125.851 239.126C126.882 239.658 127.658 240.394 128.106 240.998C128.557 241.603 128.718 242.045 128.677 242.065Z" fill="#263238"/>
<path d="M122.412 229.209C122.383 229.314 121.942 229.254 121.606 228.862C121.268 228.472 121.274 228.028 121.382 228.015C121.495 227.992 121.65 228.299 121.913 228.597C122.17 228.903 122.451 229.101 122.412 229.209Z" fill="white"/>
<path d="M140.126 236.21C140.13 236.321 139.802 236.401 139.478 236.198C139.152 235.994 139.082 235.665 139.184 235.621C139.285 235.568 139.468 235.718 139.694 235.854C139.914 235.997 140.129 236.095 140.126 236.21Z" fill="white"/>
<path d="M203.101 342.981L216.908 372.479C216.908 372.479 242.405 381.329 242.691 385.777L193.401 385.94L193.338 373.475L181.716 351.396L203.101 342.981Z" fill="#263238"/>
<path d="M201.668 370.512C200.714 370.762 200.054 371.777 200.275 372.687C200.496 373.598 201.581 374.236 202.54 374.002C203.498 373.769 204.33 372.572 204.001 371.691C203.674 370.811 202.356 370.127 201.484 370.571" fill="#E0E0E0"/>
<path d="M193.401 385.94L193.538 382.165L240.746 383.421C240.746 383.421 242.94 384.316 242.692 385.777L193.401 385.94Z" fill="#455A64"/>
<path d="M217.707 372.24C217.699 372.467 216.495 372.575 215.311 373.31C214.106 374.016 213.495 375.003 213.274 374.914C213.052 374.87 213.411 373.509 214.862 372.643C216.304 371.764 217.76 372.03 217.707 372.24Z" fill="white"/>
<path d="M222.877 374.244C222.931 374.464 221.889 374.854 221.071 375.819C220.223 376.761 220.017 377.802 219.777 377.793C219.551 377.83 219.385 376.498 220.426 375.317C221.456 374.127 222.872 374.027 222.877 374.244Z" fill="white"/>
<path d="M225.81 380.082C225.592 380.131 225.257 378.995 225.876 377.748C226.485 376.496 227.62 376.001 227.722 376.19C227.858 376.377 227.127 377.047 226.635 378.079C226.119 379.098 226.05 380.058 225.81 380.082Z" fill="white"/>
<path d="M214.866 367.941C214.866 368.173 213.736 368.37 212.55 369.042C211.35 369.691 210.585 370.541 210.388 370.42C210.191 370.332 210.756 369.123 212.164 368.351C213.565 367.568 214.895 367.729 214.866 367.941Z" fill="white"/>
<g opacity="0.3">
<path d="M242.692 385.777C242.875 384.7 241.734 383.934 241.12 383.604C238.441 381.371 232.773 378.723 227.585 376.57C227.706 376.387 227.77 376.256 227.722 376.19C227.676 376.104 227.416 376.166 227.093 376.366C225.489 375.705 223.949 375.098 222.568 374.567C222.771 374.425 222.896 374.322 222.876 374.243C222.874 374.124 222.443 374.109 221.89 374.307C219.433 373.372 217.616 372.728 217.084 372.541C217.455 372.421 217.704 372.341 217.707 372.239C217.735 372.127 217.317 372.003 216.705 372.046L214.82 368.019C214.847 367.993 214.866 367.968 214.866 367.941C214.872 367.901 214.816 367.866 214.734 367.835L203.101 342.98L181.716 351.396L193.338 373.475L193.401 385.939L242.692 385.777Z" fill="black"/>
</g>
<path d="M194.072 342.981L207.879 372.479C207.879 372.479 233.376 381.329 233.663 385.777L184.373 385.94L184.31 373.475L172.688 351.396L194.072 342.981Z" fill="#263238"/>
<path d="M192.638 370.512C191.684 370.762 191.024 371.777 191.246 372.687C191.466 373.598 192.551 374.236 193.51 374.002C194.468 373.769 195.3 372.572 194.971 371.691C194.644 370.811 193.327 370.127 192.455 370.571" fill="#E0E0E0"/>
<path d="M184.373 385.94L184.51 382.165L231.717 383.421C231.717 383.421 233.911 384.316 233.663 385.777L184.373 385.94Z" fill="#455A64"/>
<path d="M208.678 372.24C208.671 372.467 207.466 372.575 206.283 373.31C205.077 374.016 204.467 375.003 204.245 374.914C204.024 374.87 204.383 373.509 205.834 372.643C207.275 371.764 208.731 372.03 208.678 372.24Z" fill="white"/>
<path d="M213.847 374.244C213.901 374.465 212.859 374.855 212.041 375.82C211.193 376.762 210.987 377.803 210.747 377.793C210.521 377.83 210.355 376.499 211.396 375.317C212.426 374.127 213.842 374.027 213.847 374.244Z" fill="white"/>
<path d="M216.781 380.082C216.563 380.131 216.228 378.995 216.847 377.748C217.456 376.496 218.591 376.001 218.693 376.19C218.829 376.377 218.098 377.047 217.607 378.079C217.089 379.098 217.02 380.058 216.781 380.082Z" fill="white"/>
<path d="M205.838 367.941C205.837 368.173 204.707 368.37 203.521 369.042C202.322 369.691 201.557 370.541 201.359 370.42C201.163 370.332 201.727 369.123 203.135 368.351C204.536 367.568 205.866 367.729 205.838 367.941Z" fill="white"/>
<path d="M97.2355 253.453C97.2355 253.453 84.223 257.529 76.4329 271.386C65.9107 290.102 52.7905 319.392 51.8491 346.894C50.9015 374.555 52.5558 368.993 52.5558 368.993L99.3624 360.342C99.3624 360.342 121.532 300.212 122.272 299.106C123.01 297.999 129.662 271.988 129.662 271.988L97.2355 253.453Z" fill="#FF725E"/>
<path d="M74.2085 367.261C74.2085 367.261 81.9307 391.824 118.772 387.947C118.772 387.947 134.544 388.182 143.576 373.393C152.608 358.605 164.169 324.339 164.169 324.339L193.344 368.164L212.017 357.501C212.017 357.501 198.586 327.149 187.386 305.867C176.186 284.586 172.84 272.037 159.111 273.48C145.381 274.922 120.453 319.544 120.453 319.544L90.4664 361.129L74.2085 367.261Z" fill="#263238"/>
<path d="M57.6089 368.09C57.6089 368.09 65.5066 393.21 103.185 389.246C103.185 389.246 119.315 389.486 128.552 374.361C137.79 359.236 149.614 324.191 149.614 324.191L181.209 373.826L207.236 360.587C207.236 360.587 185.455 321.24 174 299.475C162.546 277.71 158.481 270.701 144.441 272.177C130.399 273.652 104.905 319.287 104.905 319.287L74.2365 361.819L57.6089 368.09Z" fill="#263238"/>
<path d="M180.332 310.599C180.332 310.599 180.383 310.673 180.471 310.827C180.563 310.991 180.69 311.217 180.856 311.512C181.196 312.131 181.689 313.028 182.33 314.194C183.616 316.558 185.488 320.001 187.863 324.368C192.605 333.143 199.352 345.625 207.394 360.503L207.481 360.664L207.317 360.747C199.369 364.797 190.576 369.278 181.299 374.004L181.138 374.086L181.04 373.933C177.471 368.353 173.767 362.562 169.978 356.638C162.952 345.639 156.22 335.102 150.08 325.49L150.421 325.45C147.138 335.067 143.999 343.974 140.579 351.684C137.187 359.405 133.527 365.906 130.04 370.981C126.559 376.065 123.276 379.714 120.926 382.088C118.562 384.458 117.154 385.592 117.154 385.592C117.154 385.592 117.23 385.508 117.39 385.356C117.561 385.195 117.799 384.973 118.108 384.681C118.749 384.095 119.673 383.2 120.836 382.002C123.155 379.604 126.401 375.94 129.846 370.85C133.297 365.769 136.921 359.271 140.284 351.556C143.676 343.85 146.791 334.949 150.06 325.328L150.187 324.953L150.4 325.286C156.547 334.895 163.286 345.426 170.32 356.421C174.107 362.347 177.808 368.138 181.376 373.721L181.118 373.651C190.4 368.937 199.2 364.469 207.154 360.43L207.077 360.674C199.088 345.767 192.386 333.262 187.675 324.47C185.338 320.083 183.496 316.624 182.231 314.248C181.611 313.071 181.134 312.166 180.805 311.541C180.65 311.241 180.531 311.009 180.445 310.842C180.366 310.682 180.332 310.599 180.332 310.599Z" fill="#455A64"/>
<g opacity="0.3">
<path d="M175.809 312.52C175.249 311.465 173.928 311.124 172.758 310.88C164.298 309.112 155.948 306.821 147.772 304.02C140.96 301.688 134.229 298.983 128.116 295.182C122.754 291.848 117.705 287.604 111.533 286.261L99.0781 294.343C102.361 294.445 108.14 297.138 111.269 298.138C114.225 299.083 116.872 300.781 119.501 302.432C133.125 310.988 148.009 318.934 164.101 319.236C167.821 319.307 171.849 318.836 174.59 316.323C175.648 315.352 176.483 313.787 175.809 312.52Z" fill="black"/>
</g>
<path d="M141.392 281.227L162.429 290.252L167.622 287.092L182.465 294.496C182.465 294.496 185.396 304.791 180.331 310.598C174.89 316.838 157.811 312.488 157.811 312.488L129.408 301.597L141.392 281.227Z" fill="#FFBF9D"/>
<path d="M99.0789 294.344C99.7902 294.107 107.788 290.253 107.788 290.253C107.788 290.253 120.797 298.528 132.89 303.5C144.983 308.471 148.175 309.531 148.175 309.531L158.292 285.048L125.244 265.373C125.244 265.373 104.928 251.004 97.2351 253.453C89.5426 255.901 83.4528 269.471 88.811 280.702C94.1684 291.935 99.0789 294.344 99.0789 294.344Z" fill="#FF725E"/>
<path d="M99.0789 294.343C99.0703 294.322 99.2871 294.208 99.695 294.015C100.172 293.798 100.759 293.533 101.459 293.215C102.972 292.545 105.113 291.62 107.608 290.561L107.686 290.528L107.766 290.565C108.892 291.095 110.104 291.696 111.344 292.352C114.606 294.073 117.431 295.86 119.417 297.23C120.413 297.913 121.197 298.494 121.735 298.902C122.268 299.316 122.554 299.556 122.538 299.578C122.522 299.601 122.203 299.405 121.643 299.031C121.013 298.618 120.213 298.094 119.258 297.468C117.237 296.163 114.402 294.424 111.155 292.71C109.92 292.056 108.716 291.452 107.6 290.914L107.758 290.918C105.254 291.953 103.093 292.83 101.554 293.439C100.835 293.715 100.234 293.947 99.7457 294.135C99.3214 294.29 99.0874 294.364 99.0789 294.343Z" fill="#263238"/>
<path d="M90.0269 287.596C90.0012 287.606 89.8288 287.223 89.5379 286.52C89.3873 286.171 89.2165 285.737 89.0582 285.22C88.8952 284.704 88.6815 284.125 88.531 283.46C88.3578 282.801 88.1761 282.077 88.0482 281.285C87.8813 280.5 87.7947 279.648 87.6863 278.752C87.5272 276.957 87.4882 274.969 87.666 272.893C87.8657 270.819 88.2634 268.87 88.7439 267.133C89.013 266.272 89.2516 265.449 89.5574 264.706C89.8264 263.951 90.1361 263.271 90.4254 262.654C90.6937 262.027 91.0088 261.495 91.2615 261.018C91.5103 260.537 91.7568 260.142 91.9682 259.825C92.3808 259.186 92.6194 258.84 92.6428 258.855C92.6662 258.871 92.4728 259.245 92.1039 259.905C91.9144 260.233 91.6897 260.636 91.462 261.124C91.2296 261.608 90.9347 262.144 90.6867 262.772C90.4169 263.391 90.1259 264.07 89.8732 264.822C89.5839 265.561 89.36 266.38 89.1042 267.233C88.6487 268.956 88.2673 270.882 88.07 272.93C87.8945 274.979 87.9218 276.943 88.0583 278.719C88.1558 279.604 88.2283 280.449 88.3797 281.228C88.4927 282.013 88.6558 282.734 88.8094 283.391C88.9404 284.054 89.1331 284.633 89.2742 285.152C89.41 285.672 89.5581 286.11 89.6853 286.466C89.9294 287.182 90.0526 287.585 90.0269 287.596Z" fill="#263238"/>
<path d="M167.46 298.479C167.354 298.53 166.357 296.623 164.999 294.35C163.646 292.072 162.441 290.289 162.537 290.22C162.622 290.156 163.983 291.845 165.347 294.142C166.718 296.434 167.557 298.435 167.46 298.479Z" fill="#FF9A6C"/>
<path d="M129.409 276.22C129.409 276.22 139.013 269.598 140.91 269.361C142.806 269.125 157.333 266.331 159.23 266.805C161.126 267.278 181.992 272.96 186.971 281.009C191.951 289.057 190.528 293.319 184.6 295.449C178.673 297.58 174.346 295.644 170.848 293.082C167.35 290.52 159.269 279.929 159.269 279.929C159.269 279.929 142.55 290.645 141.392 290.995C138.503 291.868 137.849 289.801 137.849 289.801C137.849 289.801 132.131 294.502 129.381 294.09C126.926 293.723 127.456 291.189 127.456 291.189C127.456 291.189 124.905 293.291 123.188 291.899C121.47 290.508 123.428 287.719 123.428 287.719C123.428 287.719 121.616 288.154 121.587 285.696C121.548 282.264 129.409 276.22 129.409 276.22Z" fill="#FFBF9D"/>
<path d="M145.518 283.933C145.587 284.022 143.796 285.508 141.517 287.253C139.239 288.998 137.337 290.341 137.269 290.252C137.201 290.163 138.992 288.677 141.27 286.931C143.548 285.187 145.45 283.844 145.518 283.933Z" fill="#FF9A6C"/>
<path d="M139.703 281.226C139.74 281.269 139.086 281.871 137.998 282.811C136.91 283.75 135.389 285.027 133.693 286.418C131.997 287.809 130.447 289.051 129.312 289.934C128.177 290.817 127.459 291.34 127.425 291.296C127.39 291.253 128.046 290.649 129.133 289.71C130.221 288.77 131.74 287.495 133.435 286.105C135.129 284.715 136.678 283.474 137.812 282.591C138.946 281.708 139.667 281.184 139.703 281.226Z" fill="#FF9A6C"/>
<path d="M135.607 278.535C135.638 278.585 134.919 279.089 133.761 279.908C132.604 280.726 131.015 281.869 129.305 283.189C127.595 284.511 126.088 285.76 125.004 286.674C123.92 287.587 123.251 288.156 123.21 288.114C123.173 288.075 123.775 287.431 124.814 286.46C125.852 285.488 127.338 284.198 129.056 282.868C130.775 281.541 132.399 280.429 133.601 279.67C134.804 278.91 135.579 278.49 135.607 278.535Z" fill="#FF9A6C"/>
<path d="M183.359 295.942C183.362 295.955 183.26 295.991 183.062 296.045C182.864 296.104 182.568 296.168 182.184 296.242C181.416 296.381 180.283 296.512 178.88 296.451C177.481 296.392 175.807 296.126 174.064 295.472C173.178 295.154 172.339 294.56 171.582 293.918C170.8 293.281 170.041 292.571 169.272 291.837C166.228 288.864 163.71 285.955 161.941 283.808C161.063 282.729 160.373 281.838 159.93 281.197C159.702 280.881 159.541 280.624 159.438 280.446C159.333 280.269 159.284 280.174 159.296 280.166C159.327 280.146 159.568 280.501 160.057 281.103C160.536 281.711 161.258 282.572 162.162 283.624C163.981 285.716 166.529 288.589 169.555 291.545C170.32 292.273 171.072 292.98 171.836 293.61C172.599 294.258 173.355 294.806 174.198 295.122C175.894 295.779 177.526 296.069 178.899 296.164C181.658 296.346 183.349 295.852 183.359 295.942Z" fill="#FF9A6C"/>
<path d="M263.113 261.244L257.405 255.773C252.861 255.969 248.208 254.953 243.945 252.578C231.685 245.746 227.292 230.286 234.135 218.046C240.977 205.806 256.463 201.42 268.723 208.252C280.983 215.083 285.375 230.544 278.533 242.784C275.676 247.895 271.309 251.63 266.302 253.757L266.316 253.754L263.113 261.244Z" fill="white"/>
<path d="M263.113 261.245C263.113 261.245 263.184 261.093 263.324 260.778C263.467 260.451 263.674 259.98 263.946 259.361C264.501 258.087 265.316 256.216 266.376 253.782L266.422 253.677L266.307 253.692L266.293 253.693L266.327 253.818C269.333 252.548 273.112 250.269 276.301 246.288C277.096 245.301 277.842 244.208 278.519 243.022C279.136 241.805 279.827 240.563 280.288 239.175C281.301 236.444 281.906 233.355 281.865 230.096C281.828 226.843 281.146 223.429 279.717 220.175C278.296 216.922 276.123 213.836 273.274 211.305C270.442 208.755 266.887 206.851 263.013 205.794C259.14 204.744 254.908 204.558 250.825 205.508C250.314 205.63 249.799 205.74 249.292 205.871C248.795 206.038 248.299 206.204 247.805 206.37L247.064 206.618L246.35 206.932C245.876 207.143 245.403 207.354 244.931 207.564C244.468 207.791 244.03 208.065 243.58 208.312C243.138 208.573 242.672 208.794 242.265 209.107C241.436 209.701 240.571 210.245 239.832 210.938C236.745 213.547 234.37 216.821 232.843 220.328C231.339 223.852 230.692 227.589 230.808 231.152C230.918 234.721 231.778 238.111 233.15 241.074C234.519 244.045 236.398 246.586 238.492 248.624C239.518 249.673 240.666 250.513 241.759 251.338C242.925 252.055 244.022 252.799 245.179 253.33C249.777 255.551 254.166 255.993 257.407 255.837L257.36 255.819C259.231 257.589 260.671 258.95 261.65 259.877C262.128 260.326 262.492 260.669 262.745 260.906C262.99 261.136 263.113 261.245 263.113 261.245C263.113 261.245 262.985 261.114 262.74 260.874C262.489 260.628 262.127 260.275 261.652 259.811C260.692 258.878 259.282 257.508 257.449 255.727L257.43 255.709L257.402 255.709C254.175 255.838 249.819 255.374 245.267 253.15C244.121 252.619 243.036 251.876 241.882 251.161C240.802 250.34 239.667 249.503 238.654 248.461C236.584 246.434 234.732 243.913 233.383 240.968C232.032 238.031 231.188 234.675 231.086 231.145C230.978 227.62 231.622 223.926 233.113 220.446C234.627 216.979 236.977 213.747 240.028 211.171C240.758 210.486 241.613 209.951 242.432 209.363C242.833 209.053 243.295 208.836 243.731 208.578C244.176 208.334 244.609 208.063 245.067 207.84C245.533 207.632 246.001 207.424 246.469 207.215L247.174 206.905L247.907 206.66C248.396 206.496 248.886 206.332 249.376 206.167C249.878 206.038 250.385 205.93 250.891 205.809C254.925 204.869 259.106 205.054 262.933 206.088C266.76 207.13 270.277 209.01 273.079 211.527C275.897 214.026 278.05 217.073 279.462 220.288C280.88 223.504 281.563 226.881 281.606 230.101C281.655 233.326 281.064 236.387 280.069 239.096C279.618 240.473 278.938 241.707 278.33 242.915C277.662 244.094 276.927 245.18 276.141 246.164C272.996 250.126 269.257 252.411 266.275 253.698L265.838 253.887L266.309 253.823L266.324 253.822L266.255 253.732C265.235 256.162 264.45 258.03 263.917 259.3C263.654 259.931 263.453 260.412 263.315 260.745C263.18 261.07 263.113 261.245 263.113 261.245Z" fill="#263238"/>
<path d="M254.547 232.44L258.054 228.867C258.315 228.6 258.393 228.203 258.249 227.859L256.532 223.731C256.489 223.806 256.437 223.877 256.395 223.953C255.895 223.084 255.208 222.322 254.384 221.748C252.859 220.686 250.888 220.286 249.068 220.667C246.226 221.264 243.89 223.669 242.837 226.152C242.692 226.497 242.581 226.855 242.504 227.222C241.997 229.653 242.355 232.482 243.644 234.657C244.847 236.688 246.803 238.335 248.818 239.567C251.174 241.007 254.044 242.697 255.573 243.593C256.109 243.907 256.791 243.616 256.943 243.015L258.219 237.962C258.301 237.641 258.204 237.301 257.966 237.069L254.561 233.757C254.193 233.398 254.186 232.808 254.547 232.44Z" fill="#FF725E"/>
<path d="M271.496 225.932C270.494 223.412 268.176 220.937 265.319 220.294C263.505 219.886 261.529 220.259 259.989 221.299C259.145 221.869 258.448 222.64 257.933 223.517L259.984 227.898C260.125 228.2 260.062 228.556 259.826 228.791L255.992 232.608C255.78 232.848 255.789 233.211 256.014 233.439L259.658 236.936C259.851 237.122 259.926 237.398 259.853 237.655L258.042 244.002C258.054 244.008 258.072 244.019 258.072 244.019C258.072 244.019 261.88 241.218 265.298 239.195C267.331 237.992 269.31 236.373 270.542 234.36C271.875 232.183 272.269 229.328 271.776 226.874C271.71 226.553 271.618 226.237 271.496 225.932Z" fill="#FF725E"/>
<path d="M348.583 298.753L343.766 292.863C339.403 292.523 335.076 291.013 331.28 288.249C320.362 280.301 317.966 265.021 325.927 254.122C333.888 243.222 349.192 240.83 360.109 248.778C371.027 256.726 373.424 272.006 365.462 282.905C362.138 287.456 357.532 290.518 352.5 291.97H352.514L348.583 298.753Z" fill="white"/>
<path d="M348.583 298.753C348.583 298.753 348.669 298.616 348.839 298.331C349.015 298.035 349.267 297.609 349.599 297.049C350.277 295.897 351.273 294.204 352.57 292.002L352.626 291.907L352.514 291.907H352.5L352.518 292.03C355.537 291.166 359.413 289.426 362.922 285.994C363.797 285.143 364.637 284.186 365.422 283.131C366.154 282.041 366.957 280.934 367.559 279.661C368.844 277.17 369.782 274.288 370.121 271.171C370.465 268.059 370.21 264.718 369.225 261.443C368.245 258.171 366.528 254.972 364.101 252.222C361.692 249.458 358.517 247.226 354.941 245.768C351.363 244.316 347.341 243.646 343.33 244.08C342.827 244.137 342.323 244.183 341.824 244.249C341.33 244.351 340.837 244.452 340.345 244.553L339.608 244.706L338.889 244.923C338.412 245.07 337.936 245.217 337.461 245.362C336.992 245.525 336.541 245.736 336.082 245.92C335.63 246.119 335.159 246.275 334.735 246.526C333.872 246.998 332.984 247.417 332.197 247.993C328.944 250.128 326.294 252.979 324.427 256.153C322.58 259.344 321.527 262.84 321.223 266.258C320.913 269.679 321.339 273.018 322.305 276.008C323.267 279.006 324.766 281.651 326.531 283.841C327.388 284.962 328.387 285.898 329.335 286.812C330.366 287.633 331.328 288.471 332.372 289.112C336.505 291.768 340.647 292.698 343.762 292.926L343.718 292.903C345.3 294.811 346.517 296.278 347.345 297.277C347.749 297.761 348.057 298.131 348.271 298.387C348.479 298.636 348.583 298.753 348.583 298.753C348.583 298.753 348.477 298.613 348.271 298.355C348.059 298.091 347.755 297.712 347.355 297.213C346.547 296.211 345.359 294.739 343.815 292.825L343.798 292.804L343.771 292.802C340.673 292.551 336.567 291.602 332.477 288.949C331.443 288.308 330.493 287.473 329.474 286.656C328.537 285.746 327.551 284.815 326.704 283.702C324.964 281.525 323.487 278.902 322.541 275.933C321.593 272.97 321.177 269.666 321.49 266.282C321.797 262.902 322.843 259.448 324.671 256.295C326.52 253.16 329.143 250.344 332.357 248.237C333.134 247.667 334.013 247.255 334.864 246.789C335.283 246.539 335.749 246.386 336.196 246.19C336.65 246.008 337.095 245.8 337.558 245.639C338.028 245.495 338.499 245.35 338.971 245.206L339.68 244.991L340.408 244.842C340.894 244.742 341.381 244.642 341.869 244.541C342.363 244.476 342.86 244.432 343.358 244.375C347.321 243.945 351.294 244.606 354.83 246.039C358.365 247.478 361.505 249.681 363.889 252.411C366.291 255.125 367.993 258.287 368.967 261.52C369.948 264.757 370.207 268.064 369.874 271.145C369.545 274.231 368.625 277.087 367.359 279.56C366.767 280.823 365.974 281.922 365.253 283.006C364.479 284.055 363.649 285.008 362.785 285.856C359.318 289.275 355.48 291.025 352.482 291.909L352.042 292.039L352.5 292.033H352.514L352.459 291.938C351.202 294.142 350.235 295.835 349.577 296.987C349.253 297.559 349.005 297.995 348.834 298.298C348.668 298.594 348.583 298.753 348.583 298.753Z" fill="#263238"/>
<path d="M355.301 262.412L351.844 259.132L337.125 274.599L340.583 277.878L355.301 262.412Z" fill="#FF725E"/>
<path d="M340.131 259.419L336.846 262.871L352.338 277.565L355.623 274.113L340.131 259.419Z" fill="#FF725E"/>
<path d="M148.557 173.382L150.41 165.702C147.948 161.884 146.48 157.359 146.384 152.486C146.109 138.472 157.265 126.888 171.303 126.612C185.34 126.337 196.943 137.475 197.219 151.49C197.495 165.504 186.338 177.089 172.301 177.364C166.44 177.48 161.007 175.599 156.641 172.355L156.651 172.367L148.557 173.382Z" fill="white"/>
<path d="M148.557 173.382C148.557 173.382 148.725 173.368 149.068 173.329C149.423 173.287 149.935 173.228 150.607 173.15C151.988 172.986 154.017 172.745 156.658 172.432L156.772 172.418L156.702 172.327L156.693 172.316L156.602 172.408C159.216 174.359 163.094 176.467 168.144 177.208C169.4 177.396 170.721 177.488 172.089 177.474C173.452 177.393 174.875 177.361 176.307 177.058C179.18 176.553 182.158 175.517 184.955 173.838C187.75 172.166 190.359 169.855 192.453 166.982C194.549 164.116 196.122 160.686 196.874 156.953C197.65 153.226 197.505 149.201 196.465 145.328C195.419 141.461 193.446 137.717 190.565 134.677C190.201 134.297 189.846 133.909 189.477 133.538C189.083 133.194 188.689 132.851 188.297 132.508L187.708 131.995L187.077 131.538C186.655 131.236 186.234 130.935 185.814 130.634C185.384 130.349 184.926 130.109 184.486 129.846C184.037 129.598 183.611 129.306 183.136 129.114C182.202 128.698 181.297 128.228 180.325 127.94C176.511 126.595 172.482 126.198 168.678 126.651C164.873 127.131 161.313 128.459 158.289 130.356C155.258 132.25 152.76 134.701 150.888 137.379C149.01 140.058 147.76 142.959 147.053 145.793C146.663 147.206 146.515 148.62 146.354 149.978C146.322 151.345 146.232 152.666 146.357 153.931C146.755 159.016 148.586 163.021 150.356 165.737L150.347 165.688C149.76 168.193 149.309 170.12 149.002 171.433C148.854 172.071 148.741 172.558 148.663 172.896C148.589 173.222 148.557 173.382 148.557 173.382C148.557 173.382 148.606 173.207 148.69 172.875C148.776 172.534 148.899 172.044 149.061 171.401C149.384 170.103 149.857 168.196 150.473 165.718L150.479 165.691L150.464 165.668C148.725 162.951 146.93 158.962 146.557 153.916C146.439 152.66 146.534 151.35 146.57 149.994C146.735 148.649 146.886 147.249 147.277 145.849C147.987 143.044 149.232 140.174 151.099 137.527C152.958 134.881 155.435 132.461 158.437 130.592C161.431 128.721 164.951 127.413 168.713 126.942C172.475 126.498 176.455 126.895 180.223 128.226C181.183 128.51 182.077 128.976 183 129.387C183.47 129.576 183.89 129.865 184.334 130.11C184.769 130.371 185.221 130.607 185.646 130.889C186.061 131.187 186.477 131.484 186.893 131.783L187.517 132.234L188.098 132.742C188.487 133.081 188.876 133.42 189.266 133.76C189.63 134.126 189.98 134.509 190.34 134.885C193.188 137.888 195.137 141.586 196.172 145.407C197.202 149.232 197.35 153.211 196.586 156.896C195.846 160.586 194.296 163.98 192.228 166.818C190.161 169.663 187.585 171.955 184.822 173.618C182.057 175.286 179.112 176.32 176.267 176.83C174.848 177.135 173.439 177.171 172.087 177.256C170.731 177.276 169.42 177.189 168.174 177.009C163.161 176.295 159.298 174.224 156.681 172.304L156.297 172.022L156.59 172.397L156.599 172.407L156.643 172.302C154.026 172.649 152.015 172.914 150.647 173.095C149.969 173.187 149.452 173.256 149.094 173.305C148.742 173.353 148.557 173.382 148.557 173.382Z" fill="#263238"/>
<path d="M167.798 151.157C167.798 152.695 166.549 153.943 165.007 153.943C163.466 153.943 162.217 152.695 162.217 151.157C162.217 149.618 163.466 148.371 165.007 148.371C166.549 148.371 167.798 149.618 167.798 151.157Z" fill="#FF725E"/>
<path d="M181.913 151.157C181.913 152.695 180.664 153.943 179.123 153.943C177.581 153.943 176.332 152.695 176.332 151.157C176.332 149.618 177.581 148.371 179.123 148.371C180.664 148.371 181.913 149.618 181.913 151.157Z" fill="#FF725E"/>
<path d="M179.123 160.334C178.948 160.417 178.472 159.503 177.34 158.401C176.779 157.85 176.036 157.277 175.134 156.814C174.225 156.364 173.155 156.046 172.005 156.087C170.829 156.101 169.744 156.381 168.828 156.811C167.915 157.252 167.161 157.813 166.571 158.345C165.391 159.415 164.757 160.236 164.602 160.129C164.48 160.051 164.848 159.06 165.956 157.743C166.511 157.089 167.291 156.382 168.318 155.812C169.345 155.253 170.633 154.884 171.981 154.869C173.362 154.821 174.659 155.249 175.668 155.826C176.679 156.419 177.449 157.142 177.981 157.824C179.055 159.203 179.256 160.289 179.123 160.334Z" fill="#FF725E"/>
<path d="M164.285 144.073C164.436 144.124 164.444 144.618 164.176 145.347C163.911 146.072 163.331 147.009 162.438 147.8C161.543 148.59 160.54 149.052 159.788 149.225C159.031 149.404 158.541 149.335 158.508 149.179C158.439 148.835 160.098 148.275 161.631 146.89C163.192 145.539 163.952 143.962 164.285 144.073Z" fill="#FF725E"/>
<path d="M185.152 147.541C185.17 147.696 184.681 147.925 183.828 147.963C182.983 148.005 181.783 147.796 180.627 147.179C179.473 146.557 178.638 145.673 178.206 144.946C177.767 144.214 177.688 143.681 177.828 143.611C178.14 143.449 179.196 145.063 181.204 146.107C183.183 147.203 185.115 147.192 185.152 147.541Z" fill="#FF725E"/>
</svg>
