<svg width="104" height="20" viewBox="0 0 104 20" fill="none" xmlns="http://www.w3.org/2000/svg">
<path d="M0.647727 5.36364V1.54545H15.8182V5.36364H10.5682V19H5.89773V5.36364H0.647727ZM22.044 19.2386C20.6463 19.2386 19.4418 18.9716 18.4304 18.4375C17.4247 17.8977 16.6491 17.125 16.1037 16.1193C15.5639 15.108 15.294 13.8977 15.294 12.4886C15.294 11.1364 15.5668 9.95455 16.1122 8.94318C16.6577 7.93182 17.4276 7.14489 18.4219 6.58239C19.4162 6.01989 20.5895 5.73864 21.9418 5.73864C22.9304 5.73864 23.8253 5.89205 24.6264 6.19886C25.4276 6.50568 26.1122 6.9517 26.6804 7.53693C27.2486 8.11648 27.6861 8.82102 27.9929 9.65057C28.2997 10.4801 28.4531 11.4148 28.4531 12.4545V13.5455H16.7599V10.9545H24.1236C24.1179 10.5795 24.0213 10.25 23.8338 9.96591C23.652 9.67614 23.4048 9.4517 23.0923 9.29261C22.7855 9.12784 22.4361 9.04545 22.044 9.04545C21.6634 9.04545 21.3139 9.12784 20.9957 9.29261C20.6776 9.4517 20.4219 9.6733 20.2287 9.95739C20.0412 10.2415 19.9418 10.5739 19.9304 10.9545V13.75C19.9304 14.1705 20.0185 14.5455 20.1946 14.875C20.3707 15.2045 20.6236 15.4631 20.9531 15.6506C21.2827 15.8381 21.6804 15.9318 22.1463 15.9318C22.4702 15.9318 22.7656 15.8864 23.0327 15.7955C23.3054 15.7045 23.5384 15.5739 23.7315 15.4034C23.9247 15.2273 24.0668 15.017 24.1577 14.7727H28.4531C28.3054 15.6818 27.956 16.4716 27.4048 17.142C26.8537 17.8068 26.1236 18.3239 25.2145 18.6932C24.3111 19.0568 23.2543 19.2386 22.044 19.2386ZM42.3388 10.1705H38.0092C37.9865 9.90341 37.8928 9.6733 37.728 9.48011C37.5632 9.28693 37.3501 9.1392 37.0888 9.03693C36.8331 8.92898 36.549 8.875 36.2365 8.875C35.8331 8.875 35.4865 8.94886 35.1967 9.09659C34.907 9.24432 34.7649 9.45455 34.7706 9.72727C34.7649 9.92045 34.8473 10.0994 35.0178 10.2642C35.1939 10.429 35.532 10.5568 36.032 10.6477L38.6911 11.125C40.032 11.3693 41.0291 11.7812 41.6825 12.3608C42.3416 12.9347 42.674 13.7045 42.6797 14.6705C42.674 15.6023 42.3956 16.4119 41.8445 17.0994C41.299 17.7812 40.5518 18.3097 39.603 18.6847C38.6598 19.054 37.5831 19.2386 36.3729 19.2386C34.3729 19.2386 32.8075 18.8295 31.6768 18.0114C30.5518 17.1932 29.924 16.1136 29.7933 14.7727H34.4638C34.5263 15.1875 34.7308 15.5085 35.0774 15.7358C35.4297 15.9574 35.8729 16.0682 36.407 16.0682C36.8388 16.0682 37.1939 15.9943 37.4723 15.8466C37.7564 15.6989 37.9013 15.4886 37.907 15.2159C37.9013 14.9659 37.7763 14.767 37.532 14.6193C37.2933 14.4716 36.9183 14.3523 36.407 14.2614L34.0888 13.8523C32.7536 13.6193 31.7536 13.1761 31.0888 12.5227C30.424 11.8693 30.0945 11.0284 30.1001 10C30.0945 9.09091 30.3331 8.32102 30.8161 7.69034C31.3047 7.05398 32.0007 6.57102 32.9041 6.24148C33.8132 5.90625 34.8899 5.73864 36.1342 5.73864C38.0263 5.73864 39.5178 6.13068 40.6087 6.91477C41.7053 7.69886 42.282 8.78409 42.3388 10.1705ZM52.2891 5.90909V9.31818H43.6641V5.90909H52.2891ZM45.3345 2.77273H50.0391V14.7898C50.0391 14.9716 50.0703 15.125 50.1328 15.25C50.1953 15.3693 50.2919 15.4602 50.4226 15.5227C50.5533 15.5795 50.7209 15.608 50.9254 15.608C51.0675 15.608 51.2322 15.5909 51.4197 15.5568C51.6129 15.5227 51.755 15.4943 51.8459 15.4716L52.5277 18.7784C52.3175 18.8409 52.0163 18.9176 51.6243 19.0085C51.2379 19.0994 50.7777 19.1591 50.2436 19.1875C49.1641 19.2443 48.2578 19.1335 47.5249 18.8551C46.7919 18.571 46.2408 18.125 45.8714 17.517C45.5021 16.9091 45.3232 16.1477 45.3345 15.233V2.77273ZM60.375 19.2386C58.9545 19.2386 57.7386 18.9574 56.7273 18.3949C55.7159 17.8267 54.9403 17.0369 54.4006 16.0256C53.8608 15.0085 53.5909 13.8295 53.5909 12.4886C53.5909 11.1477 53.8608 9.97159 54.4006 8.96023C54.9403 7.94318 55.7159 7.15341 56.7273 6.59091C57.7386 6.02273 58.9545 5.73864 60.375 5.73864C61.7955 5.73864 63.0114 6.02273 64.0227 6.59091C65.0341 7.15341 65.8097 7.94318 66.3494 8.96023C66.8892 9.97159 67.1591 11.1477 67.1591 12.4886C67.1591 13.8295 66.8892 15.0085 66.3494 16.0256C65.8097 17.0369 65.0341 17.8267 64.0227 18.3949C63.0114 18.9574 61.7955 19.2386 60.375 19.2386ZM60.4091 15.7614C60.8068 15.7614 61.1506 15.6278 61.4403 15.3608C61.7301 15.0937 61.9545 14.7131 62.1136 14.2188C62.2727 13.7244 62.3523 13.1364 62.3523 12.4545C62.3523 11.767 62.2727 11.179 62.1136 10.6903C61.9545 10.196 61.7301 9.81534 61.4403 9.5483C61.1506 9.28125 60.8068 9.14773 60.4091 9.14773C59.9886 9.14773 59.6278 9.28125 59.3267 9.5483C59.0256 9.81534 58.7955 10.196 58.6364 10.6903C58.4773 11.179 58.3977 11.767 58.3977 12.4545C58.3977 13.1364 58.4773 13.7244 58.6364 14.2188C58.7955 14.7131 59.0256 15.0937 59.3267 15.3608C59.6278 15.6278 59.9886 15.7614 60.4091 15.7614ZM81.8629 5.90909L77.4652 19H72.0107L67.6129 5.90909H72.5561L74.6697 14.5682H74.8061L76.9197 5.90909H81.8629ZM83.201 19V5.90909H87.9055V19H83.201ZM85.5533 4.54545C84.9169 4.54545 84.3714 4.33523 83.9169 3.91477C83.4624 3.49432 83.2351 2.98864 83.2351 2.39773C83.2351 1.80682 83.4624 1.30114 83.9169 0.880681C84.3714 0.460227 84.9169 0.25 85.5533 0.25C86.1953 0.25 86.7408 0.460227 87.1896 0.880681C87.6442 1.30114 87.8714 1.80682 87.8714 2.39773C87.8714 2.98864 87.6442 3.49432 87.1896 3.91477C86.7408 4.33523 86.1953 4.54545 85.5533 4.54545ZM94.5298 15.8977L94.5639 10.3068H95.1776L98.348 5.90909H103.632L98.3139 12.7614H96.9844L94.5298 15.8977ZM90.3026 19V1.54545H95.0071V19H90.3026ZM98.3821 19L95.3821 13.8182L98.4503 10.4773L103.768 19H98.3821Z" fill="#67B4FF"/>
</svg>
